<?xml version="1.0" encoding="utf-8"?>
<!-- Generator: Adobe Illustrator 27.8.0, SVG Export Plug-In . SVG Version: 6.00 Build 0)  -->
<svg version="1.1" id="Layer_1" xmlns="http://www.w3.org/2000/svg" xmlns:xlink="http://www.w3.org/1999/xlink" x="0px" y="0px"
	 viewBox="0 0 400 400" style="enable-background:new 0 0 400 400;" xml:space="preserve">
<style type="text/css">
	.st0{fill:#666666;}
	.st1{fill:url(#SVGID_1_);}
	.st2{fill:url(#SVGID_00000154386990013608286520000004833944078528878737_);}
	.st3{fill:url(#SVGID_00000074443798887313296030000005084571168713319827_);}
	.st4{fill:url(#SVGID_00000152952493863290923750000011646305687772728494_);}
	.st5{fill:url(#SVGID_00000091717975436346535200000010005768124951863692_);}
	.st6{fill:url(#SVGID_00000119824842183918197020000017698888392959687857_);}
	.st7{fill:url(#SVGID_00000145746806554602592560000013894010028760135296_);}
	.st8{fill:url(#SVGID_00000099651059374855329840000004319372769420783489_);}
	.st9{fill:url(#SVGID_00000181788085482357838930000001801134435294248578_);}
</style>
<g>
	<linearGradient id="SVGID_1_" gradientUnits="userSpaceOnUse" x1="200" y1="-1.818989e-12" x2="200" y2="398.3306">
		<stop  offset="0" style="stop-color:#EFDF00"/>
		<stop  offset="0.2805" style="stop-color:#E0D100"/>
		<stop  offset="0.6415" style="stop-color:#D4C600"/>
		<stop  offset="1" style="stop-color:#D0C200"/>
	</linearGradient>
	<circle class="st1" cx="200" cy="200" r="200"/>
	<g>
		<path d="M208.44,78.79c4.27,0.62,8.56,1.13,12.8,1.88c23.08,4.08,43.28,14.12,60.5,29.96c20.46,18.83,33.03,42.07,37.75,69.48
			c10.86,63-31,125.41-93.45,138.14c-47.62,9.7-87.8-4.47-119.55-41.24c-15.34-17.77-23.99-38.83-26.81-62.21
			c-0.25-2.1-0.6-4.19-0.9-6.29c0-5.68,0-11.36,0-17.04c0.35-2.72,0.66-5.45,1.06-8.17c3.41-23.41,12.61-44.25,28.1-62.15
			c18.85-21.8,42.47-35.43,70.9-40.5c4.17-0.74,8.38-1.25,12.56-1.87C197.08,78.79,202.76,78.79,208.44,78.79z M199.9,86.14
			C137.05,86.2,85.98,137.33,86.14,200.06c0.15,62.82,50.93,113.65,113.69,113.81c62.62,0.15,113.87-51.07,113.89-113.85
			C313.74,137.16,262.68,86.09,199.9,86.14z"/>
		<path d="M213.81,152.67c3.92-0.34,7.45-0.63,10.97-0.96c3.28-0.31,4.97-2.63,4.08-5.51c-0.72-2.32-2.47-2.83-4.63-2.72
			c-7.95,0.39-15.9,1.06-23.85,1.03c-9.53-0.03-19.06-0.66-28.58-1.02c-3.69-0.14-5.84,2.56-4.58,5.71
			c0.72,1.79,2.18,2.36,3.92,2.52c2.82,0.26,5.66,0.43,8.46,0.85c0.8,0.12,1.89,0.85,2.15,1.56c4.99,13.42,9.88,26.88,14.75,40.34
			c0.27,0.74,0.3,1.73,0.05,2.47c-7.05,21.28-14.16,42.55-21.26,63.82c-0.07,0.2-0.22,0.38-0.59,1
			c-12.27-36.52-24.42-72.69-36.65-109.08c3.71-0.33,7.23-0.66,10.75-0.95c1.93-0.16,3.58-0.76,4.26-2.77c1.02-3-0.9-5.61-4.17-5.47
			c-5.12,0.21-10.23,0.69-15.35,0.82c-5.82,0.15-11.65,0.03-17.94,0.03c15.57-22.69,36.38-37.57,63.15-43.08
			c33.39-6.87,63.07,1.5,89.37,24.04c-2.03,0.23-3.5,0.26-4.89,0.59c-9.29,2.18-15.35,11.86-12.81,21.57
			c1.29,4.94,3.67,9.69,6.18,14.18c3.5,6.26,7.34,12.31,9.48,19.23c3.21,10.39,2.43,20.79-0.55,30.99
			c-4.7,16.08-9.81,32.04-14.76,48.04c-0.09,0.28-0.26,0.52-0.56,1.1C238.04,224.79,225.97,188.87,213.81,152.67z"/>
		<path d="M201.69,208.7c10.65,29.2,21.08,57.77,31.5,86.33c-10.9,6.87-45.78,7.89-61.77,1.69
			C181.43,267.63,191.44,238.52,201.69,208.7z"/>
		<path d="M155.84,290.67c-49.62-23.61-70-83.46-48.03-131.65C123.84,202.97,139.74,246.55,155.84,290.67z"/>
		<path d="M250.84,286.76c1.39-4.07,2.77-8.14,4.18-12.2c9.79-28.22,19.63-56.43,29.35-84.67c4.26-12.38,5.51-24.28,4.31-37.23
			c8.61,8.34,14.61,43.63,10.9,63.9C293.97,247.28,277.65,270.59,250.84,286.76z"/>
	</g>
</g>
</svg>
