<?xml version="1.0" encoding="utf-8"?>
<!-- Generator: Adobe Illustrator 27.8.0, SVG Export Plug-In . SVG Version: 6.00 Build 0)  -->
<svg version="1.1" id="Layer_1" xmlns="http://www.w3.org/2000/svg" xmlns:xlink="http://www.w3.org/1999/xlink" x="0px" y="0px"
	 viewBox="0 0 400 400" style="enable-background:new 0 0 400 400;" xml:space="preserve">
<style type="text/css">
	.st0{fill:#666666;}
	.st1{fill:url(#SVGID_1_);}
	.st2{fill:url(#SVGID_00000011018128979547069820000001566538804054870448_);}
	.st3{fill:url(#SVGID_00000163764594250039095470000004484410672254250152_);}
	.st4{fill:url(#SVGID_00000033337176830202556050000009619951685771412901_);}
	.st5{fill:url(#SVGID_00000159448000099296805270000003440480869170041789_);}
	.st6{fill:url(#SVGID_00000026857444823657089000000010845856030549612195_);}
	.st7{fill:url(#SVGID_00000148625046055666473170000003395010076677166494_);}
	.st8{fill:url(#SVGID_00000002361651970448982460000002879441997773984680_);}
	.st9{fill:url(#SVGID_00000178176000274820320330000018321743090540542613_);}
</style>
<g>
	<linearGradient id="SVGID_1_" gradientUnits="userSpaceOnUse" x1="200" y1="-1.818989e-12" x2="200" y2="398.3306">
		<stop  offset="0" style="stop-color:#EFDF00"/>
		<stop  offset="0.2805" style="stop-color:#E0D100"/>
		<stop  offset="0.6415" style="stop-color:#D4C600"/>
		<stop  offset="1" style="stop-color:#D0C200"/>
	</linearGradient>
	<circle class="st1" cx="200" cy="200" r="200"/>
	<path d="M265.35,156.68c30.49,7.09,50.16,25.08,54.94,56.08c4.21,27.31-6.1,49.89-29.34,64.84c-25.29,16.27-51,14.13-76.15-2.52
		c-7.69,7.68-15.56,15.49-23.32,23.42c-0.55,0.57-0.55,1.97-0.38,2.91c2.06,11.49-5.2,22.72-16.27,25.05
		c-11.66,2.46-22.91-4.44-25.65-15.71c-2.81-11.54,3.67-22.87,15.19-25.84c3.17-0.82,6.69-0.27,10.04-0.47
		c1.06-0.07,2.41-0.24,3.09-0.91c7.78-7.62,15.45-15.35,23.37-23.26c-7.5-11.23-11.68-23.46-11.87-37.01
		c-0.19-13.46,3.51-25.74,10.85-37.41c-5.54-4.34-11.01-8.64-16.5-12.92c-20.71-16.13-41.43-32.25-62.11-48.4
		c-1.72-1.35-3.06-1.86-5.42-0.86c-10.47,4.42-20.32,2.78-28.53-4.99c-8.21-7.76-10.58-17.54-6.64-28.22
		c3.99-10.84,12.33-16.53,23.7-17.35c16.01-1.16,29.89,14.56,27.22,30.34c-0.22,1.28,0.1,3.34,0.96,4.02
		c26.91,21.14,53.91,42.16,81.11,63.36c9.24-7.23,19.64-11.79,31.39-13.81c0-9.59,0.08-19.02-0.11-28.44
		c-0.02-1.03-1.43-2.26-2.49-2.99c-8.65-5.98-12.25-14.2-10.36-24.47c1.75-9.54,7.64-15.67,17.04-18.23
		c11.11-3.03,22.73,2.47,27.44,12.91c4.81,10.67,1.34,23.18-8.42,29.4c-2.12,1.35-2.86,2.73-2.82,5.18
		C265.44,139.17,265.35,147.99,265.35,156.68z M288.95,222.86c0.43-18.19-14.38-34.02-32.18-34.39c-19.46-0.41-35.03,14-35.56,32.92
		c-0.52,18.46,14.32,34.23,32.65,34.69C273.28,256.56,288.49,242.17,288.95,222.86z"/>
</g>
</svg>
