<?xml version="1.0" encoding="utf-8"?>
<!-- Generator: Adobe Illustrator 27.8.0, SVG Export Plug-In . SVG Version: 6.00 Build 0)  -->
<svg version="1.1" id="Layer_1" xmlns="http://www.w3.org/2000/svg" xmlns:xlink="http://www.w3.org/1999/xlink" x="0px" y="0px"
	 viewBox="0 0 400 400" style="enable-background:new 0 0 400 400;" xml:space="preserve">
<style type="text/css">
	.st0{fill:#666666;}
	.st1{fill:url(#SVGID_1_);}
	.st2{fill:url(#SVGID_00000084500982603434370930000002210869929031482545_);}
	.st3{fill:url(#SVGID_00000147210908082727933800000015547714010338798782_);}
	.st4{fill:url(#SVGID_00000156589886832322751070000010541233489338879417_);}
	.st5{fill:url(#SVGID_00000137852848030016556410000000233665720976929707_);}
	.st6{fill:url(#SVGID_00000139271377677720816690000010590021023054420136_);}
	.st7{fill:url(#SVGID_00000113348948332044398160000006894700051475005064_);}
	.st8{fill:url(#SVGID_00000172406240295618194950000013224854941939228296_);}
	.st9{fill:url(#SVGID_00000140698897546034510680000015292000638558537391_);}
</style>
<g>
	<linearGradient id="SVGID_1_" gradientUnits="userSpaceOnUse" x1="200" y1="-1.818989e-12" x2="200" y2="398.3306">
		<stop  offset="0" style="stop-color:#EFDF00"/>
		<stop  offset="0.2805" style="stop-color:#E0D100"/>
		<stop  offset="0.6415" style="stop-color:#D4C600"/>
		<stop  offset="1" style="stop-color:#D0C200"/>
	</linearGradient>
	<circle class="st1" cx="200" cy="200" r="200"/>
	<g>
		<path d="M321.21,228.43c-0.42,1.5-0.79,3.02-1.27,4.5c-3.47,10.81-13.06,17.57-25.08,17.59c-20.04,0.03-40.08,0.01-60.12,0.01
			c-0.94,0-1.88,0-3.06,0c0.22,0.62,0.28,1.07,0.51,1.41c2.31,3.48,4.61,6.97,7.01,10.39c1.72,2.46,1.76,4.64-0.09,6.64
			c-1.74,1.88-4.23,2.21-6.66,0.71c-8.05-4.97-16.22-9.77-24.04-15.08c-4.52-3.06-9.08-4.21-14.52-4.17
			c-29.59,0.21-59.17,0.12-88.76,0.09c-11.95-0.01-21.52-6.6-24.97-17.35c-0.83-2.58-1.29-5.4-1.3-8.11
			c-0.1-23.44-0.1-46.88-0.04-70.31c0.04-14.08,10.59-24.86,24.65-25.35c0.39-0.01,0.79-0.03,1.18-0.03c63.51,0,127.03,0,190.54,0
			c10.1,0,17.82,4.3,22.77,13.09c1.51,2.68,2.18,5.83,3.24,8.77C321.21,176.96,321.21,202.7,321.21,228.43z M142.95,177.53
			c0.46,1.77,0.79,3.03,1.11,4.3c2.96,11.61,5.82,23.26,11.24,34.04c2.61,5.18,5.66,10.07,10.77,13.21
			c4.63,2.84,8.46,0.69,8.77-4.71c0.59-10.07,0.88-20.2,2.12-30.2c1.79-14.47,3.98-28.93,11.87-41.74c1.67-2.71,0.83-5.53-1.57-7.04
			c-2.41-1.51-5.3-1.01-6.99,1.69c-2.03,3.26-3.99,6.64-5.42,10.19c-5.09,12.62-7.1,25.95-8.56,39.38
			c-0.53,4.91-0.89,9.84-1.38,15.33c-0.51-0.99-0.78-1.44-0.99-1.93c-4.46-10.21-7.78-20.79-10.34-31.63
			c-1.19-5.05-2.68-10.04-4.19-15c-0.62-2.03-1.94-3.55-4.34-3.82c-2.62-0.29-4.42,0.8-5.68,2.97c-1.18,2.05-2.44,4.06-3.45,6.2
			c-5.22,11.04-10.37,22.12-15.55,33.18c-1.26,2.69-2.53,5.37-4.01,8.51c-0.25-1.14-0.43-1.72-0.5-2.32
			c-1.16-9.31-2.31-18.63-3.46-27.94c-1.08-8.77-2.13-17.54-3.27-26.29c-0.34-2.62-2.28-4.36-4.69-4.56
			c-2.25-0.18-4.67,1.4-5.2,3.65c-0.27,1.12-0.23,2.36-0.09,3.52c2.16,17.69,4.26,35.39,6.59,53.06c0.75,5.69,2.03,11.31,3.2,16.93
			c0.4,1.91,1.45,3.54,3.68,3.82c2.52,0.33,4.74-0.12,6.11-2.54c1.21-2.12,2.52-4.2,3.56-6.4c5.25-11.11,10.43-22.27,15.65-33.4
			C139.53,184.64,141.14,181.33,142.95,177.53z M240.77,187.74c-0.18-8.28-1.92-14.74-5.58-20.66c-2.4-3.89-5.87-6.34-10.27-7.41
			c-6.31-1.53-11.89,0.4-16.87,4.14c-9.5,7.12-14.3,17.1-17.14,28.33c-2.68,10.59-1.82,20.62,3.84,30.09
			c2.21,3.69,5.4,6.11,9.49,7.35c6.55,1.99,12.4,0.14,17.57-3.77C234.84,215.96,239.24,201.84,240.77,187.74z M250.04,200.88
			c-0.04,9.18,1.8,15.54,5.36,21.4c3.65,6.01,10.55,9.03,17.45,7.77c5.59-1.02,10.07-3.99,13.96-7.93
			c7.77-7.86,11.61-17.64,13.72-28.29c1.9-9.58,0.26-18.48-4.75-26.81c-1.81-3.01-4.38-5.16-7.61-6.48
			c-7.18-2.95-13.72-1.16-19.53,3.31C255.77,173.75,251.37,187.78,250.04,200.88z"/>
		<path d="M199.97,201.03c0.84-8.62,3.8-18.54,11.64-26.31c1.95-1.93,4.52-3.44,7.08-4.48c3.52-1.43,6.52-0.01,8.34,3.31
			c3.14,5.75,4.02,11.87,2.85,18.29c-1.22,6.73-3.34,13.12-7.3,18.78c-2.42,3.46-5.21,6.54-9.09,8.43
			c-4.76,2.31-8.4,1.06-10.74-3.64C200.82,211.54,199.84,207.44,199.97,201.03z"/>
		<path d="M260.52,201.61c0.9-9.19,3.85-19.19,11.8-26.98c2.01-1.96,4.7-3.44,7.33-4.5c3.15-1.26,6.17,0.19,7.82,3.13
			c3.25,5.79,4.19,11.98,3.03,18.49c-1.2,6.73-3.32,13.12-7.26,18.79c-2.41,3.46-5.2,6.56-9.06,8.46c-4.84,2.39-8.52,1.12-10.9-3.72
			C261.45,211.54,260.53,207.54,260.52,201.61z"/>
	</g>
</g>
</svg>
