<?xml version="1.0" encoding="utf-8"?>
<!-- Generator: Adobe Illustrator 27.8.0, SVG Export Plug-In . SVG Version: 6.00 Build 0)  -->
<svg version="1.1" id="Layer_1" xmlns="http://www.w3.org/2000/svg" xmlns:xlink="http://www.w3.org/1999/xlink" x="0px" y="0px"
	 viewBox="0 0 400 400" style="enable-background:new 0 0 400 400;" xml:space="preserve">
<style type="text/css">
	.st0{fill:#666666;}
	.st1{fill:url(#SVGID_1_);}
	.st2{fill:url(#SVGID_00000078749026377151564400000012971744733143262617_);}
	.st3{fill:url(#SVGID_00000023978196637952668830000001309733049149013914_);}
	.st4{fill:url(#SVGID_00000030466607921298734250000011661710628998839689_);}
	.st5{fill:url(#SVGID_00000026121550973356767610000005855715586640522631_);}
	.st6{fill:url(#SVGID_00000029736556248197821700000009507311357484775338_);}
	.st7{fill:url(#SVGID_00000168083354577286462020000018246608433420661430_);}
	.st8{fill:url(#SVGID_00000160892190256942408200000006264551320372306304_);}
	.st9{fill:url(#SVGID_00000158008866232961772380000014900045248871840929_);}
</style>
<g>
	<linearGradient id="SVGID_1_" gradientUnits="userSpaceOnUse" x1="200" y1="0" x2="200" y2="398.3306">
		<stop  offset="0" style="stop-color:#EFDF00"/>
		<stop  offset="0.2805" style="stop-color:#E0D100"/>
		<stop  offset="0.6415" style="stop-color:#D4C600"/>
		<stop  offset="1" style="stop-color:#D0C200"/>
	</linearGradient>
	<circle class="st1" cx="200" cy="200" r="200"/>
	<g>
		<path d="M291.33,78.86c1.98,0.46,3.99,0.83,5.95,1.39c14.38,4.07,24.27,17.59,23.58,32.17c-0.74,15.59-11.34,27.97-26.42,30.86
			c-0.46,0.09-0.9,0.27-1.51,0.45c4.93,21.01-0.05,39.19-15.25,54.22c-7.99-7.98-15.88-15.87-23.93-23.91
			c0.05-0.06,0.41-0.54,0.82-0.97c8.3-8.68,8.46-20.82,0.39-28.76c-8.04-7.9-20.19-7.49-28.73,1.02
			c-13.8,13.75-27.57,27.53-41.34,41.3c-3.84,3.84-7.67,7.71-11.31,11.37c-8-8.02-15.89-15.92-23.92-23.97
			c0.22-0.24,0.77-0.87,1.36-1.46c17.12-17.12,34.26-34.22,51.38-51.34c12.09-12.09,26.67-17.51,43.69-16.24
			c3.35,0.25,6.65,1.08,9.93,1.63c0.94-2.82,1.62-5.85,2.92-8.58c5.07-10.65,13.48-16.97,25.22-18.73c0.36-0.05,0.7-0.29,1.04-0.45
			C287.23,78.86,289.28,78.86,291.33,78.86z"/>
		<path d="M114.76,78.86c3.14,0.91,6.42,1.51,9.4,2.79c10.02,4.27,16.29,11.88,18.89,22.41c0.47,1.88,1.22,1.92,2.77,1.65
			c19.42-3.28,35.88,2.41,49.47,16.15c-8.02,8.01-15.96,15.93-24.02,23.97c-2.71-2.82-6.08-5.43-10.45-6.53
			c-8.58-2.17-17.45,1.39-22.02,8.98c-4.57,7.59-3.73,17.25,2.44,23.62c8.17,8.44,16.57,16.66,24.88,24.97
			c9.31,9.31,18.63,18.62,27.94,27.93c0.49,0.49,0.96,1.01,1.37,1.46c-8.01,7.94-15.94,15.82-24.1,23.91
			c-2.77-2.81-5.74-5.85-8.74-8.86c-15.48-15.52-31.32-30.71-46.35-46.66c-13.08-13.88-16.84-30.74-12.54-49.34
			c0.16-0.67,0.27-1.36,0.33-1.64c-3.9-1.99-7.82-3.52-11.21-5.82c-10.94-7.42-16.05-21.35-12.87-34.11
			c3.24-13,13.94-22.65,27.08-24.44c0.53-0.07,1.05-0.3,1.57-0.45C110.66,78.86,112.71,78.86,114.76,78.86z"/>
		<path d="M78.79,284.31c1.4-3.89,2.37-8.01,4.29-11.61c4.34-8.11,11.36-13.09,20.44-15.61c-4.32-20.56,0.89-38.26,15.8-52.89
			c8.04,8.06,15.92,15.96,23.9,23.96c-0.59,0.65-1.4,1.5-2.17,2.37c-7.09,8.03-6.74,20.01,0.8,27.38c7.62,7.45,19.46,7.67,27.4,0.49
			c1.05-0.95,2.04-1.98,3.04-2.98c16.45-16.46,32.9-32.91,49.33-49.4c0.65-0.66,1.01-1.61,1.42-2.27
			c8.49,8.46,16.35,16.3,24.32,24.25c-0.21,0.27-0.5,0.72-0.88,1.1c-17.9,17.91-35.58,36.04-53.79,53.63
			c-13.53,13.07-30.01,17.22-48.46,13.52c-0.38-0.08-0.78-0.08-1.24-0.13c-0.78,2.07-1.42,4.17-2.34,6.14
			c-6.3,13.49-19.84,20.06-32.21,18.7c-15.32-1.69-26.47-12.05-29.17-26.4c-0.08-0.43-0.32-0.84-0.49-1.26
			C78.79,290.3,78.79,287.3,78.79,284.31z"/>
		<path d="M256.85,295.34c-21.47,5.52-39.88,0.4-55.37-15.09c8.07-8.04,15.99-15.92,24.03-23.92c0.55,0.51,1.34,1.25,2.13,1.98
			c7.89,7.28,20.01,7.05,27.55-0.53c7.52-7.57,7.74-19.76,0.29-27.53c-6.06-6.32-12.34-12.43-18.52-18.62
			c-11.09-11.11-22.18-22.21-33.3-33.29c-0.77-0.77-1.76-1.32-2.47-1.84c8.38-8.37,16.28-16.26,24.29-24.26
			c0.41,0.39,0.99,0.9,1.54,1.45c17,17.02,33.97,34.07,51.02,51.05c12.38,12.32,17.95,27.12,16.55,44.52
			c-0.19,2.34-0.69,4.65-1.08,7.21c10.91,2.08,19.18,7.8,24.25,17.7c3.38,6.6,4.22,13.64,2.84,20.91
			c-2.71,14.33-15.47,25.37-30.3,26.04C276.39,321.74,261.45,313.38,256.85,295.34z"/>
	</g>
</g>
</svg>
