<?xml version="1.0" encoding="utf-8"?>
<!-- Generator: Adobe Illustrator 27.8.0, SVG Export Plug-In . SVG Version: 6.00 Build 0)  -->
<svg version="1.1" id="Layer_1" xmlns="http://www.w3.org/2000/svg" xmlns:xlink="http://www.w3.org/1999/xlink" x="0px" y="0px"
	 viewBox="0 0 400 400" style="enable-background:new 0 0 400 400;" xml:space="preserve">
<style type="text/css">
	.st0{fill:#FFFFFF;}
	.st1{font-family:'Poppins-Bold';}
	.st2{font-size:181.1378px;}
	.st3{fill:#666666;}
	.st4{fill:url(#SVGID_1_);}
	.st5{fill:url(#SVGID_00000000190685685617090530000006763616799276722845_);}
	.st6{fill:url(#SVGID_00000152962060508131225410000011331710887312833207_);}
	.st7{fill:url(#SVGID_00000137096066771380487490000003688588892046459819_);}
	.st8{fill:url(#SVGID_00000040540553160641624060000000583527070681285515_);}
	.st9{fill:url(#SVGID_00000085942093666878088520000011034125291176969640_);}
	.st10{fill:url(#SVGID_00000116945917661895875110000002216744286870839999_);}
	.st11{fill:url(#SVGID_00000127041852345819866580000000943020795780382896_);}
	.st12{fill:url(#SVGID_00000040552628101599305700000002726513870041783943_);}
</style>
<text transform="matrix(1 0 0 1 -934.5919 -62.2557)" class="st0 st1 st2">Web Design</text>
<g>
	<linearGradient id="SVGID_1_" gradientUnits="userSpaceOnUse" x1="200" y1="-1.818989e-12" x2="200" y2="398.3306">
		<stop  offset="0" style="stop-color:#EFDF00"/>
		<stop  offset="0.2805" style="stop-color:#E0D100"/>
		<stop  offset="0.6415" style="stop-color:#D4C600"/>
		<stop  offset="1" style="stop-color:#D0C200"/>
	</linearGradient>
	<circle class="st4" cx="200" cy="200" r="200"/>
	<g>
		<path d="M199.99,78.79c5.26,16.35,15.68,28.05,26.51,39.45c12.38,13.03,25.17,25.69,37.11,39.11
			c12.53,14.08,21.95,30.1,26.65,48.64c12.67,50-19.37,102-69.72,112.99c-51.11,11.16-100.85-20.65-111.52-71.62
			c-5.72-27.35,0.77-52.32,16.11-75.3c9.99-14.96,22.64-27.58,35.09-40.41c8.98-9.26,17.81-18.7,26.32-28.39
			C192.54,96.42,196.93,88.47,199.99,78.79z M199.81,132.08c-6.36,6.39-12.6,12.56-18.73,18.85c-6.06,6.21-6.12,11.28-0.41,17.9
			c0.41,0.47,0.83,0.92,1.25,1.38c14.01,14.9,28.2,29.65,41.98,44.76c9.73,10.67,18.95,21.8,28.3,32.81
			c2.73,3.22,6.5,3.36,8.12-0.61c1.95-4.79,3.53-9.95,4.05-15.07c1.54-15-3.13-28.49-11.45-40.83c-9.1-13.5-19.98-25.53-31.14-37.29
			C214.76,146.57,207.33,139.55,199.81,132.08z M200.24,218.09c-0.57,0.39-0.86,0.52-1.05,0.74c-7.85,8.77-16,17.3-23.45,26.4
			c-8.67,10.59-10.34,22.64-4.14,34.99c5.9,11.74,16.03,17.74,29.09,17.48c12.93-0.27,22.75-6.62,28.17-18.44
			c5.32-11.6,4.29-23.12-3.88-33.13C217.16,236.53,208.62,227.53,200.24,218.09z M158.84,175.01c-8.35,8.45-15.17,17.43-19.23,28.25
			c-4.85,12.94-5.51,25.93,0.27,38.76c1.16,2.57,3.04,4.88,4.9,7.03c1.26,1.46,2.67,1.33,3.97-0.6c3.55-5.28,6.95-10.74,11.12-15.52
			c7.67-8.78,15.81-17.13,23.83-25.6c1.52-1.61,2.03-2.98,0.39-4.77C175.72,193.45,167.37,184.32,158.84,175.01z"/>
	</g>
</g>
</svg>
