<?xml version="1.0" encoding="utf-8"?>
<!-- Generator: Adobe Illustrator 27.8.0, SVG Export Plug-In . SVG Version: 6.00 Build 0)  -->
<svg version="1.1" id="Layer_1" xmlns="http://www.w3.org/2000/svg" xmlns:xlink="http://www.w3.org/1999/xlink" x="0px" y="0px"
	 viewBox="0 0 400 400" style="enable-background:new 0 0 400 400;" xml:space="preserve">
<style type="text/css">
	.st0{fill:#FFFFFF;}
	.st1{font-family:'Poppins-Bold';}
	.st2{font-size:181.1378px;}
	.st3{fill:#666666;}
	.st4{fill:url(#SVGID_1_);}
	.st5{fill:url(#SVGID_00000160192608837983684350000014399109688320101804_);}
	.st6{fill:url(#SVGID_00000023978237178139589850000002864414512730221962_);}
	.st7{fill:url(#SVGID_00000147222325430043389180000011952928969195345311_);}
	.st8{fill:url(#SVGID_00000141433324746983471090000011244119615923684774_);}
	.st9{fill:url(#SVGID_00000091712022963480898370000015227313329702314665_);}
	.st10{fill:url(#SVGID_00000014619577971536344790000011988610282709175487_);}
	.st11{fill:url(#SVGID_00000169552277674596012800000012602825939049805732_);}
	.st12{fill:url(#SVGID_00000119078811601078503430000017965889829273178814_);}
</style>
<text transform="matrix(1 0 0 1 -471.4855 -62.2557)" class="st0 st1 st2">Web Design</text>
<g>
	<linearGradient id="SVGID_1_" gradientUnits="userSpaceOnUse" x1="200" y1="0" x2="200" y2="398.3306">
		<stop  offset="0" style="stop-color:#EFDF00"/>
		<stop  offset="0.2805" style="stop-color:#E0D100"/>
		<stop  offset="0.6415" style="stop-color:#D4C600"/>
		<stop  offset="1" style="stop-color:#D0C200"/>
	</linearGradient>
	<circle class="st4" cx="200" cy="200" r="200"/>
	<g>
		<path d="M90.91,220.31c4.87-18.72,9.41-36.42,14.11-54.07c0.88-3.29,2.22-6.48,3.62-9.59c3.58-7.99,10.35-11.02,18.59-11.05
			c8.37-0.03,15.61,2.84,18.79,11.16c3.09,8.07,5.42,16.46,7.71,24.81c3.23,11.79,6.1,23.67,9.14,35.51c0.2,0.77,0.51,1.5,1.03,2.98
			c2.51-9.79,4.86-18.88,7.17-27.98c3.01-11.84,6.01-23.69,9.01-35.54c3.16-12.49,14.71-17.54,26.31-15.99
			c-1.68,6.42-3.34,12.81-5.01,19.19c-8.46,32.38-16.95,64.75-25.29,97.16c-0.59,2.29-1.55,2.88-3.63,2.97
			c-13.25,0.59-21.22-4.52-24.72-17.41c-5.19-19.06-9.68-38.31-14.48-57.48c-0.89-3.55-1.61-7.16-2.82-10.59
			c-0.52-1.47-2.12-2.57-3.22-3.83c-1,1.25-2.55,2.36-2.92,3.78c-3.34,12.82-6.43,25.71-9.68,38.55
			c-2.69,10.63-5.2,21.32-8.36,31.82c-3.93,13.04-14.41,15.85-25.32,14.88c-0.88-0.08-2.02-1.84-2.33-3.01
			c-4.22-15.79-8.32-31.6-12.43-47.41c-5.7-21.89-11.39-43.79-17.08-65.69c-0.25-0.97-0.41-1.96-0.61-2.95
			c10.54-1.57,22.67,3.26,25.66,14.8c5.03,19.46,10.01,38.94,15.02,58.41C89.64,215.61,90.15,217.47,90.91,220.31z"/>
		<path d="M312.36,200.23c13.1,19.85,25.94,39.32,39.15,59.34c-10.49,0.48-20.54,1.04-27.57-7.66
			c-6.82-8.44-12.92-17.46-19.32-26.24c-1.08-1.48-2.05-3.04-3.08-4.55c-2.79-4.11-4.23-4.15-6.97-0.13
			c-4.58,6.71-9.14,13.45-13.73,20.16c-1.36,1.98-2.89,3.85-4.18,5.88c-6.25,9.86-15.57,13.28-26.74,12.84
			c-1.58-0.06-3.15-0.19-5.25-0.32c0.8-1.34,1.37-2.4,2.03-3.4c11.73-17.77,23.43-35.56,35.27-53.26c1.39-2.08,1.26-3.4-0.06-5.39
			c-12.43-18.67-24.76-37.41-37.12-56.14c7.92-3.79,21.98-0.33,27.91,7.48c7.54,9.93,14.54,20.27,21.73,30.46
			c2.96,4.2,4.21,4.18,7.19-0.04c7.18-10.2,14.15-20.56,21.74-30.45c6.03-7.86,18.09-10.85,28-7.7
			C338.35,160.83,325.39,180.48,312.36,200.23z"/>
		<path d="M214.59,260.19c0-2.08,0-3.31,0-4.54c0-24.63,0.08-49.26-0.07-73.88c-0.03-5.4,2.1-8.76,6.92-11.04
			c5.08-2.4,9.93-5.28,14.83-7.92c-0.07-0.29,0.07,0.01,0.07,0.32c-0.01,25.77,0,51.55-0.07,77.32c-0.01,2.51-0.33,5.02-0.64,7.51
			c-0.7,5.62-4.04,9.26-9.29,10.71C222.72,259.65,218.82,259.67,214.59,260.19z"/>
		<path d="M214.96,165.28c-0.95-17.66,3.88-25.71,20.91-24.92c1.86,7.77-1.39,14.91-8.77,18.88
			C223.19,161.34,219.15,163.2,214.96,165.28z"/>
	</g>
</g>
</svg>
