<?xml version="1.0" encoding="utf-8"?>
<!-- Generator: Adobe Illustrator 27.8.0, SVG Export Plug-In . SVG Version: 6.00 Build 0)  -->
<svg version="1.1" id="Layer_1" xmlns="http://www.w3.org/2000/svg" xmlns:xlink="http://www.w3.org/1999/xlink" x="0px" y="0px"
	 viewBox="0 0 400 400" style="enable-background:new 0 0 400 400;" xml:space="preserve">
<style type="text/css">
	.st0{fill:#FFFFFF;}
	.st1{font-family:'Poppins-Bold';}
	.st2{font-size:181.1378px;}
	.st3{fill:#666666;}
	.st4{fill:url(#SVGID_1_);}
	.st5{fill:url(#SVGID_00000047745387774566120060000014271217470731818909_);}
	.st6{fill:url(#SVGID_00000125602439229048013840000005819991516551484300_);}
	.st7{fill:url(#SVGID_00000077326492832855677290000014722799809818075804_);}
	.st8{fill:url(#SVGID_00000027585453493599218740000004214438187528102276_);}
	.st9{fill:url(#SVGID_00000086671273140131960740000001297389050747461269_);}
	.st10{fill:url(#SVGID_00000023988049669119435160000011845587812608336018_);}
	.st11{fill:url(#SVGID_00000145043519617964258820000012288420090780054422_);}
	.st12{fill:url(#SVGID_00000178201531293383773480000018345844184602887085_);}
</style>
<text transform="matrix(1 0 0 1 -31.6557 -62.2557)" class="st0 st1 st2">Web Design</text>
<g>
	<linearGradient id="SVGID_1_" gradientUnits="userSpaceOnUse" x1="200" y1="-1.818989e-12" x2="200" y2="398.3306">
		<stop  offset="0" style="stop-color:#EFDF00"/>
		<stop  offset="0.2805" style="stop-color:#E0D100"/>
		<stop  offset="0.6415" style="stop-color:#D4C600"/>
		<stop  offset="1" style="stop-color:#D0C200"/>
	</linearGradient>
	<circle class="st4" cx="200" cy="200" r="200"/>
	<g>
		<path d="M287.14,288.84c0-3.43,0-5.67,0-7.91c0-41.71-0.06-83.42,0.09-125.12c0.01-4.2-1.17-6.63-4.95-8.77
			c-26.02-14.71-51.94-29.6-77.75-44.69c-3.62-2.11-6.1-1.74-9.47,0.22c-25.66,14.92-51.38,29.74-77.21,44.35
			c-3.78,2.14-5.01,4.55-5,8.77c0.18,41.5,0.15,83,0.19,124.5c0,2.47,0,4.94,0,8.68c-7.9-4.51-14.81-9.28-22.36-12.58
			c-9.4-4.11-12.08-10.21-11.89-20.46c0.71-39.22,0.4-78.46,0.16-117.69c-0.03-5.41,1.47-8.43,6.3-11.17
			c36.76-20.83,73.36-41.96,109.94-63.11c3.38-1.95,6.08-2.3,9.64-0.24c36.92,21.4,73.89,42.7,110.96,63.83
			c3.89,2.22,5.44,4.61,5.42,9.17c-0.18,42.33-0.17,84.66,0,126.98c0.02,4.33-1.37,6.72-5.1,8.73
			C306.71,277.42,297.52,282.89,287.14,288.84z"/>
		<path d="M182.28,151.13c0,3.36,0,5.56,0,7.75c0,41.7,0.07,83.41-0.1,125.11c-0.02,4.52,2.07,6.46,5.26,9.28
			c10.28,9.09,19.05,4.89,27.64-1.98c1.65-1.32,2.54-4.5,2.54-6.83c0.15-41.7,0.11-83.41,0.11-125.11c0-2.27,0-4.53,0-7.58
			c1.82,0.76,3.27,1.2,4.56,1.93c6.46,3.66,12.6,8.04,19.38,10.93c8.17,3.48,10.53,8.55,10.4,17.45
			c-0.58,40.66-0.31,81.34-0.16,122.01c0.01,3.79-1.09,5.88-4.4,7.73c-14.22,7.92-28.35,16.02-42.36,24.31
			c-3.66,2.17-6.48,2.21-10.18,0.02c-14.01-8.3-28.16-16.37-42.38-24.29c-3.32-1.85-4.37-3.99-4.35-7.78
			c0.15-42.73,0.16-85.47-0.01-128.21c-0.02-4.09,1.26-6.25,4.77-8.15C162.55,162.59,171.89,157.07,182.28,151.13z"/>
	</g>
</g>
</svg>
