<?xml version="1.0" encoding="utf-8"?>
<!-- Generator: Adobe Illustrator 27.8.0, SVG Export Plug-In . SVG Version: 6.00 Build 0)  -->
<svg version="1.1" id="Layer_1" xmlns="http://www.w3.org/2000/svg" xmlns:xlink="http://www.w3.org/1999/xlink" x="0px" y="0px"
	 viewBox="0 0 400 400" style="enable-background:new 0 0 400 400;" xml:space="preserve">
<style type="text/css">
	.st0{fill:#666666;}
	.st1{fill:url(#SVGID_1_);}
	.st2{fill:url(#SVGID_00000155119076397198977920000003165139277840582552_);}
	.st3{fill:url(#SVGID_00000031886672325903755560000014237960054988551603_);}
	.st4{fill:url(#SVGID_00000052097979983768759350000007871044018646207111_);}
	.st5{fill:url(#SVGID_00000044171258734441066300000004288361405693438118_);}
	.st6{fill:url(#SVGID_00000083050859240527466230000002594554975885683843_);}
	.st7{fill:url(#SVGID_00000110430443094861213780000012496318023828334485_);}
	.st8{fill:url(#SVGID_00000147901303057612517050000003967483879164391589_);}
	.st9{fill:url(#SVGID_00000048485849413572955010000014433395436083543447_);}
</style>
<g>
	<linearGradient id="SVGID_1_" gradientUnits="userSpaceOnUse" x1="200" y1="0" x2="200" y2="398.3306">
		<stop  offset="0" style="stop-color:#EFDF00"/>
		<stop  offset="0.2805" style="stop-color:#E0D100"/>
		<stop  offset="0.6415" style="stop-color:#D4C600"/>
		<stop  offset="1" style="stop-color:#D0C200"/>
	</linearGradient>
	<circle class="st1" cx="200" cy="200" r="200"/>
	<g>
		<path d="M191.93,62.82c4.97,1.38,9.49,3.49,12.96,7.5c0.32,0.37,1.13,0.44,1.7,0.42c9.85-0.29,17.2,4.27,22.44,12.19
			c2.87,4.34,4.94,9.21,7.52,14.14c2.76-0.81,5.96-1.75,9.42-2.76c0,81.05,0,161.79,0,242.88c-55.68-9.63-111.27-19.24-167.19-28.91
			c0.45-3.82,0.86-7.51,1.34-11.19c2.27-17.59,4.55-35.18,6.85-52.77c2.06-15.82,4.17-31.63,6.22-47.46
			c2.05-15.82,4.17-31.64,6.05-47.48c1.17-9.84,1.19-10.1,10.68-13.05c7.57-2.35,15.13-4.73,22.72-6.99
			c1.69-0.5,2.27-1.33,2.63-3.08c3.56-17.52,10.81-33.34,22.38-47.04c6.96-8.24,15.46-14.18,26.23-16.41
			C186.57,62.82,189.25,62.82,191.93,62.82z M129.51,251.56c-1.77,7.58-3.39,14.78-5.19,21.94c-0.42,1.66-0.03,2.58,1.23,3.62
			c11.93,9.76,25.64,13.67,40.87,12.45c13.63-1.1,23.99-7.54,30.47-19.68c4.45-8.33,5.66-17.33,4.88-26.7
			c-0.92-11.06-5.95-19.87-14.4-26.77c-3.72-3.04-7.81-5.63-11.73-8.42c-3.27-2.33-6.65-4.5-9.78-7c-8.01-6.4-4.3-16.63,3.23-19.68
			c4.82-1.95,9.86-2.62,14.96-1.86c4.91,0.73,9.75,1.9,14.81,2.91c2.46-9.24,4.91-18.89,7.67-28.46c0.75-2.6-0.17-3.25-2.31-3.81
			c-10.26-2.67-20.55-2.28-30.73,0.11c-17.91,4.22-31.46,14.11-37.5,31.98c-6.51,19.26-3.6,37.17,15.29,49.51
			c3.2,2.09,6.33,4.4,9.1,7.02c2.08,1.98,4.05,4.4,5.18,7c3.9,8.95-1.98,16.83-11.68,16.08c-5.82-0.45-11.07-2.59-16.11-5.34
			C135.06,254.98,132.45,253.31,129.51,251.56z M144.21,125.71c7.87-2.42,15-4.56,22.07-6.88c0.72-0.24,1.35-1.5,1.58-2.41
			c4.4-17.16,11.4-32.66,27.6-43.01c-2.29-0.59-4.13-1.33-6.02-1.5c-7.57-0.69-13.71,2.66-19.14,7.43
			c-10.73,9.43-17.41,21.55-22.38,34.71C146.56,117.67,145.56,121.42,144.21,125.71z M177.22,115.5c9.42-2.91,18.3-5.63,27.14-8.48
			c0.52-0.17,1-1.39,0.98-2.1c-0.12-3.65-0.11-7.34-0.71-10.92c-0.74-4.4-2.05-8.7-3.22-13.52
			C187.33,88.55,181.77,101.32,177.22,115.5z M227.15,100.03c-1.72-8.26-9.06-19.69-15.9-19.59c1.23,7.67,2.48,15.42,3.76,23.34
			C218.92,102.58,223.05,101.3,227.15,100.03z"/>
		<path d="M251.92,97.28c3.99,3.86,7.96,7.2,11.3,11.08c3.33,3.86,7.08,5.4,12.12,4.92c3.8-0.36,7.67-0.03,11.51,0.04
			c3.33,0.06,4.04,0.62,4.53,3.94c1.7,11.37,3.34,22.75,5.02,34.12c2.41,16.31,4.83,32.61,7.24,48.92
			c2.41,16.31,4.81,32.62,7.22,48.92c2.41,16.31,4.82,32.61,7.23,48.92c1.03,6.95,2.05,13.91,3.11,21.17
			c-23.1,5.74-46.04,11.45-69.3,17.23C251.92,256.85,251.92,177.32,251.92,97.28z"/>
	</g>
</g>
</svg>
