<?xml version="1.0" encoding="utf-8"?>
<!-- Generator: Adobe Illustrator 27.8.0, SVG Export Plug-In . SVG Version: 6.00 Build 0)  -->
<svg version="1.1" id="Layer_1" xmlns="http://www.w3.org/2000/svg" xmlns:xlink="http://www.w3.org/1999/xlink" x="0px" y="0px"
	 viewBox="0 0 400 400" style="enable-background:new 0 0 400 400;" xml:space="preserve">
<style type="text/css">
	.st0{fill:#666666;}
	.st1{fill:url(#SVGID_1_);}
	.st2{fill:url(#SVGID_00000070105607339778449520000018224743404798285234_);}
	.st3{fill:url(#SVGID_00000150799748383347687970000015342597931434107280_);}
	.st4{fill:url(#SVGID_00000150799783772841514230000014490138230347152298_);}
	.st5{fill:url(#SVGID_00000122688297925979316540000017148831782563262081_);}
	.st6{fill:url(#SVGID_00000050632903123077251460000012409879602422647228_);}
	.st7{fill:url(#SVGID_00000153668081618906623450000013647282866431028111_);}
	.st8{fill:url(#SVGID_00000072975677182249184800000005433581171050412931_);}
	.st9{fill:url(#SVGID_00000177470298721002859610000005031664498581491335_);}
</style>
<g>
	<linearGradient id="SVGID_1_" gradientUnits="userSpaceOnUse" x1="200" y1="0" x2="200" y2="398.3306">
		<stop  offset="0" style="stop-color:#EFDF00"/>
		<stop  offset="0.2805" style="stop-color:#E0D100"/>
		<stop  offset="0.6415" style="stop-color:#D4C600"/>
		<stop  offset="1" style="stop-color:#D0C200"/>
	</linearGradient>
	<circle class="st1" cx="200" cy="200" r="200"/>
	<g>
		<path d="M223.6,307.31c30.35-29.02,60.05-57.11,89.35-85.6c12.53-12.18,12.53-30.55,0.94-42.29
			c-12.21-12.38-30.21-11.79-43.89,1.89c-28.15,28.17-56.1,56.54-84.14,84.83c-2.27,2.29-4.44,4.73-6.96,6.72
			c-6.78,5.37-13.78,5.88-20.26-0.38c-6.24-6.02-6.02-14.25,0.63-20.95c30.58-30.81,61.03-61.75,91.98-92.18
			c24.09-23.69,59.89-23.65,82.87-0.68c23.18,23.17,22.88,59.74-0.81,83.81c-21.9,22.25-43.8,44.49-65.93,66.51
			C255.16,321.14,239.96,321.48,223.6,307.31z"/>
		<path d="M176.06,92.85c-29.98,28.85-59.31,56.8-88.31,85.08c-12.84,12.52-13.44,30.27-2.24,42.3
			c11.96,12.85,30.36,12.93,43.82-0.5c29.47-29.39,58.69-59.01,87.91-88.65c8.33-8.45,16.53-9.99,23.15-3.75
			c6.54,6.16,5.65,15.05-2.54,23.38c-29.16,29.69-58.28,59.42-87.59,88.96c-17.7,17.83-38.81,23.97-62.8,15.42
			c-24.08-8.58-36.49-26.98-38.55-51.88c-1.28-15.5,3.47-30.15,14.33-41.46c23.6-24.58,47.64-48.75,72.03-72.55
			C145.87,78.85,161.47,79.82,176.06,92.85z"/>
		<path d="M224.58,78.79c21.3,1.1,34.95,5.46,46.06,16.26c6.67,6.49,7.71,13.53,1.73,20.88c-5.43,6.67-13.22,6.86-20.9,0.95
			c-16.22-12.5-29.2-11.89-43.59,2.51c-28.62,28.64-57.08,57.46-85.66,86.15c-2.5,2.51-5.1,5.15-8.15,6.83
			c-6.73,3.7-13.27,2.96-18.24-3.21c-4.88-6.07-4.94-13.08,0.4-18.48c32.77-33.1,65.24-66.55,99.25-98.34
			C204.18,84.2,218.11,81.66,224.58,78.79z"/>
		<path d="M168.78,321.21c-13.55-0.58-26.3-4.54-37.08-13.76c-8.89-7.6-10.77-15.19-5.58-22.16c5.84-7.84,13.19-7.69,23.5-0.94
			c5.16,3.38,11.27,6.05,17.31,7.21c10.43,2.01,18.44-3.43,25.57-10.67c28.93-29.35,58.01-58.55,87.01-87.83
			c8.08-8.16,17.12-9.4,23.34-3.1c6.18,6.27,5.1,15.27-3.04,23.49c-29.49,29.8-59.12,59.47-88.5,89.38
			C199.64,314.7,185.59,320.49,168.78,321.21z"/>
	</g>
</g>
</svg>
