<?xml version="1.0" encoding="utf-8"?>
<!-- Generator: Adobe Illustrator 27.8.0, SVG Export Plug-In . SVG Version: 6.00 Build 0)  -->
<svg version="1.1" id="Layer_1" xmlns="http://www.w3.org/2000/svg" xmlns:xlink="http://www.w3.org/1999/xlink" x="0px" y="0px"
	 viewBox="0 0 128 128" style="enable-background:new 0 0 128 128;" xml:space="preserve">
<style type="text/css">
	.st0{fill:url(#SVGID_1_);}
	.st1{fill:url(#SVGID_00000173843689632929422960000007880923578441767320_);}
	.st2{fill:url(#SVGID_00000133496660259448459190000018302733101860200126_);}
	.st3{fill:url(#SVGID_00000093863029778373534190000008732286130231517322_);}
	.st4{fill:url(#SVGID_00000109007088220403594660000011138794145834740909_);}
	.st5{fill:url(#SVGID_00000160188247002875270820000013641843159272032150_);}
	.st6{fill:#EFDF00;}
	.st7{fill:#666666;}
	.st8{fill:#A39300;}
	.st9{fill:#D0C200;}
	.st10{fill:#00514D;}
	.st11{fill:#DD7901;}
</style>
<g>
	<path class="st6" d="M44.92,65.65c0.18,2.31,0.81,4.52,1.78,6.54C45.72,70.04,45.13,67.84,44.92,65.65z M47.42,54.38
		c1.83-3.09,4.59-5.7,8.15-7.45c1.53-0.75,3.09-1.29,4.66-1.63C54.68,46.35,50.1,49.69,47.42,54.38z M56.94,81.75
		c2.19,0.88,4.56,1.37,7.03,1.37c1.2,0,2.38-0.11,3.52-0.33C63.92,83.44,60.25,83.04,56.94,81.75z M63.97,52.42
		c-6.38,0.01-11.55,5.13-11.54,11.44c0,6.64,4.94,11.64,11.5,11.67c6.66,0.02,11.69-5.03,11.66-11.73
		C75.56,57.51,70.35,52.41,63.97,52.42z M75.26,48.51c2.49,1.83,4.58,4.32,6.06,7.39C79.96,52.91,77.88,50.37,75.26,48.51z
		 M83.13,63.84c0,4.65-1.71,9.23-4.8,12.77c2.98-3.34,4.8-7.7,4.8-12.39C83.13,64.09,83.13,63.97,83.13,63.84z M63.97,52.42
		c-6.38,0.01-11.55,5.13-11.54,11.44c0,6.64,4.94,11.64,11.5,11.67c6.66,0.02,11.69-5.03,11.66-11.73
		C75.56,57.51,70.35,52.41,63.97,52.42z M63.97,52.42c-6.38,0.01-11.55,5.13-11.54,11.44c0,6.64,4.94,11.64,11.5,11.67
		c6.66,0.02,11.69-5.03,11.66-11.73C75.56,57.51,70.35,52.41,63.97,52.42z M63.97,52.42c-6.38,0.01-11.55,5.13-11.54,11.44
		c0,6.64,4.94,11.64,11.5,11.67c6.66,0.02,11.69-5.03,11.66-11.73C75.56,57.51,70.35,52.41,63.97,52.42z M63.97,52.42
		c-6.38,0.01-11.55,5.13-11.54,11.44c0,6.64,4.94,11.64,11.5,11.67c6.66,0.02,11.69-5.03,11.66-11.73
		C75.56,57.51,70.35,52.41,63.97,52.42z M111.19,30.69c0.51-0.29,1.03-0.58,1.55-0.86c0.02-0.01,0.05-0.03,0.07-0.04
		C112.26,30.06,111.72,30.37,111.19,30.69z M107.98,32.98c0.29-0.33,0.78-0.71,1.46-1.19C108.72,32.26,108.24,32.64,107.98,32.98z
		 M91.78,121.61c0.29-0.09,0.56-0.22,0.81-0.39C92.33,121.35,92.06,121.48,91.78,121.61z M83.13,63.84c0,4.65-1.71,9.23-4.8,12.77
		c2.98-3.34,4.8-7.7,4.8-12.39C83.13,64.09,83.13,63.97,83.13,63.84z M81.9,57.24c0.73,1.98,1.16,4.12,1.22,6.39
		C83.1,61.47,82.7,59.31,81.9,57.24z M75.26,48.51c2.49,1.83,4.58,4.32,6.06,7.39C79.96,52.91,77.88,50.37,75.26,48.51z
		 M68.52,82.56c0.47-0.11,0.95-0.24,1.42-0.39c0.16-0.05,0.32-0.1,0.47-0.16c0.16-0.06,0.31-0.11,0.46-0.17
		c0.15-0.06,0.3-0.12,0.45-0.18c0.02-0.01,0.03-0.01,0.05-0.02c0.14-0.06,0.28-0.12,0.42-0.18c0.15-0.06,0.31-0.14,0.46-0.21
		c2.06-0.99,3.86-2.31,5.36-3.87C75.15,79.86,72,81.69,68.52,82.56z M63.97,52.42c-6.38,0.01-11.55,5.13-11.54,11.44
		c0,6.64,4.94,11.64,11.5,11.67c6.66,0.02,11.69-5.03,11.66-11.73C75.56,57.51,70.35,52.41,63.97,52.42z M60.23,45.31
		c1.15-0.21,2.34-0.33,3.57-0.34c4.13-0.03,7.9,1.14,11,3.21C70.61,45.27,65.4,44.2,60.23,45.31z M56.94,81.75
		c2.19,0.88,4.56,1.37,7.03,1.37c1.2,0,2.38-0.11,3.52-0.33C63.92,83.44,60.25,83.04,56.94,81.75z M47.42,54.38
		c1.83-3.09,4.59-5.7,8.15-7.45c1.53-0.75,3.09-1.29,4.66-1.63C54.68,46.35,50.1,49.69,47.42,54.38z M46.71,72.19
		c0.04,0.09,0.08,0.18,0.12,0.27c1.96,4.1,5.32,7.17,9.27,8.93C52,79.51,48.65,76.22,46.71,72.19z M47.42,54.38
		c-1.98,3.34-2.87,7.24-2.5,11.21c-0.03-0.46-0.05-0.93-0.05-1.41C44.87,60.57,45.8,57.23,47.42,54.38z M44.92,65.65
		c0.18,2.31,0.81,4.52,1.78,6.54C45.72,70.04,45.13,67.84,44.92,65.65z M18.62,96.15c0.61-0.41,1.05-0.75,1.31-1.06
		C19.65,95.39,19.21,95.73,18.62,96.15z M15.34,98.1c-0.09,0.05-0.18,0.1-0.26,0.15c0.28-0.15,0.56-0.3,0.84-0.46
		C15.72,97.9,15.53,98,15.34,98.1z M63.97,52.42c-6.38,0.01-11.55,5.13-11.54,11.44c0,6.64,4.94,11.64,11.5,11.67
		c6.66,0.02,11.69-5.03,11.66-11.73C75.56,57.51,70.35,52.41,63.97,52.42z M63.97,52.42c-6.38,0.01-11.55,5.13-11.54,11.44
		c0,6.64,4.94,11.64,11.5,11.67c6.66,0.02,11.69-5.03,11.66-11.73C75.56,57.51,70.35,52.41,63.97,52.42z"/>
	<path class="st6" d="M117.55,57.85c-1.6-2.31-1.35-2.88,1.51-3.22c1.27-0.15,2.54-0.31,3.81-0.33c1.75-0.03,3.08-0.71,3.71-2.33
		c0.35-0.9,0.36-1.74,0.09-2.53c-0.02-0.07-0.04-0.13-0.07-0.2c-0.22-0.54-0.58-1.06-1.07-1.54c-4.78-4.82-10.02-9.02-15.95-12.34
		c-1.81-1.02-2.34-1.54-1.6-2.38c0.26-0.34,0.74-0.72,1.46-1.19c0,0,0,0,0.01,0c0.55-0.38,1.12-0.73,1.7-1.07
		c0.01,0,0.03-0.01,0.04-0.02c0.53-0.32,1.07-0.63,1.62-0.9c0.02-0.01,0.04-0.02,0.06-0.03c1.57-0.78,2.47-1.97,2.33-3.71
		c-0.14-1.71-1.15-2.81-2.8-3.39c-6.39-2.27-12.94-3.79-19.72-4.22c-2.89-0.18-3.11-0.59-1.66-3.16c0.63-1.11,1.38-2.15,2.12-3.19
		c0.99-1.39,1.34-2.86,0.46-4.38c-0.87-1.51-2.29-2.02-4-1.84C82.7,6.59,76.04,8.2,69.61,10.76c-2.21,0.88-2.67,0.65-2.6-1.71
		c0.03-1.27,0.17-2.55,0.41-3.8c0.34-1.79,0.29-3.43-1.36-4.57c-0.21-0.15-0.41-0.26-0.62-0.36c-0.26-0.12-0.52-0.2-0.77-0.26
		c-0.45-0.09-0.9-0.09-1.34,0c-0.75,0.15-1.49,0.51-2.23,0.98c-5.68,3.57-10.79,7.81-15.31,12.77c-0.74,0.81-1.26,1.25-1.69,1.28
		c-0.02,0-0.03,0-0.05,0c-0.59,0.08-1.04-0.45-1.42-1.43c-0.53-1.39-1.1-2.76-1.51-4.19c-0.49-1.73-1.39-2.97-3.24-3.25
		c-0.49-0.07-0.95-0.06-1.36,0.03c-0.52,0.12-0.98,0.35-1.39,0.67c-0.29,0.23-0.56,0.52-0.81,0.84c-0.16,0.2-0.31,0.42-0.46,0.65
		c-3.54,5.7-6.34,11.72-8.24,18.16c-0.69,2.33-1.14,2.61-2.77,1.23l-0.01-0.01c-0.09-0.07-0.18-0.15-0.27-0.24
		c-0.35-0.32-0.69-0.64-1.02-0.98c-0.72-0.72-1.4-1.47-2.1-2.22c-1.09-1.18-2.33-1.84-3.98-1.36c-1.7,0.5-2.53,1.66-2.73,3.4
		c-0.78,6.74-0.76,13.46,0.34,20.16c0.43,2.63,0.07,3-2.47,2.24c-1.22-0.37-2.41-0.82-3.58-1.33c-1.68-0.74-3.3-0.95-4.74,0.43
		c-1.45,1.37-1.32,2.98-0.71,4.72c1.63,4.64,3.65,9.07,6.13,13.27c0.24,0.42,0.49,0.83,0.75,1.25c0.16,0.26,0.32,0.52,0.49,0.78
		c0.24,0.39,0.49,0.77,0.75,1.16c0.26,0.38,0.52,0.77,0.78,1.15c0.11,0.15,0.2,0.29,0.29,0.43c0.04,0.06,0.08,0.12,0.12,0.18
		c1.05,1.7,0.58,2.21-1.85,2.52c-1.34,0.17-2.68,0.3-4.03,0.35c-1.74,0.06-3.05,0.76-3.64,2.42c-0.2,0.57-0.27,1.11-0.22,1.63v0.03
		c0.08,1.13,0.75,2.09,1.66,2.99c4.7,4.69,9.86,8.74,15.65,12.01c1.64,0.93,2.12,1.52,1.47,2.31c-0.26,0.31-0.7,0.65-1.31,1.06
		c-0.03,0.03-0.07,0.05-0.11,0.07c-0.02,0.01-0.04,0.03-0.06,0.04c-0.81,0.55-1.66,1.05-2.52,1.52c0,0-0.01,0.01-0.02,0.01
		c-0.28,0.16-0.56,0.31-0.84,0.46c-0.01,0.01-0.03,0.02-0.04,0.03c-1.54,0.81-2.42,2-2.24,3.76c0.18,1.73,1.25,2.76,2.88,3.33
		c6.4,2.26,12.95,3.75,19.73,4.19c2.73,0.18,2.99,0.66,1.61,3.08c-0.63,1.1-1.36,2.16-2.11,3.19c-1.01,1.37-1.4,2.82-0.56,4.37
		c0.89,1.61,2.35,2.12,4.15,1.92c6.88-0.76,13.55-2.36,19.98-4.92c2.12-0.84,2.55-0.61,2.48,1.64c-0.05,1.41-0.21,2.83-0.46,4.22
		c-0.31,1.75-0.12,3.27,1.48,4.32c0.21,0.14,0.42,0.25,0.62,0.34l0.9,0.26h0.99c0.64-0.09,1.28-0.35,1.91-0.72c0,0,0.01,0,0.01-0.01
		c0.05-0.04,0.12-0.08,0.18-0.11c5.72-3.61,10.94-7.83,15.48-12.86c0.7-0.78,1.21-1.23,1.63-1.33c0,0,0.01,0,0.01,0
		c0.67-0.23,1.17,0.26,1.58,1.26c0.63,1.57,1.2,3.17,1.71,4.79c0.5,1.59,1.51,2.56,3.16,2.76c0.59,0.07,1.13,0.03,1.62-0.13
		c0.27-0.13,0.54-0.26,0.81-0.39c0.37-0.23,0.7-0.55,1-0.93c0.11-0.14,0.21-0.29,0.31-0.45c3.63-5.72,6.45-11.82,8.4-18.31
		c0.74-2.49,1.08-2.8,2.77-1.36c0.01,0,0.01,0.01,0.02,0.01c0.16,0.13,0.32,0.28,0.5,0.44c0.68,0.61,1.31,1.26,1.94,1.93
		c0.35,0.37,0.69,0.75,1.02,1.13c1.17,1.3,2.57,1.77,4.22,1.2c1.57-0.55,2.29-1.75,2.47-3.4c0.7-6.59,0.73-13.18-0.31-19.74
		c-0.49-3.11-0.17-3.4,2.93-2.42c1.15,0.36,2.27,0.8,3.37,1.3c1.57,0.7,3.05,0.7,4.37-0.47c1.4-1.25,1.47-2.8,0.88-4.49
		C124.3,69.33,121.38,63.36,117.55,57.85z M78.33,76.61c-0.07,0.09-0.15,0.17-0.23,0.26c-0.15,0.17-0.31,0.34-0.48,0.51
		c-1.51,1.57-3.31,2.89-5.36,3.87c-0.15,0.07-0.3,0.15-0.46,0.21c-0.14,0.06-0.28,0.12-0.42,0.18c-0.02,0.01-0.03,0.01-0.05,0.02
		c-0.15,0.06-0.3,0.12-0.45,0.18c-0.15,0.06-0.31,0.12-0.46,0.17c-0.15,0.06-0.31,0.11-0.47,0.16c-0.56,0.19-1.13,0.34-1.7,0.46
		c-0.09,0.03-0.19,0.04-0.29,0.06c-0.15,0.03-0.3,0.06-0.45,0.09c-1.15,0.22-2.32,0.33-3.52,0.33c-2.47,0-4.85-0.49-7.03-1.37
		c-0.15-0.06-0.29-0.12-0.44-0.18c-0.14-0.06-0.27-0.12-0.41-0.18c-3.95-1.76-7.31-4.83-9.27-8.93c-0.04-0.09-0.09-0.18-0.12-0.27
		c-0.98-2.02-1.6-4.23-1.78-6.54c0-0.02,0-0.04,0-0.06c-0.37-3.98,0.52-7.87,2.5-11.21c2.67-4.69,7.26-8.03,12.81-9.07
		c5.17-1.11,10.37-0.03,14.56,2.87c0.05,0.03,0.09,0.06,0.14,0.1c0.11,0.07,0.22,0.15,0.33,0.23c2.62,1.86,4.7,4.41,6.06,7.39
		c0.09,0.2,0.2,0.41,0.28,0.61c0,0.01,0.01,0.03,0.02,0.04c0.09,0.23,0.2,0.45,0.28,0.69c0.8,2.07,1.2,4.24,1.22,6.39
		c0,0.07,0,0.15,0,0.21c0,0.13,0,0.26,0,0.38C83.13,68.91,81.3,73.27,78.33,76.61z"/>
	<path class="st6" d="M125.37,47.45c-4.72-4.76-9.93-8.87-15.77-12.19c-1.66-0.94-2.2-1.53-1.62-2.29c-0.74,0.84-0.21,1.36,1.6,2.38
		c5.93,3.32,11.17,7.52,15.95,12.34c0.48,0.49,0.84,1,1.07,1.54C126.36,48.61,125.93,48.02,125.37,47.45z M109.45,31.79
		c0.04-0.03,0.08-0.05,0.12-0.08c0.52-0.34,1.05-0.67,1.58-1C110.57,31.05,110,31.4,109.45,31.79z M105.6,100.63
		c-0.18-0.16-0.35-0.31-0.5-0.44c0.83,0.77,1.65,1.56,2.44,2.37C106.91,101.89,106.28,101.24,105.6,100.63z M83.13,63.84
		c0,4.65-1.71,9.23-4.8,12.77c2.98-3.34,4.8-7.7,4.8-12.39C83.13,64.09,83.13,63.97,83.13,63.84z M75.26,48.51
		c2.49,1.83,4.58,4.32,6.06,7.39C79.96,52.91,77.88,50.37,75.26,48.51z M66.4,127.23c0.06-0.03,0.11-0.06,0.17-0.1
		c0,0,0.01-0.01,0.02-0.01C66.52,127.15,66.46,127.19,66.4,127.23z M56.94,81.75c2.19,0.88,4.56,1.37,7.03,1.37
		c1.2,0,2.38-0.11,3.52-0.33C63.92,83.44,60.25,83.04,56.94,81.75z M63.5,127.96c0.33,0.05,0.66,0.05,0.99,0H63.5z M62.6,127.7
		c0.3,0.13,0.6,0.22,0.9,0.26L62.6,127.7z M47.42,54.38c1.83-3.09,4.59-5.7,8.15-7.45c1.53-0.75,3.09-1.29,4.66-1.63
		C54.68,46.35,50.1,49.69,47.42,54.38z M44.92,65.65c0.18,2.31,0.81,4.52,1.78,6.54C45.72,70.04,45.13,67.84,44.92,65.65z
		 M21.58,26.58c0.33,0.34,0.67,0.66,1.02,0.98c0.09,0.09,0.19,0.17,0.27,0.24C22.44,27.39,22.01,26.99,21.58,26.58z M15.93,97.78
		c0.86-0.46,1.71-0.97,2.52-1.52C17.63,96.79,16.79,97.3,15.93,97.78z M10.5,70.22c-0.26-0.38-0.52-0.76-0.78-1.15
		c0.27,0.42,0.55,0.84,0.84,1.25c0.08,0.11,0.15,0.22,0.22,0.32C10.7,70.51,10.61,70.37,10.5,70.22z"/>
	<path class="st6" d="M75.58,63.8c0.03,6.7-5,11.75-11.66,11.73c-6.56-0.03-11.49-5.03-11.5-11.67c0-6.31,5.16-11.43,11.54-11.44
		C70.35,52.41,75.56,57.51,75.58,63.8z"/>
</g>
</svg>
