<?xml version="1.0" encoding="utf-8"?>
<!-- Generator: Adobe Illustrator 27.8.0, SVG Export Plug-In . SVG Version: 6.00 Build 0)  -->
<svg version="1.1" id="Layer_1" xmlns="http://www.w3.org/2000/svg" xmlns:xlink="http://www.w3.org/1999/xlink" x="0px" y="0px"
	 viewBox="0 0 128 128" style="enable-background:new 0 0 128 128;" xml:space="preserve">
<style type="text/css">
	.st0{fill:url(#SVGID_1_);}
	.st1{fill:url(#SVGID_00000100362782599688471720000016186840497903133601_);}
	.st2{fill:url(#SVGID_00000144302036383780501350000000129244765940243598_);}
	.st3{fill:url(#SVGID_00000137850911536886760290000014473064006385354632_);}
	.st4{fill:url(#SVGID_00000172433252781558471420000014231967483314074039_);}
	.st5{fill:url(#SVGID_00000092443841055815515890000001171645775676833203_);}
	.st6{fill:#EFDF00;}
	.st7{fill:#666666;}
	.st8{fill:#A39300;}
	.st9{fill:#D0C200;}
	.st10{fill:#00514D;}
	.st11{fill:#DD7901;}
</style>
<g>
	<path class="st6" d="M64,0C28.66,0,0,28.65,0,64c0,35.35,28.65,64,64,64c35.34,0,64-28.65,64-64C128,28.65,99.34,0,64,0z
		 M63.75,119.22C33.08,118.98,8.54,94.27,8.62,63.7C8.7,33.1,33.64,8.48,64.39,8.62c30.23,0.14,54.91,25.09,54.82,55.38
		C119.12,94.54,94.1,119.44,63.75,119.22z"/>
	<path class="st6" d="M98.1,30.08c-7.76,8.09-10.07,17.74-9.06,28.73c0.63,6.83,0.12,13.77,0.12,20.66c0,3.6,2.47,5.42,5.98,4.33
		c5.25-1.63,9.57-4.73,13.33-8.68c0.03,0.26,0.06,0.51,0.1,0.77c-5.5,10.46-13.83,17.94-24.33,23.35c-3.36-1.66-6.67-3.3-9.84-4.87
		c-3.33,3.39-6.57,6.7-9.46,9.64c-9.94-0.05-25.74-5.9-30.76-14.71c1.92,0,3.7,0.11,5.46-0.03c2.65-0.21,4.15-1.36,4.1-4.44
		c-0.15-9.45-0.04-18.9-0.06-28.35c-0.01-4.34-1.9-5.65-5.97-4.01c-4.98,2.01-8.38,5.94-11.49,10.08c-2.57,3.42-4.84,7.05-7.18,10.5
		C17.75,55.63,35.1,29.71,62.74,23.97c-0.04,0.15,0,0.28,0.12,0.39c-2.22,1.86-4.51,3.62-6.48,5.79c-3.11,3.43-2.92,7.22-1.53,11.19
		c0.61,1.73,1.82,2.79,3.98,2.59c0,2.58,0,5.03,0,7.49c-0.02,9.22-0.05,18.45-0.07,27.67c-0.01,3.77,2.23,5.69,5.87,4.86
		c3.34-0.77,6.47-2.11,9.35-4.28c0-10.41,0.15-20.85-0.08-31.29c-0.08-3.53-2.02-6.6-4.73-9.42c2.8-0.1,4.82,0.72,6.56,2.62
		c6.09-6.64,13.85-10.14,22.29-12.43C98.05,29.45,98.07,29.76,98.1,30.08z"/>
</g>
</svg>
