<?xml version="1.0" encoding="utf-8"?>
<!-- Generator: Adobe Illustrator 27.8.0, SVG Export Plug-In . SVG Version: 6.00 Build 0)  -->
<svg version="1.1" id="Layer_1" xmlns="http://www.w3.org/2000/svg" xmlns:xlink="http://www.w3.org/1999/xlink" x="0px" y="0px"
	 viewBox="0 0 200 142.03" style="enable-background:new 0 0 200 142.03;" xml:space="preserve">
<style type="text/css">
	.st0{fill:url(#SVGID_1_);}
	.st1{fill:url(#SVGID_00000135660927675073249140000016855898292379959484_);}
	.st2{fill:url(#SVGID_00000145037000599563147490000001126596474485318041_);}
	.st3{fill:url(#SVGID_00000170970744586397300740000013757037666287125129_);}
	.st4{fill:url(#SVGID_00000083087286296582431790000017932241888808251776_);}
	.st5{fill:url(#SVGID_00000031913524732078719620000003984494385916240554_);}
	.st6{fill:#EFDF00;}
	.st7{fill:#666666;}
	.st8{fill:#A39300;}
	.st9{fill:#D0C200;}
	.st10{fill:#00514D;}
	.st11{fill:#DD7901;}
</style>
<g>
	<path class="st7" d="M115.56,0c0.12,0.41,0.51,0.41,0.82,0.51c3.58,1.19,6.04,3.52,7.15,7.16c0.24,0.79,0.76,0.94,1.43,1.06
		c1.22,0.22,1.67,1.56,0.86,2.52c-0.24,0.28-0.56,0.22-0.86,0.23c-0.75,0.01-1.51,0-2.34,0c0.26,0.51,0.71,0.79,1.06,1.16
		c2.33,2.42,2.47,3.44,0.84,6.33c-0.36,0.65-0.76,1.27-1.29,1.8c-0.71,0.71-0.69,1.69-0.95,2.56c-0.37,1.24-1.11,1.64-2.33,1.19
		c-0.39-0.14-0.49-0.43-0.53-0.78c-0.11-0.86-0.56-0.84-1.15-0.45c-1.07,0.71-1.71,1.77-2.25,2.88c-1.07,2.21-1.62,4.59-2.07,6.99
		c-0.07,0.38-0.07,0.74,0.28,1.01c2.51,1.99,5.09,3.83,8.38,4.29c0.32,0.04,0.69,0.19,0.93-0.16c0.11-0.17,0.02-0.37-0.11-0.51
		c-0.29-0.31-0.63-0.14-0.95-0.04c-0.88,0.25-2.17-0.42-2.41-1.27c-0.17-0.59,0.28-0.75,0.69-0.91c1.6-0.64,3.21-1.27,4.82-1.91
		c10.7-4.23,21.41-8.46,32.11-12.68c1.27-0.5,1.4-0.44,1.69,0.87c0.3,1.36,0.56,2.72,0.87,4.07c0.17,0.77,0.15,1.52,0.03,2.3
		c-0.11,0.77-0.35,1.29-1.27,1.2c-0.54-0.05-0.73,0.37-0.88,0.8c-0.55,1.47-0.37,1.77-2.29,1.46c-0.77-0.12-1.18,0.19-1.44,0.93
		c-0.54,1.55-0.58,1.58-2.18,1.35c-0.79-0.11-1.19,0.13-1.46,0.87c-0.57,1.57-0.61,1.61-2.25,1.4c-0.82-0.1-1.16,0.19-1.42,0.91
		c-0.53,1.49-0.56,1.52-2.08,1.37c-0.89-0.09-1.36,0.18-1.64,1.05c-0.47,1.42-0.52,1.43-2.07,1.21c-0.8-0.11-1.25,0.12-1.54,0.91
		c-0.57,1.54-0.61,1.52-2.24,1.45c-1.5-0.06-1.49-0.06-1.58,1.4c-0.09,1.3-0.63,2.25-1.9,2.81c-1.98,0.86-3.91,1.83-5.88,2.73
		c-0.95,0.43-1.27,0.18-1.1-0.86c0.13-0.82,0.37-1.62,0.53-2.44c0.11-0.58,0.07-1.14-0.76-0.94c-4.71,1.14-9.25,0.26-13.74-1.17
		c-0.21-0.07-0.41-0.12-0.62-0.19c-1.51-0.46-2.09-0.05-2.21,1.54c-0.03,0.41,0.22,0.62,0.48,0.84c3.87,3.27,5.54,7.58,5.99,12.5
		c0.19,2.11,0.08,4.19-0.16,6.27c-0.13,1.09,0.25,1.43,1.33,1.18c0.63-0.14,1.23-0.39,1.86-0.56c1.1-0.29,2.05,0.11,2.68,1.12
		c0.74,1.19,0.73,2.27-0.05,3.16c-0.99,1.14-1.54,1.27-2.87,0.68c-2.94-1.29-5.88-1.14-8.82,0.03c-1.19,0.47-1.2,0.47-1.74-0.62
		c-0.36-0.72-0.91-1.4-0.04-2.2c0.4-0.36-0.01-0.88-0.24-1.27c-1.3-2.18-3.07-3.93-4.96-5.59c-1.37-1.2-2.9-2.2-4.37-3.28
		c-0.6-0.44-1.05-0.25-1.58,0.12c-2.84,2.06-5.89,3.72-9.33,4.58c-1.96,0.49-3.95,0.67-5.95,0.69c-0.63,0.01-1.24,0.06-1.78,0.4
		c-0.77,0.48-0.83,1.13-0.15,1.73c0.45,0.39,0.99,0.63,1.54,0.83c0.4,0.15,0.83,0.27,1.2,0.48c1.26,0.7,1.9,2.34,1.39,3.48
		c-0.5,1.11-2.35,1.91-3.58,1.55c-0.4-0.12-0.58-0.43-0.79-0.74c-1.17-1.75-2.51-3.37-4.08-4.77c-0.88-0.78-1.8-1.55-2.89-1.97
		c-1-0.39-1.15-0.96-0.74-1.85c0.15-0.33,0.22-0.7,0.35-1.05c0.19-0.54,0.56-0.82,1.14-0.61c0.49,0.17,0.85,0.02,1.11-0.39
		c1.38-2.16,2.76-4.31,4.12-6.48c0.36-0.58,0.51-1.25,0.67-1.91c0.16-0.67-0.01-0.9-0.73-0.73c-2.13,0.53-4.28,0.94-6.46,1.2
		c-5.81,0.68-11.58,0.69-17.23-1.06c-1.72-0.53-3.36-1.25-4.69-2.52c-1.98-1.89-1.97-4.31,0.07-6.14c1.82-1.64,4.06-2.44,6.4-2.96
		c5.01-1.13,9.94-0.46,14.82,0.81c2.57,0.67,5.07,1.56,7.53,2.56c1.14,0.46,1.24,0.41,1.23-0.78c-0.04-7.99,2.81-14.8,8.29-20.58
		c3.67-3.87,7.77-7.23,12.07-10.35c0.73-0.53,1.11-1.08,1.15-2.03c0.19-4.19,3.16-7.84,7.39-9.26c0.39-0.13,0.89-0.08,1.12-0.55
		C112.47,0,114.01,0,115.56,0z M128.16,41.67c-1.51,0.12-3.05,0.15-4.53,0.09c-2.43-0.09-4.79-0.82-6.94-2.06
		c-1.69-0.98-3.23-2.16-4.76-3.36c-3.59-2.82-7.13-5.72-11.41-7.49c-0.88-0.36-0.97-0.89-0.51-2.01c0.36-0.87,0.8-1.1,1.66-0.77
		c1.77,0.67,3.41,1.58,5.01,2.58c0.6,0.38,1.22,0.72,1.95,0.8c1.75,0.18,3.16-0.7,3.93-2.45c0.94-2.15,1.88-4.3,3.58-6
		c0.81-0.81,1.8-1.45,2.96-1.27c0.94,0.14,1.47-0.22,1.95-0.87c0.35-0.47,0.69-0.95,0.98-1.46c0.65-1.17,0.63-1.5-0.31-2.44
		c-3.59-3.61-8.12-3.99-12.81-3.5c-1.44,0.15-1.8,1.77-0.78,2.84c0.3,0.31,0.63,0.59,0.98,0.84c1.54,1.12,3.27,1.69,5.17,1.81
		c0.53,0.03,1.11,0.12,1.08,0.86c-0.03,0.71-0.48,1.05-1.15,1.07c-0.77,0.01-1.55,0.03-2.31-0.05c-2.42-0.26-4.66-0.93-6.35-2.83
		c-1.28-1.43-2.59-1.59-4.14-0.43c-3.83,2.87-7.5,5.93-10.69,9.53c-4.09,4.62-6.49,9.92-6.67,16.16c-0.08,2.59-0.18,5.18-0.34,7.76
		c-0.18,2.92-0.73,5.76-2.53,8.19c-0.37,0.49-0.66,1.04-0.99,1.56c-0.26,0.42-0.55,0.87-0.26,1.37c0.31,0.54,0.84,0.39,1.33,0.34
		c0.52-0.05,1.05-0.13,1.57-0.12c4.43,0.11,8.36-1.35,12-3.74c2.16-1.42,3.41-3.45,3.66-6.04c0.12-1.2,0.07-2.4-0.07-3.6
		c-0.21-1.84-0.47-3.68-0.13-5.53c0.61-3.3,2.8-4.47,5.91-3.21c4.72,1.91,9.48,3.71,14.52,4.62c2.66,0.48,5.32,0.76,7.97-0.08
		c0.61-0.19,1.26-0.38,1.47-1.13L128.16,41.67z M142.89,35.34c1.6,0.11,1.64,0.12,2.14-1.27c0.29-0.81,0.67-1.2,1.63-1.02
		c1.46,0.27,1.51,0.22,2.04-1.27c0.28-0.81,0.73-1.1,1.58-1.02c1.55,0.15,1.58,0.12,2.14-1.38c0.24-0.65,0.6-0.97,1.3-0.88
		c0.34,0.04,0.68,0.03,1.01,0.08c0.55,0.07,0.86-0.14,1.05-0.66c0.26-0.71,0.42-1.5,1.2-1.9c0.17-0.09,0.18-0.3,0.18-0.5
		c-0.01-0.78-0.41-1.03-1.27-0.69c-3.38,1.33-6.76,2.69-10.14,4.04c-3.87,1.54-7.73,3.08-11.59,4.63c-1.1,0.44-1.13,0.51-0.66,1.63
		c0.52,1.25,1.09,2.49,1.58,3.75c0.28,0.72,0.7,1.11,1.49,1.11c0.83,0.01,0.87-0.66,1.07-1.18c0.49-1.26,0.58-1.39,1.89-1.16
		c1.05,0.18,1.57-0.16,1.8-1.15C141.54,35.61,141.97,34.98,142.89,35.34z M113.7,62.02c0.12-3.38-0.43-6.48-2.04-9.32
		c-1.14-2.01-3.51-2.19-5.04-0.47c-0.55,0.62-1.11,1.24-1.69,1.84c-1.72,1.78-1.62,3.54,0.32,5.12c2.72,2.22,5.22,4.62,6.74,7.86
		c0.25,0.54,0.56,0.48,0.93,0.13c0.41-0.39,0.47-0.93,0.55-1.44C113.67,64.46,113.78,63.17,113.7,62.02z M107.26,44.37
		c-0.02-0.8,0.03-1.64-0.93-2.01c-1.23-0.49-2.46-0.97-3.68-1.48c-0.67-0.28-1.06-0.04-1.27,0.61c-0.24,0.74-0.33,1.51-0.25,2.28
		c0.2,1.93,0.42,3.85,0.39,5.79c-0.01,0.7,0.24,1.29,0.97,1.51c0.71,0.21,1.24-0.09,1.69-0.64c1.08-1.31,2-2.72,2.71-4.28
		C107.15,45.58,107.29,44.99,107.26,44.37z M114.04,3.26c0.47,0.52,0.85,0.92,1.21,1.33c0.34,0.39,0.47,0.8,0.05,1.22
		c-0.42,0.42-0.82,0.32-1.22-0.03c-1.04-0.91-2.28-1.32-3.63-1.47c-0.81-0.09-1.6-0.01-2.26,0.55c-0.98,0.84-1.75,1.83-2.19,3.04
		c-0.11,0.3-0.38,0.65-0.1,0.95c0.25,0.26,0.59,0.02,0.87-0.07c3.16-1.06,6.42-1.14,9.69-0.97c1.01,0.05,2.02,0.14,3.04,0.15
		c0.5,0,0.75-0.16,0.54-0.74C119.29,5.26,116.39,3.27,114.04,3.26z M133.36,43.22c-0.01-0.06,0-0.15-0.03-0.24
		c-0.74-2.09-1.48-4.18-2.49-6.15c-0.4-0.78-1.18-0.94-2.01-0.71c-0.39,0.11-0.81,0.23-0.86,0.71c-0.05,0.51,0.44,0.51,0.74,0.68
		c0.68,0.38,1.6,0.49,1.87,1.37c0.58,1.85,1.17,3.72,0.28,5.65c-0.21,0.47-0.1,0.8,0.48,0.8C132.31,45.32,133.38,44.2,133.36,43.22z
		"/>
	<path class="st7" d="M200,118.14c-0.41,0.09-0.45,0.47-0.61,0.76c-0.53,1-1.21,1.86-2.14,2.51c-2.71,1.91-5.64,1.26-7.6-1.02
		c-0.84-0.97-0.81-0.97-1.8-0.14c-2.48,2.08-5.32,2.9-8.53,2.34c-1.11-0.2-2.15-0.62-2.99-1.37c-0.63-0.56-1.08-0.56-1.76-0.03
		c-1.38,1.09-2.98,1.67-4.74,1.23c-2.63-0.65-4.05-2.7-4.26-6c-0.05-0.86-0.04-1.73-0.01-2.59c0.02-0.62-0.25-0.92-0.84-0.97
		c-0.21-0.02-0.43-0.04-0.65-0.05c-2.03-0.08-2.07-0.03-2.27,1.97c-0.2,2.02-0.68,3.96-2.06,5.54c-2.46,2.82-6.54,2.98-9.16,0.32
		c-0.62-0.63-1.01-0.59-1.68-0.08c-2.65,2.02-5.62,2.74-8.89,1.83c-1.44-0.4-2.65-1.2-3.45-2.49c-0.45-0.74-0.85-0.71-1.44-0.13
		c-2.35,2.31-2.36,2.3-2.36,5.58c0.01,3.51-0.01,7.02-0.56,10.51c-0.18,1.13-0.5,2.23-0.99,3.26c-0.48,1-1.16,1.82-2.14,2.35
		c-0.23,0.13-0.54,0.2-0.56,0.55c-1.05,0-2.1,0-3.15,0c-0.01-0.21-0.16-0.31-0.32-0.42c-2.94-2.06-3.89-4.49-3.1-7.99
		c0.78-3.46,2.64-6.36,4.79-9.09c0.8-1.02,1.7-1.96,2.54-2.94c0.23-0.26,0.59-0.49,0.36-0.95c-0.37,0-0.53,0.31-0.76,0.49
		c-2.45,1.95-5.27,1.8-7.51-0.41c-0.53-0.52-0.96-1.13-1.38-1.74c-0.36-0.52-0.73-0.51-1.08,0.02c-0.22,0.33-0.43,0.68-0.67,1
		c-2.4,3.15-6.59,3.05-8.84-0.22c-1.24-1.8-1.75-3.86-2.01-6c-0.15-1.25-0.54-1.52-1.77-1.33c-0.63,0.1-0.84,0.49-1.01,1.03
		c-1.2,3.76-3.53,6.54-7.19,8.11c-2.54,1.09-5.17,1.4-7.86,0.55c-4.05-1.28-5.52-5.15-3.32-8.78c1.38-2.27,3.39-3.62,6.04-3.98
		c0.71-0.1,1.42-0.05,2.12,0.1c2.04,0.45,3.5,1.9,3.7,3.66c0.18,1.62-0.95,3.27-2.9,4.1c-1.98,0.84-3.98,0.64-5.96-0.06
		c-0.27-0.1-0.58-0.42-0.83-0.09c-0.23,0.32,0.01,0.65,0.22,0.92c0.82,1.06,1.97,1.44,3.24,1.57c3.63,0.38,7.62-1.91,9.18-5.23
		c0.26-0.55,0.27-0.93-0.33-1.31c-1.34-0.85-1.67-2.34-0.87-3.5c0.8-1.16,2.78-1.51,3.89-0.58c0.55,0.46,1.06,0.65,1.76,0.51
		c0.36-0.07,0.74-0.05,1.11-0.03c2.26,0.12,3.51,1.32,3.72,3.57c0.12,1.3,0.35,2.57,0.85,3.77c0.19,0.45,0.42,0.9,0.71,1.29
		c1.18,1.6,2.92,1.6,4.05-0.03c1.17-1.68,1.56-3.61,1.64-5.61c0.07-1.68,1.39-2.52,2.91-1.79c0.41,0.2,0.43,0.57,0.46,0.94
		c0.12,1.45,0.32,2.88,0.86,4.25c0.35,0.9,0.78,1.75,1.43,2.47c1.36,1.53,2.94,1.53,4.25-0.05c1.35-1.62,1.9-3.57,2.14-5.63
		c0.04-0.34,0.1-0.68,0.1-1.01c-0.01-0.86,0.44-1.08,1.23-1.07c1.73,0.02,1.82,0.08,1.82,1.82c0,1.3,0,2.59,0.01,3.89
		c0,0.3-0.04,0.66,0.3,0.82c0.4,0.19,0.63-0.14,0.86-0.38c1.14-1.17,2.28-2.34,3.4-3.53c2.81-3.01,6.25-4.05,10.26-2.97
		c0.54,0.15,0.99,0.22,1.58,0.04c1.91-0.57,2.54-0.07,2.54,1.87c0,1.3-0.03,2.59,0.02,3.89c0.1,2.11,1.26,3.37,3.11,3.47
		c1.33,0.07,2.32-0.52,3-1.64c0.77-1.25,0.93-2.66,1.02-4.09c0.02-0.42-0.17-0.65-0.58-0.82c-1.54-0.62-2.09-1.55-1.66-2.7
		c0.43-1.15,1.82-1.87,3.08-1.15c1.55,0.9,3.12,0.68,4.72,0.74c0.68,0.02,1.35,0.16,1.99,0.39c1.55,0.55,2.35,1.81,2.17,3.46
		c-0.15,1.33-0.13,2.65,0.22,3.95c0.52,1.91,2.31,2.51,3.87,1.27c0.82-0.64,1.49-1.47,1.66-2.5c0.64-3.92,5.11-6.47,8.23-6.58
		c0.68-0.02,1.36-0.04,2.03,0.02c0.85,0.08,1.09-0.23,0.97-1.06c-0.49-3.39-0.87-6.79-0.76-10.22c0.07-2.1,0.3-4.19,1.09-6.16
		c0.71-1.77,1.83-3.07,3.93-3.14c1.52-0.05,2.59,0.64,3.28,1.97c0.59,1.15,0.82,2.41,0.89,3.66c0.29,5.73-0.11,11.4-1.42,17
		c-0.25,1.08-0.67,2.11-1.15,3.12c-0.66,1.39,0.01,3.45,1.36,4.18c1.31,0.7,2.75,0.18,3.68-1.32c1.01-1.64,1.01-1.64,2.88-1.25
		c0.21,0.04,0.43,0.04,0.64,0.05C200,117.15,200,117.65,200,118.14z M144.74,112.77c-2.01,0.08-3.89,0.84-5.29,2.6
		c-1.1,1.39-0.88,2.91,0.57,3.79c2.54,1.54,7.21,0.08,8.43-2.62c0.58-1.28,0.2-2.47-1.03-3.16
		C146.65,112.95,145.81,112.78,144.74,112.77z M181,119.81c2.05-0.01,4.17-0.93,5.3-2.22c1.71-1.95,1.06-4.14-1.49-4.62
		c-3.56-0.67-5.54,0.6-7.12,3.81c-0.42,0.85-0.25,1.48,0.4,2.04C178.98,119.58,180.06,119.76,181,119.81z M191.13,98.24
		c0-1.73,0.05-3.46-0.46-5.14c-0.11-0.37-0.23-0.81-0.74-0.84c-0.46-0.03-0.72,0.31-0.93,0.65c-0.5,0.8-0.71,1.71-0.84,2.62
		c-0.68,4.63-0.16,9.22,0.57,13.79c0.08,0.49-0.03,1.31,0.72,1.3c0.66-0.01,0.59-0.79,0.67-1.26
		C190.77,105.69,191.08,101.98,191.13,98.24z M129.78,129.13c0-0.58,0.01-1.17,0-1.75c0-0.31-0.02-0.65-0.36-0.79
		c-0.41-0.17-0.62,0.16-0.82,0.43c-1.37,1.83-2.58,3.75-3.36,5.92c-0.39,1.09-0.55,2.21-0.46,3.36c0.07,0.86,0.37,1.62,1.02,2.2
		c0.83,0.75,1.69,0.68,2.38-0.21c0.45-0.57,0.68-1.24,0.86-1.93C129.67,133.99,129.69,131.55,129.78,129.13z M92.6,114.8
		c0.58,0.03,1.23-0.13,1.82-0.51c0.89-0.57,0.85-1.21-0.11-1.7c-1.12-0.58-3.29-0.15-4.11,0.8c-0.38,0.44-0.3,0.78,0.22,1
		C91.08,114.69,91.78,114.8,92.6,114.8z"/>
	<path class="st7" d="M0,122.22c0.23,0.05,0.42-0.06,0.61-0.17c2.19-1.36,4.14-3.01,5.88-4.91c0.42-0.46,0.38-0.92,0.17-1.45
		c-2.12-5.34-2.53-10.9-2.01-16.55c0.13-1.45,0.6-2.81,1.38-4.08c1.5-2.44,5.92-2.41,7.27,0.39c0.63,1.31,1.01,2.67,1.07,4.09
		c0.21,4.64,0.12,9.26-1.74,13.64c-0.42,1-0.92,1.96-1.53,2.85c-0.38,0.56-0.32,1.03,0.14,1.48c0.02,0.02,0.04,0.05,0.06,0.07
		c1.17,1.19,2.4,2.36,4.24,1.99c1.86-0.37,2.65-1.87,3.17-3.52c0.38-1.19,0.54-2.4,0.56-3.64c0.02-1.46,0.05-1.48,1.54-1.47
		c0.09,0,0.19,0.01,0.28,0c0.94-0.12,1.28,0.37,1.3,1.23c0.03,1.25,0.33,2.44,0.75,3.61c0.4,1.11,0.95,2.15,1.84,2.96
		c1.13,1.03,2.36,1.04,3.47-0.01c1.51-1.43,2.07-3.32,2.45-5.28c0.08-0.42,0.13-0.85,0.17-1.28c0.13-1.2,0.17-1.23,1.65-1.22
		c1.24,0.01,1.31,0.06,1.41,1.28c0.17,1.98,0.5,3.92,1.45,5.7c0.37,0.69,0.73,1.58,1.69,1.5c0.89-0.08,1.14-0.95,1.43-1.66
		c0.75-1.79,0.96-3.7,1.04-5.61c0.04-0.9,0.4-1.3,1.31-1.21c0.54,0.06,1.11-0.09,1.63,0.21c0.26,0.15,0.48-0.02,0.67-0.18
		c1.81-1.55,4.42-1.55,6.46,1.25c0.11,0.15,0.2,0.31,0.32,0.46c0.5,0.63,0.91,0.64,1.41,0.01c0.35-0.43,0.66-0.9,1.04-1.29
		c1.85-1.89,4.42-1.93,6.35-0.09c1.28,1.21,1.95,2.76,2.38,4.42c0.24,0.93,0.53,1.84,1.14,2.61c0.74,0.93,1.67,1.38,2.85,1.07
		c1.14-0.3,1.68-1.17,2.01-2.23c0.09-0.29,0.02-0.55-0.1-0.8c-2.05-4.2-2.6-8.72-2.76-13.31c-0.08-2.34-0.18-4.69,0.37-7
		c0.22-0.91,0.49-1.79,0.95-2.6c1.09-1.88,2.78-2.63,4.87-2.09c1.18,0.3,1.85,1.2,2.24,2.29c0.78,2.16,0.83,4.42,0.74,6.67
		c-0.12,2.96-0.33,5.91-0.8,8.84c-0.16,1,0.23,1.31,1.22,1.05c2.31-0.62,4.59-0.67,6.75,0.51c2.85,1.55,3.74,4.69,2.18,7.53
		c-2.43,4.42-9.2,5.94-13.24,2.95c-0.57-0.42-0.97-0.47-1.54-0.01c-3.02,2.41-6.37,1.37-8.38-1.34c-0.69-0.93-1.06-2.01-1.33-3.13
		c-0.26-1.09-0.62-2.14-1.38-3c-0.91-1.03-1.88-1.02-2.7,0.08c-1.39,1.89-1.72,4.12-1.96,6.37c-0.05,0.49,0.22,1.2-0.45,1.37
		c-0.8,0.2-1.66,0.24-2.46-0.06c-0.37-0.14-0.26-0.59-0.28-0.91c-0.13-1.98-0.43-3.93-1.33-5.73c-0.41-0.82-0.8-1.82-1.89-1.83
		c-1.09-0.01-1.48,1-1.9,1.81c-0.9,1.76-1.22,3.68-1.33,5.63c-0.1,1.73-1.02,2.29-2.65,1.53c-0.33-0.15-0.58-0.28-0.93-0.07
		c-2.01,1.24-4.12,0.38-5.46-1.33c-1.34-1.71-1.36-1.72-2.85-0.1c-1.07,1.16-2.38,1.89-3.93,2.05c-1.49,0.15-2.75-0.54-3.88-1.46
		c-0.55-0.45-0.98-1.02-1.43-1.57c-0.43-0.53-0.87-0.52-1.29,0.03c-0.04,0.05-0.07,0.1-0.11,0.15c-2.78,3.54-6.52,3.94-9.99,1.06
		c-0.26-0.22-0.53-0.44-0.75-0.69c-0.58-0.65-1.08-0.62-1.7,0.02c-1.54,1.61-3.27,3-5.15,4.21c-1.19,0.77-1.38,0.73-2.17-0.48
		c-0.13-0.2-0.24-0.44-0.53-0.47C0,122.96,0,122.59,0,122.22z M74.82,119.8c1.81-0.11,3.64-0.74,5.02-2.33
		c1.61-1.86,0.96-3.9-1.43-4.5c-2.04-0.51-3.92-0.04-5.63,1.11c-1.54,1.03-2.29,2.52-1.93,3.69
		C71.23,118.99,72.73,119.81,74.82,119.8z M11.49,102.5c-0.03-1.97-0.03-3.66-0.68-5.27c-0.22-0.54-0.54-0.97-1.19-1.01
		c-0.69-0.04-1.07,0.38-1.35,0.93c-0.4,0.78-0.57,1.62-0.69,2.48c-0.41,3.05-0.11,6.08,0.29,9.11c0.14,1.07,0.3,2.13,0.64,3.16
		c0.1,0.31,0.28,0.57,0.63,0.59c0.35,0.02,0.57-0.19,0.71-0.49c0.12-0.25,0.23-0.51,0.33-0.76
		C11.33,108.33,11.31,105.27,11.49,102.5z M70.61,100.31c-0.02-1.91,0.08-3.55-0.38-5.15c-0.12-0.41-0.22-0.91-0.72-0.98
		c-0.57-0.08-0.9,0.34-1.15,0.77c-0.43,0.76-0.66,1.6-0.77,2.46c-0.5,3.98-0.17,7.93,0.48,11.87c0.09,0.56-0.02,1.43,0.86,1.39
		c0.84-0.03,0.74-0.89,0.83-1.45C70.27,106.18,70.57,103.11,70.61,100.31z"/>
	<path class="st7" d="M128.16,41.67c0,0-0.01-0.01-0.01-0.01C128.14,41.66,128.16,41.67,128.16,41.67z"/>
	<path class="st7" d="M113.96,15.54c-0.16-0.05-0.49-0.11-0.8-0.24c-0.39-0.17-0.66-0.46-0.65-0.92c0.01-0.42,0.29-0.66,0.62-0.84
		c0.3-0.16,0.63-0.22,0.97-0.22c0.96-0.01,1.76,0.51,1.73,1.14C115.82,15.05,115.02,15.56,113.96,15.54z"/>
</g>
</svg>
