<?xml version="1.0" encoding="utf-8"?>
<!-- Generator: Adobe Illustrator 27.8.0, SVG Export Plug-In . SVG Version: 6.00 Build 0)  -->
<svg version="1.1" id="Layer_1" xmlns="http://www.w3.org/2000/svg" xmlns:xlink="http://www.w3.org/1999/xlink" x="0px" y="0px"
	 viewBox="0 0 128 128" style="enable-background:new 0 0 128 128;" xml:space="preserve">
<style type="text/css">
	.st0{fill:url(#SVGID_1_);}
	.st1{fill:url(#SVGID_00000061436703125695231040000016098325225601957550_);}
	.st2{fill:url(#SVGID_00000015328680531201804560000010403907845161450669_);}
	.st3{fill:url(#SVGID_00000054227776306931182000000016279158551079555719_);}
	.st4{fill:url(#SVGID_00000126318859311387466060000015310976822133325468_);}
	.st5{fill:url(#SVGID_00000062894677479500879580000006368944502476812675_);}
	.st6{fill:#EFDF00;}
	.st7{fill:#666666;}
	.st8{fill:#A39300;}
	.st9{fill:#D0C200;}
	.st10{fill:#00514D;}
	.st11{fill:#DD7901;}
</style>
<g>
	<path class="st8" d="M85,43.63c1.6,2.78,2.57,5.8,3.26,8.92c0.86,3.89,1.93,7.73,2.54,11.68c-6.17,1.79-12.34,3.58-18.51,5.37
		c-2.51-2.89-5.02-5.78-7.58-8.73c-5.06,1.79-10.01,3.55-14.97,5.3c-4.38-2.92-8.25-6.48-12.4-9.68c3.42-2.04,7.12-3.5,10.7-5.23
		c1.93-0.93,3.92-1.75,5.89-3.01c-1.01-1.2-1.81-2.3-2.77-3.26c-1.94-1.94-3.41-4.32-5.61-6c-1.84-2.75-4.22-5.06-6.25-7.65
		c-0.4-0.52-1.24-0.87-0.9-1.78c1.23-0.27,2.26-0.95,3.31-1.61c4.59-2.93,9.23-5.79,13.79-8.78c2.48-1.63,5.12-3.03,7.65-5.08
		c0-4.34,0-8.76,0-13.19c2.43,5.32,4.88,10.64,7.3,15.96c3.41,7.51,6.8,15.03,10.22,22.54c0.32,0.7,0.46,1.54,1.19,2.02
		c0.88,3.17,2.27,6.12,3.92,8.96c0.03,0.16-0.03,0.36,0.2,0.42c0.11-0.23-0.08-0.31-0.21-0.41c0.04-0.79-0.09-1.55-0.23-2.33
		C85.28,46.59,84.68,45.16,85,43.63z"/>
	<path class="st6" d="M72.29,69.6c6.17-1.79,12.34-3.58,18.51-5.37c1.13,5.22,2.27,10.44,3.43,15.82
		c6.67-1.37,13.23-2.73,19.55-4.03c0.83,0.37,0.8,0.95,0.96,1.41c2.18,6.29,4.33,12.59,6.51,18.88c0.19,0.55,0.46,1.07,0.36,1.67
		c-2.38,0.23-4.76,0.44-7.13,0.69c-3.17,0.33-6.34,0.7-9.5,1.04c-3.74,0.4-7.49,0.8-11.23,1.18c-4.76,0.49-9.51,0.96-14.27,1.45
		c-3.46,0.36-6.91,0.75-10.37,1.11c-3.6,0.37-7.21,0.7-10.81,1.05c0-4.72,0.01-9.43-0.03-14.15c-0.01-1.07,0.19-2.01,0.88-2.83
		c4.78-1.06,9.57-2.12,14.4-3.19C73.11,79.29,72.7,74.44,72.29,69.6z"/>
	<path class="st6" d="M45.55,38.98c2.2,1.69,3.68,4.06,5.61,6c0.95,0.96,1.76,2.06,2.77,3.26c-1.97,1.26-3.96,2.08-5.89,3.01
		c-3.57,1.73-7.27,3.2-10.7,5.23c-0.12,0.18-0.31,0.35-0.34,0.55c-1.5,8.48-2.99,16.95-4.46,25.43c-1.69,9.69-3.37,19.38-5.05,29.08
		c-0.95,5.49-1.89,10.97-2.83,16.46c-6.07-0.18-12.15-0.37-18.15-0.55c-0.38-1.17,0.14-1.97,0.35-2.77
		c4.54-16.8,9.13-33.58,13.68-50.38c0.22-0.8,0.74-1.62,0.21-2.5c1.63-2.85,2.26-5.99,2.6-9.2l0.12-0.1l-0.11,0.11
		c-0.96,0.12-1.73,0.68-2.58,1.06c-2.75,1.24-5.5,2.48-8.24,3.72c1.09-4.28,2.75-8.37,4.06-12.77
		C26.2,49.43,35.88,44.21,45.55,38.98z"/>
	<path class="st9" d="M24.66,128c0.94-5.49,1.88-10.98,2.83-16.46c1.68-9.69,3.36-19.38,5.05-29.08C34.01,73.98,35.5,65.5,37,57.03
		c0.03-0.2,0.23-0.36,0.34-0.55c4.15,3.21,8.02,6.77,12.4,9.68c-0.6,5.16-0.92,10.34-1.27,15.6c3.19,1.86,6.3,3.66,9.41,5.49
		c0.41,0.24,0.83,0.19,1.25,0.26c-0.69,0.82-0.89,1.76-0.88,2.83c0.04,4.72,0.02,9.43,0.03,14.15c-3.87-0.75-7.59-2.17-11.82-2.89
		c0,2.02,0,3.75,0,5.47c-0.7,2.98-0.55,6.05-0.83,9.07c-0.32,3.47-0.5,6.95-0.75,10.65C38.09,127.32,31.38,127.72,24.66,128z"/>
	<path class="st8" d="M46.47,107.07c0-1.72,0-3.45,0-5.47c4.22,0.72,7.94,2.15,11.82,2.89c3.6-0.35,7.21-0.68,10.81-1.05
		c3.46-0.35,6.91-0.75,10.37-1.11c4.76-0.49,9.51-0.96,14.27-1.45c3.75-0.39,7.49-0.78,11.23-1.18c3.17-0.34,6.33-0.71,9.5-1.04
		c2.38-0.25,4.76-0.46,7.13-0.69c0.06,1.45-0.02,2.88-0.5,4.55c-16.16,1.57-32.39,2.88-48.62,4.22c-1.27-0.11-2.46,0.25-3.75,0.58
		c0.59,0.73,1.54,0.84,1.8,1.68c-5.36,0.97-10.69,1.2-16.03-0.25C51.87,108.04,49.15,107.62,46.47,107.07z"/>
	<path class="st9" d="M63.15,0.88c0,4.43,0,8.85,0,13.19c-2.53,2.05-5.17,3.45-7.65,5.08c-4.55,2.99-9.19,5.85-13.79,8.78
		c-1.04,0.67-2.07,1.35-3.31,1.61c0.96-4.76,1.92-9.51,2.88-14.27C48.45,10.13,55.55,5.03,62.54,0C63.09,0.3,63.09,0.61,63.15,0.88z
		"/>
	<path class="st8" d="M23.35,62.6c-0.34,3.22-0.97,6.35-2.6,9.2c-2.86-1.24-5.71-2.51-8.22-4.41c2.75-1.24,5.49-2.49,8.24-3.72
		c0.85-0.38,1.63-0.94,2.58-1.06L23.35,62.6z"/>
	<path class="st9" d="M85,43.63c-0.32,1.53,0.29,2.96,0.54,4.42c0.14,0.78,0.26,1.54,0.23,2.33l0.01-0.01
		c-1.65-2.84-3.04-5.79-3.92-8.96c0.6-0.22,1.2-0.44,1.79-0.65c0.62,0.43,0.74,1.05,0.85,1.68c-0.06,0.4,0.07,0.73,0.38,0.99
		C84.98,43.46,85.02,43.53,85,43.63z"/>
	<path class="st9" d="M70.54,109c-0.26-0.84-1.2-0.95-1.8-1.68c1.29-0.33,2.48-0.69,3.75-0.58c-0.14,0.61-0.28,1.21-0.42,1.8
		C71.66,109.09,71.09,109,70.54,109z"/>
	<path class="st10" d="M85.77,50.38c0.13,0.11,0.31,0.19,0.21,0.41C85.75,50.73,85.81,50.53,85.77,50.38L85.77,50.38z"/>
	<polygon class="st11" points="23.36,62.61 23.46,62.5 23.35,62.6 	"/>
</g>
</svg>
