<?xml version="1.0" encoding="utf-8"?>
<!-- Generator: Adobe Illustrator 27.8.0, SVG Export Plug-In . SVG Version: 6.00 Build 0)  -->
<svg version="1.1" id="Layer_1" xmlns="http://www.w3.org/2000/svg" xmlns:xlink="http://www.w3.org/1999/xlink" x="0px" y="0px"
	 viewBox="0 0 128 128" style="enable-background:new 0 0 128 128;" xml:space="preserve">
<style type="text/css">
	.st0{fill:url(#SVGID_1_);}
	.st1{fill:url(#SVGID_00000165928306004532006890000004282755083953991312_);}
	.st2{fill:url(#SVGID_00000011028696172969423150000013574290881608932787_);}
	.st3{fill:url(#SVGID_00000102507839018846799980000011654880741443496627_);}
	.st4{fill:url(#SVGID_00000029021499340798761830000005019834057739174026_);}
	.st5{fill:url(#SVGID_00000138532716481927910750000017701005923324827559_);}
	.st6{fill:#EFDF00;}
	.st7{fill:#666666;}
	.st8{fill:#A39300;}
	.st9{fill:#D0C200;}
	.st10{fill:#00514D;}
	.st11{fill:#DD7901;}
</style>
<g>
	<path class="st7" d="M49.94,100.24c-6.07-0.43-11.99-0.86-18.1-1.29c-0.18-2.6-0.34-5.01-0.51-7.42c-0.23-3.27-0.7-3.72-3.94-4
		c-5.63-0.49-11.27-1.03-16.9-1.57c-0.69-0.07-1.38-0.23-2.32-0.4c0-0.88,0-1.72,0-2.57c0-9.72,0.04-19.43-0.05-29.15
		c-0.01-1.14-0.5-2.42-1.14-3.39C4.83,47.19,2.51,44.03,0,40.47c3.84-4.98,7.64-9.92,11.58-15.03c4.11,2.36,7.83,4.5,11.37,6.53
		c3.87-2.7,7.7-5.28,11.41-8.03c0.56-0.41,0.79-1.6,0.75-2.41c-0.18-3.44-0.48-6.87-0.81-10.3c-0.12-1.24,0.1-2.11,1.42-2.54
		c4.75-1.58,9.48-3.27,14.26-4.76c0.58-0.18,1.82,0.44,2.15,1.02c1.73,3.06,3.31,6.22,4.86,9.38c0.51,1.03,0.99,1.44,2.29,1.36
		c3.29-0.2,6.61-0.28,9.88-0.03c1.68,0.12,2.29-0.39,2.93-1.8c1.37-2.98,3.03-5.84,4.48-8.79c0.59-1.21,1.36-1.59,2.62-1.16
		c4.45,1.51,8.89,3.05,13.36,4.49c1.75,0.56,2.21,1.61,2.01,3.35c-0.38,3.27-0.66,6.55-0.8,9.83c-0.04,0.84,0.37,2.04,0.99,2.5
		c3.57,2.67,7.27,5.17,11.15,7.89c2.9-1.66,6.11-3.42,9.24-5.32c1.38-0.84,2.3-0.88,3.34,0.52c3.03,4.09,6.22,8.06,9.2,12.19
		c0.43,0.59,0.41,1.96,0.01,2.6c-1.79,2.85-3.89,5.51-5.68,8.35c-0.7,1.11-1.24,2.53-1.25,3.82c-0.1,9.56-0.06,19.12-0.06,28.68
		c0,0.85,0,1.71,0,2.87c-4.47,0.45-8.81,0.9-13.16,1.32c-2.27,0.22-4.54,0.45-6.81,0.59c-2.14,0.12-3.05,1.22-3.14,3.29
		c-0.12,2.65-0.35,5.29-0.55,8.08c-5.77,0.42-11.32,0.87-16.88,1.16c-0.48,0.03-1.34-0.89-1.48-1.48c-0.46-2.06-0.73-4.16-0.98-6.26
		c-0.21-1.7-1.1-2.5-2.8-2.5c-7,0.01-13.99,0.01-20.99,0c-1.71,0-2.55,0.85-2.76,2.54C50.82,94.96,50.37,97.49,49.94,100.24z
		 M106.48,65.69c0.03-7-5.47-12.55-12.48-12.56c-6.89-0.01-12.49,5.45-12.57,12.27c-0.08,6.97,5.46,12.64,12.39,12.7
		C100.83,78.14,106.44,72.64,106.48,65.69z M22.4,65.55c-0.01,6.98,5.54,12.55,12.52,12.54c6.96-0.01,12.56-5.62,12.53-12.56
		c-0.03-6.84-5.57-12.36-12.44-12.4C27.99,53.09,22.42,58.58,22.4,65.55z M60.38,69.71c0,1.79-0.06,3.59,0.01,5.38
		c0.1,2.62,1.67,4.14,4.11,4.1c2.35-0.03,3.92-1.51,3.98-4c0.09-3.59,0.09-7.18,0-10.77c-0.06-2.45-1.69-3.99-3.99-4.02
		c-2.39-0.03-4,1.55-4.1,4.15C60.32,66.28,60.38,67.99,60.38,69.71z"/>
	<path class="st7" d="M8.37,90.24c5.84,0.54,11.54,1.03,17.22,1.68c0.51,0.06,1.22,1.09,1.31,1.75c0.31,2.32,0.43,4.68,0.55,7.02
		c0.09,1.73,1.03,2.55,2.67,2.67c7.06,0.51,14.11,1.01,21.17,1.5c1.7,0.12,2.65-0.69,2.87-2.39c0.28-2.09,0.66-4.18,0.9-6.27
		c0.15-1.33,0.7-1.85,2.12-1.83c4.8,0.08,9.59,0.09,14.39,0c1.5-0.03,2.11,0.49,2.26,1.94c0.21,2.02,0.62,4.02,0.86,6.04
		c0.22,1.82,1.17,2.65,2.99,2.52c6.98-0.5,13.96-0.99,20.93-1.48c1.76-0.12,2.72-0.96,2.82-2.79c0.12-2.35,0.26-4.7,0.56-7.02
		c0.08-0.6,0.71-1.57,1.17-1.62c5.75-0.64,11.51-1.14,17.32-1.68c1.14,8.92-1.43,16.15-8.33,21.69c-6.46,5.19-14.05,7.93-22.05,9.55
		c-19.72,4-39.39,3.96-58.7-2.1c-4.86-1.52-9.57-4.03-13.8-6.9C9.98,107.32,7.21,99.68,8.37,90.24z"/>
	<path class="st7" d="M101.13,66.44c-0.09,4.56-4.09,8.39-8.59,8.22c-4.51-0.17-8.21-4.01-8.13-8.44c0.08-4.57,4.06-8.38,8.58-8.21
		C97.51,58.19,101.21,62.02,101.13,66.44z"/>
	<path class="st7" d="M44.46,66.33c0,4.55-3.93,8.42-8.47,8.34c-4.49-0.09-8.24-3.87-8.24-8.33c-0.01-4.55,3.92-8.41,8.47-8.33
		C40.73,58.1,44.46,61.87,44.46,66.33z"/>
</g>
</svg>
