<?xml version="1.0" encoding="utf-8"?>
<!-- Generator: Adobe Illustrator 27.8.0, SVG Export Plug-In . SVG Version: 6.00 Build 0)  -->
<svg version="1.1" id="Layer_1" xmlns="http://www.w3.org/2000/svg" xmlns:xlink="http://www.w3.org/1999/xlink" x="0px" y="0px"
	 viewBox="0 0 400 400" style="enable-background:new 0 0 400 400;" xml:space="preserve">
<style type="text/css">
	.st0{fill:url(#SVGID_1_);}
	.st1{fill:url(#SVGID_00000175316489251440691120000016912115527159497902_);}
	.st2{fill:url(#SVGID_00000125602568392405430130000003929780893822694574_);}
	.st3{fill:url(#SVGID_00000084503152846135565970000013865187707861982620_);}
	.st4{fill:url(#SVGID_00000078027800413544993800000015065768510361801627_);}
	.st5{fill:url(#SVGID_00000006692481525253682000000012386445894820741264_);}
	.st6{fill:#EFDF00;}
	.st7{fill:#666666;}
	.st8{fill:#A39300;}
	.st9{fill:#D0C200;}
	.st10{fill:#00514D;}
	.st11{fill:#DD7901;}
</style>
<g>
	<linearGradient id="SVGID_1_" gradientUnits="userSpaceOnUse" x1="200" y1="0" x2="200" y2="400">
		<stop  offset="0" style="stop-color:#EFDF00"/>
		<stop  offset="0.2805" style="stop-color:#E0D100"/>
		<stop  offset="0.6415" style="stop-color:#D4C600"/>
		<stop  offset="1" style="stop-color:#D0C200"/>
	</linearGradient>
	<circle class="st0" cx="200" cy="200" r="200"/>
	<g>
		<path d="M151.94,289.64c0-6.1,0.07-11.83-0.03-17.56c-0.05-3.42-1.14-4-4.89-2.58c0,6.49,0,13.13,0,19.24
			c-0.8,1.19-1.49,1.12-2.14,1.12c-7.35,0.01-14.69,0.04-22.04-0.01c-4.23-0.03-5.42-1.27-5.43-5.55
			c-0.03-7.88-0.07-15.76,0.01-23.64c0.14-14.11,8.91-26.06,22.28-30.47c6.44-2.12,12.88-4.22,19.08-6.24
			c1.49,0.17,2.02,1.21,2.74,1.94c6.82,6.96,13.59,13.97,20.42,20.92c3.67,3.73,5.81,3.9,10.1,0.86c5.63-4,11.24-8.04,17.25-12.33
			c0,10.74,0,21.03,0,31.49c-1.78,0.57-3.62,0.25-5.61,0.2c-2.64-5.57-6.68-9.48-12.85-10.99c-8.31-2.04-15.97,1.74-19.06,9.75
			c-2.36,6.11-3.77,12.47-4.69,18.94c-0.22,1.58-0.53,3.15-0.84,4.93C161.58,289.64,156.98,289.64,151.94,289.64z"/>
		<path d="M220.7,267c-1.99,0.13-3.71,0.27-5.75-0.13c0-10.28,0-20.59,0-31.18c2.27,0.93,4,2.59,5.92,3.92
			c3.51,2.43,6.95,4.96,10.41,7.45c5.47,3.93,6.97,3.63,11.94-1.17c7.3-7.04,14.82-13.87,23.08-21.58
			c5.81,1.71,13.28,4.03,20.57,6.84c7.98,3.08,13.52,8.85,17.07,16.55c1.63,3.54,2.66,7.26,2.67,11.2
			c0.03,8.69,0.08,17.37,0.04,26.06c-0.01,3.3-1.1,4.78-4.03,4.84c-8.25,0.15-16.51,0.05-25.12,0.05c0-4.17,0-8.01,0-11.85
			c0-1.87,0-3.74,0-5.61c0-1.87-0.39-3.78-2.58-3.83c-2.45-0.06-2.81,1.89-2.79,3.96c0.05,5.6,0.02,11.21,0.02,17.07
			c-4.74,0-9.33,0-14.16,0c-1.35-7.39-2.49-14.85-4.78-22.09c-2.15-6.82-6.27-11.22-13.43-11.91c-7.7-0.74-13.77,2.36-17.81,9.1
			C221.59,265.38,221.21,266.08,220.7,267z"/>
		<path d="M171.78,141.23c-6.26-13.51-5.22-25.06,5.92-34.65c-2.9-5.14-7.39-8.28-10.51-12.58c0.58-1.16,1.63-0.48,2.44-0.62
			c0.65-0.11,1.33-0.06,2-0.02c11.92,0.7,23.63-0.91,35.37-2.75c8.4-1.32,16.77-0.4,24.89,2.21c11.79,3.79,17.08,13.37,20.94,24.04
			c2.63,7.27,2.31,13.67-0.74,21.67c-2.12-6.99-4.75-13.24-11.62-15.98c-6.58-2.62-13.08-1.19-19.35,1.31
			c-8.93-7.55-18.97-9-29.72-5.74C180.33,121.47,173.87,129.2,171.78,141.23z"/>
		<path d="M177.72,169.86c6.31,0,12.32,0.04,18.32-0.01c4.92-0.04,6.98-1.52,8.61-6.14c1.03-2.93,2.46-5.35,6.03-5.45
			c3.28-0.09,4.78,1.15,6.47,5.38c2,5.01,3.64,6.18,8.95,6.21c6.67,0.04,13.34,0.01,19.99,0.01c0.65,13.06-15.27,28.49-30.12,29.46
			C196.38,200.6,179,187.4,177.72,169.86z"/>
		<path d="M246.96,164.69c-7.28,0-14.46-0.02-21.64,0.01c-2.01,0.01-2.69-1.21-3.21-2.9c-1.05-3.45-3.02-6.26-6.37-7.83
			c-6.23-2.93-13.1-0.2-15.5,6.75c-1.18,3.42-2.92,4.15-6.12,4.04c-5.59-0.2-11.19-0.06-17.4-0.06c0.25-7.98-0.41-15.76,0.52-23.74
			c23.32,0,46.36,0,69.72,0C246.96,148.71,246.96,156.4,246.96,164.69z"/>
		<path d="M234.38,198.22c0,4.36,0,8.31,0,12.58c-7.27,5.22-14.7,10.56-22.28,15.99c-7.61-5.46-15.06-10.8-22.38-16.06
			c0-4.22,0-8.16,0-12.5C204.67,207.04,219.44,207.02,234.38,198.22z"/>
		<path d="M179.1,135.34c0.95-3.46,3.09-5.77,5.53-7.82c9.93-8.31,26.92-7.16,33.22,0.86c1.34,1.71,2.88,1.6,4.6,0.69
			c2.61-1.38,5.47-2.05,8.34-2.6c6.54-1.26,12.22,2.24,14.24,8.86C223.15,135.34,201.36,135.34,179.1,135.34z"/>
		<path d="M165.05,221.92c6.92-2.3,13.19-4.41,19.49-6.47c1-0.33,2.08-0.5,3.07,0.22c6.56,4.74,13.13,9.47,19.95,14.39
			c-6.88,4.94-13.45,9.66-20.36,14.62C179.88,237.16,172.67,229.76,165.05,221.92z"/>
		<path d="M237.01,244.66c-6.85-4.91-13.43-9.62-20.38-14.61c6.75-4.84,13.3-9.53,19.83-14.25c0.84-0.6,1.7-0.77,2.63-0.47
			c6.54,2.11,13.07,4.24,20.09,6.53C251.65,229.61,244.52,236.94,237.01,244.66z"/>
		<path d="M114.05,147.93c-7.16-3.29-13.91-6.38-20.66-9.48c0-9.23,0-18.25,0-27.77c7.07,3.23,13.81,6.31,20.66,9.43
			C114.05,129.24,114.05,138.31,114.05,147.93z"/>
		<path d="M140.54,110.69c0,9.48,0,18.39,0,27.74c-6.67,3.07-13.49,6.22-20.66,9.52c0-9.43,0-18.51,0-27.82
			C126.62,117.05,133.44,113.93,140.54,110.69z"/>
		<path d="M93.32,181.58c7.23,3.32,13.95,6.41,20.72,9.52c0,9.22,0,18.24,0,27.75c-7.06-3.22-13.88-6.33-20.72-9.45
			C93.32,200.19,93.32,191.14,93.32,181.58z"/>
		<path d="M140.52,181.64c0,9.48,0,18.51,0,27.79c-6.77,3.09-13.58,6.21-20.73,9.48c0-9.51,0-18.52,0-27.77
			C126.6,188.02,133.43,184.89,140.52,181.64z"/>
		<path d="M116.98,97.51c6.77,3.03,13.16,5.9,19.97,8.95c-6.38,2.97-12.25,5.7-18.1,8.45c-1.29,0.6-2.49,0.59-3.78-0.02
			c-5.85-2.76-11.73-5.47-18.09-8.42C103.87,103.37,110.39,100.45,116.98,97.51z"/>
		<path d="M96.91,177.39c6.35-2.8,12.18-5.28,17.91-7.97c1.66-0.78,2.89-0.63,4.46,0.1c5.65,2.61,11.39,5.06,17.73,7.85
			c-6.65,3.08-12.84,5.94-19.03,8.8c-0.79,0.37-1.54,0.24-2.3-0.11C109.59,183.24,103.47,180.42,96.91,177.39z"/>
		<path d="M227.57,292.76c0.07,2.15-1.49,3.86-3.59,3.94c-2.01,0.08-3.86-1.66-3.93-3.68c-0.07-1.97,1.69-3.86,3.66-3.95
			C225.76,288.99,227.5,290.65,227.57,292.76z"/>
		<path d="M200.46,289.08c2.02,0.1,3.65,1.91,3.57,3.98c-0.08,2.05-1.9,3.74-3.91,3.64c-2.08-0.1-3.61-1.84-3.52-3.99
			C196.69,290.6,198.4,288.98,200.46,289.08z"/>
		<path d="M217.3,305.54h-12.24c-1.04,0-1.9-0.85-1.9-1.9v-1.27c0-1.04,0.85-1.9,1.9-1.9h12.24c1.04,0,1.9,0.85,1.9,1.9v1.27
			C219.2,304.68,218.35,305.54,217.3,305.54z"/>
		<g>
			<path d="M247.31,266.72c-1.18-3.27-3.72-5.17-7.12-5.73c-6.5-1.05-12.04,1.97-14.36,8.14c-0.92,2.45-2.25,3.26-4.74,3.2
				c-5.07-0.14-10.16-0.22-15.22,0.02c-3.95,0.19-6.34-0.52-8.16-4.83c-3.38-8-15.55-9.18-19.81-2.3c-2.04,3.3-3.25,7.02-3.57,10.94
				c-0.01,0.04-0.02,0.07-0.02,0.11v0.2c-0.02,0.27-0.05,0.53-0.06,0.8c0.02-0.02,0.03-0.04,0.06-0.06
				c-1.76,2.75-1.65,5.98-2.13,9.02c-0.99,6.2-1.76,12.45-0.29,18.7c0.5,2.09,1.11,4.15,3.78,5.05c6.28-1.84,10.02-6.91,13.73-11.95
				c1.2-1.62,1.9-3.34,1.93-5.51c0.06-4.14,2.82-7.29,6.78-8.37c3.68-1,7.36,0.44,9.77,3.77c0.53,0.74,0.66,1.76,1.47,2.21h5.62
				c0.34-0.53,0.63-0.98,0.92-1.42c2.58-3.99,6.18-5.62,10.11-4.59c4.19,1.11,6.48,3.95,6.82,8.71c0.08,1.11,0.32,2.05,0.87,3.01
				c2.37,4.05,5.07,7.86,8.58,11c1.88,1.68,3.93,3.74,6.64,2.93c3-0.89,3.14-4,3.82-6.55c0.07-0.26,0.07-0.53,0.09-0.79
				C253.47,290.15,251.47,278.26,247.31,266.72z M195.94,278.27c0,1.32-1.08,2.41-2.41,2.41h-4.69v4.69c0,1.32-1.08,2.41-2.41,2.41
				h-0.25c-1.32,0-2.41-1.08-2.41-2.41v-4.69h-4.69c-1.32,0-2.41-1.08-2.41-2.41v-0.25c0-1.32,1.08-2.41,2.41-2.41h4.69v-4.69
				c0-1.32,1.08-2.41,2.41-2.41h0.25c1.32,0,2.41,1.08,2.41,2.41v4.69h4.69c1.32,0,2.41,1.08,2.41,2.41V278.27z M220,279.07
				c0,1.32-1.08,2.41-2.41,2.41h-11.23c-1.32,0-2.41-1.08-2.41-2.41v-0.25c0-1.32,1.08-2.41,2.41-2.41h11.23
				c1.32,0,2.41,1.08,2.41,2.41V279.07z M236.38,269.99h4.15c1.07,0,1.94,0.87,1.94,1.94c0,1.07-0.87,1.94-1.94,1.94h-4.15
				c-1.07,0-1.94-0.87-1.94-1.94C234.44,270.86,235.31,269.99,236.38,269.99z M229.96,278.68c-1.07,0-1.94-0.87-1.94-1.94
				c0-1.07,0.87-1.94,1.94-1.94h4.15c1.07,0,1.94,0.87,1.94,1.94c0,1.07-0.87,1.94-1.94,1.94H229.96z M240.52,283.49h-4.15
				c-1.07,0-1.94-0.87-1.94-1.94c0-1.07,0.87-1.94,1.94-1.94h4.15c1.07,0,1.94,0.87,1.94,1.94
				C242.46,282.63,241.59,283.49,240.52,283.49z M246.94,278.68h-4.15c-1.07,0-1.94-0.87-1.94-1.94c0-1.07,0.87-1.94,1.94-1.94h4.15
				c1.07,0,1.94,0.87,1.94,1.94C248.88,277.81,248.01,278.68,246.94,278.68z"/>
			<rect x="183.79" y="275.61" width="5.07" height="5.07"/>
		</g>
	</g>
</g>
</svg>
