<?xml version="1.0" encoding="utf-8"?>
<!-- Generator: Adobe Illustrator 27.8.0, SVG Export Plug-In . SVG Version: 6.00 Build 0)  -->
<svg version="1.1" id="Layer_1" xmlns="http://www.w3.org/2000/svg" xmlns:xlink="http://www.w3.org/1999/xlink" x="0px" y="0px"
	 viewBox="0 0 400 400" style="enable-background:new 0 0 400 400;" xml:space="preserve">
<style type="text/css">
	.st0{fill:url(#SVGID_1_);}
	.st1{fill:url(#SVGID_00000170972521291351158640000009244994693391790470_);}
	.st2{fill:url(#SVGID_00000043441109310947542250000009204163394005632417_);}
	.st3{fill:url(#SVGID_00000132080361194258991200000017155690038741775491_);}
	.st4{fill:url(#SVGID_00000015318756455925956740000002887675819440015784_);}
	.st5{fill:url(#SVGID_00000003812623156774356490000005992357452754665363_);}
	.st6{fill:#EFDF00;}
	.st7{fill:#666666;}
	.st8{fill:#A39300;}
	.st9{fill:#D0C200;}
	.st10{fill:#00514D;}
	.st11{fill:#DD7901;}
</style>
<g>
	<linearGradient id="SVGID_1_" gradientUnits="userSpaceOnUse" x1="200" y1="0" x2="200" y2="400">
		<stop  offset="0" style="stop-color:#EFDF00"/>
		<stop  offset="0.2805" style="stop-color:#E0D100"/>
		<stop  offset="0.6415" style="stop-color:#D4C600"/>
		<stop  offset="1" style="stop-color:#D0C200"/>
	</linearGradient>
	<circle class="st0" cx="200" cy="200" r="200"/>
	<g>
		<path d="M99.11,155.4c0.05-9.96,0.1-19.92,0.14-29.88c0.01-2.52,0-5.03,0-7.76c67.17,0,134.18,0,201.35,0c0,37.63,0,75.2,0,112.83
			c-0.69,0.68-1.58,0.34-2.59,0.3c-0.45-1.48-0.67-3.11-1.63-4.44c-2.28-3.2-5.24-4.67-9.31-4.64c-20.18,0.13-40.35,0.06-60.53,0.06
			c-6.42,0-12.84,0-19.26,0c-0.83-1.04-0.67-1.94,0.25-2.66c1.09-0.85,2.29-1.56,3.37-2.41c1.08-0.85,2.46-1.3,3.45-2.76
			c0-0.84,0-1.95,0-3.25c1.74,0,3.32,0,5.07,0c0.38,1.57,0.53,3.62,2.87,3.59c2.26-0.04,2.4-2.11,2.87-3.72c4.17,0,8.19,0,12.34,0
			c0.51,1.53,0.55,3.66,2.85,3.72c2.36,0.06,2.37-2.11,3.06-3.69c4.03,0,8.05,0,12.29,0c0.52,1.5,0.37,3.91,3.01,3.69
			c2.03-0.17,2.35-1.91,2.8-3.79c3.93,0,7.94,0,11.95,0c1.01,0,2.02,0.07,3.02-0.02c1.71-0.15,2.43-1.01,2.41-2.71
			c-0.02-1.71-0.65-2.41-2.59-2.45c-3.53-0.08-7.06-0.02-10.59-0.02c-1.37,0-2.74,0-4.05,0c-1.05-3.24-1.7-3.92-3.47-3.83
			c-2.39,0.12-2.09,2.05-2.3,3.69c-4.25,0-8.36,0-12.46,0c-1.02-3.15-1.66-3.82-3.43-3.68c-2.33,0.19-1.81,2.33-2.52,3.73
			c-4,0-8.01,0-12.22,0c-0.74-1.49-0.59-4.05-3.5-3.74c-2.34,0.25-1.89,2.26-2.34,3.74c-1.6,0-3.09,0-4.77,0
			c-0.6-2.29-0.01-4.69-0.4-7.24c-3.29-0.52-6.67-0.16-10.02-0.22c-3.27-0.07-6.54-0.01-9.99-0.01c-0.6,2.4-0.02,4.79-0.42,7.33
			c-1.48,0.55-3.12,0.04-4.74,0.33c-0.84-1.59-0.61-4.11-3.28-3.89c-2.08,0.17-2.35,1.92-2.69,3.81c-4.25,0-8.5,0-12.76,0
			c-0.88,0-1.78-0.07-2.65,0.03c-1.36,0.17-2.39,1.27-2.43,2.46c-0.04,1.1,1.02,2.44,2.27,2.65c0.86,0.14,1.76,0.05,2.64,0.06
			c4.27,0,8.54,0,12.8,0c0.64,1.71,0.71,3.88,3.06,3.78c1.99-0.09,2.59-1.68,2.59-3.61c1.72,0,3.31,0,5.05,0
			c0.71,1.03,0.04,2.38,0.48,3.57c2.12,2.45,5.66,3.21,7.37,6.15c0.15,0.25-0.08,0.71-0.13,1.09c-1.09,0.58-2.24,0.3-3.34,0.3
			c-27.49,0.02-54.98,0.01-82.47,0.01c-0.88,0-1.77-0.01-2.65,0c-6.25,0.07-9.45,2.66-10.83,8.77c-0.78,0.55-1.61,0.41-2.34,0.2
			c-0.55-0.26-0.52-0.69-0.52-1.04c-0.02-9.09-0.02-18.17-0.01-27.26c0-13.88,0.01-27.76,0.01-41.64c0-0.37-0.08-0.74-0.12-1.11
			c0.38,0.01,0.69,0.09,0.86,0.51c1.39,3.39,3.85,5.1,7.58,4.96c1.54-0.06,2.93,0.58,4.23,1.35c3.31,1.94,4.73,4.92,4.98,8.68
			c0.35,5.32,4.57,7.35,7.58,7.27c3.44-0.08,6.85-2.16,7.52-6.97c0.1-0.74,0.16-1.49,0.34-2.22c1.35-5.54,5.81-7.74,9.81-7.54
			c4.65,0.23,7.85,3.05,8.93,8.09c0.18,0.85,0.35,1.7,0.53,2.55c0.61,2.97,2.38,4.81,5.28,5.73c2.83,0.9,5.14,0.14,7.23-1.78
			c1.77-1.63,2.42-3.69,2.63-6.02c0.36-4.01,2.49-6.57,6.32-7.92c3.87-1.36,7.15-0.55,9.94,2.27c1.82,1.84,2.62,4.11,2.79,6.75
			c0.26,3.94,4.16,7.27,7.9,7.09c4.08-0.2,7.03-3.03,7.13-7.19c0.05-1.99,0.74-3.68,1.58-5.33c1.59-3.1,6.08-5.3,9.5-4.81
			c3.56,0.51,7.07,3.67,7.89,7.18c0.29,1.21,0.51,2.44,0.69,3.68c0.45,3.21,2.3,5.12,5.34,6.09c2.83,0.91,5.13,0.12,7.22-1.82
			c1.66-1.54,2.34-3.48,2.55-5.66c0.09-0.99,0.08-1.98,0.46-2.96c1.63-4.23,4.81-6.19,9.18-6.55c4.32-0.36,7.81-3.89,7.66-7.72
			c-0.17-4.13-3.86-7.42-8.34-7.44c-5.19-0.02-9.73,1.86-13.95,4.72c-1,0.68-1.74,1.77-2.92,1.89c-11.67-9.14-23.17-8.87-34.47,0.2
			c-8.86-8.14-21.52-9.1-31.22-2.36c-3.06,2.13-3.07,2.07-6.41-0.14c-9.09-6-18.3-5.6-27.55-0.41c-1.39,0.78-2.23,2.36-3.86,2.89
			c-3.7-3.6-8.1-5.68-12.99-6.51c-4.45-0.75-8.02-1.03-11.09,4.62C99.78,155.38,99.48,155.42,99.11,155.4z M270.52,168.94
			c7.22,0.03,15.54-5.39,15.51-15.42c-0.03-9.16-6.81-15.51-15.45-15.47c-9.62,0.04-15.32,7.98-15.36,15.24
			C255.16,162.27,262.36,168.7,270.52,168.94z"/>
		<path d="M201.41,226.98c0,3.39,0,6.89,0,10.54c-0.69,0.74-1.77,0.31-2.71,0.32c-7.94,0.04-15.89,0.04-23.83,0.01
			c-3.3-0.01-6.11,1.07-8.42,3.47c-4.91,5.09-3.66,13.6,2.52,17.09c1.78,1,3.63,1.51,5.72,1.49c8.7-0.07,17.4-0.03,26.35-0.03
			c0.83,0.87,1.08,2.6,3.1,2.49c1.76-0.09,2.28-1.25,3.1-2.49c1.58,0,3.21,0,4.84,0c19.54,0,39.09-0.02,58.63,0.02
			c3.91,0.01,7.03-1.35,9.33-4.58c2.45-3.45,2.92-7.12,1.13-10.92c-1.85-3.94-5.12-6.04-9.42-6.49c-1-0.1-2.02-0.02-3.02-0.02
			c-19.29,0-38.58,0-57.88,0c-1.24,0-2.48,0-3.89,0c0-3.79,0-7.38,0-10.99c1.2-0.47,2.33-0.24,3.44-0.24
			c24.97-0.02,49.93-0.01,74.9-0.01c0.88,0,1.77-0.06,2.65,0.03c2.86,0.27,4.78,2.25,5.01,5.13c0.04,0.5,0.01,1.01,0.01,1.51
			c0,19.94,0,39.87,0,59.81c0,0.76,0.1,1.53-0.02,2.27c-0.4,2.63-2.48,4.47-5.14,4.61c-0.88,0.05-1.76,0.01-2.65,0.01
			c-56.74,0-113.48,0-170.22,0c-0.63,0-1.26,0.01-1.89,0c-3.93-0.07-5.9-2.04-5.94-6.1c-0.05-5.55-0.01-11.1-0.01-16.66
			c0-14.38,0-28.77,0-43.15c0-0.88-0.08-1.78,0.02-2.65c0.28-2.46,2.16-4.41,4.59-4.77c0.74-0.11,1.51-0.04,2.27-0.04
			c28.37,0,56.74,0,85.11,0.01C199.79,226.63,200.56,226.42,201.41,226.98z M243.35,288.76c8.22,0,16.16,0,24.09,0
			c1.76,0,3.54,0.06,5.29-0.07c5.18-0.4,10.18-6.15,9.61-11.2c-0.63-5.55-4.12-9.29-8.51-10.32c-1.38-0.32-2.7-0.48-4.07-0.48
			c-8.81-0.02-17.61-0.01-26.39-0.01c-0.7-1.52-1.1-2.99-3.04-3.1c-2.31-0.13-2.22,1.91-2.92,3.1c-20.61,0-41.04,0.01-61.46-0.02
			c-1.91,0-3.8,0.09-5.52,0.84c-3.96,1.71-6.53,4.59-6.89,9.07c-0.38,4.64,1.12,8.35,5.27,10.83c2.05,1.23,4.24,1.37,6.52,1.37
			c20.67-0.01,41.33-0.01,62.03-0.01c0.79,1.12,1.32,2.51,2.9,2.75C241.81,291.31,242.46,290.03,243.35,288.76z M137.07,283.98
			c0,0,0-0.01,0-0.01c2.89,0,5.79,0.14,8.67-0.04c3.06-0.19,5.74-3.1,5.77-5.93c0.04-3.06-2.41-5.95-5.51-6.03
			c-5.9-0.14-11.81-0.13-17.71,0.02c-2.24,0.06-3.81,1.34-4.79,3.56c-1.08,2.44-0.45,4.38,1.08,6.2c1.26,1.51,2.92,2.28,4.95,2.24
			C132.04,283.93,134.55,283.98,137.07,283.98z M136.64,254.68c0,0,0-0.01,0-0.01c3.02,0,6.04,0.08,9.05-0.02
			c3.27-0.11,5.76-2.69,5.78-5.76c0.02-2.96-2.57-5.7-5.79-5.77c-5.78-0.12-11.57-0.12-17.35-0.03c-3.31,0.05-5.61,2.56-5.6,5.79
			c0,3.17,2.39,5.69,5.62,5.79C131.1,254.75,133.87,254.68,136.64,254.68z"/>
		<path d="M305.79,112.92c-70.58,0-141,0-211.57,0c0,40.95,0,81.78,0,122.6c2.64,0.84,5.37-0.44,7.95,0.82c0,3.92,0,7.8,0,11.74
			c-0.64,0.79-1.59,0.45-2.42,0.46c-4.29,0.03-8.58-0.09-12.86,0.05c-3.02,0.1-5.06-1.28-5.57-5.22c-0.1-0.74-0.01-1.51-0.01-2.27
			c0-44.54,0-89.08,0.01-133.63c0-1.12-0.04-2.29,0.23-3.36c0.66-2.61,2.48-3.99,5.14-4.1c0.76-0.03,1.51-0.01,2.27-0.01
			c74.02,0,148.03,0,222.05,0c6.18,0,7.72,1.55,7.72,7.76c0,44.42,0,88.83,0.01,133.25c0,1.77,0.02,3.52-0.9,5.11
			c-0.8,1.38-1.95,2.34-3.59,2.35c-5.4,0.04-10.79,0.02-16.35,0.02c0-4.22,0-8.2,0-12.24c2.58-1.13,5.29-0.01,7.91-0.73
			C305.79,194.66,305.79,153.84,305.79,112.92z"/>
		<path d="M261.4,255.09c0-4.06,0-7.89,0-12.02c3.19,0,6.3-0.08,9.41,0.02c2.96,0.09,5.27,2.26,5.61,5.04
			c0.35,2.83-1.31,5.47-4.06,6.43c-1.31,0.46-2.66,0.57-4.05,0.54C266.06,255.05,263.83,255.09,261.4,255.09z"/>
		<path d="M183.25,243.08c0,3.99,0,7.6,0,11.52c-3.33,0-6.57,0.1-9.79-0.03c-3.13-0.12-5.42-2.84-5.36-6.07
			c0.07-3.29,1.96-5.27,5.43-5.4C176.67,242.98,179.81,243.08,183.25,243.08z"/>
		<path d="M188.73,243.13c4.24,0,8.33,0,12.63,0c0.44,3.69,0.11,7.41,0.22,11.53c-4.35,0.03-8.52,0.01-12.85,0.02
			C188.73,250.69,188.73,246.98,188.73,243.13z"/>
		<path d="M219.51,254.54c-4.25,0-8.34,0-12.57,0c0-3.86,0-7.58,0-11.42c4.25,0,8.34,0,12.57,0
			C219.51,246.98,219.51,250.7,219.51,254.54z"/>
		<path d="M237.74,243.15c0,3.83,0,7.44,0,11.33c-4.19,0.4-8.36,0.11-12.7,0.18c0-3.94,0-7.63,0-11.51
			C229.23,243.15,233.32,243.15,237.74,243.15z"/>
		<path d="M243.21,254.48c0-3.84,0-7.54,0-11.37c4.26,0,8.35,0,12.63,0c0,3.75,0,7.46,0,11.37
			C251.74,254.48,247.65,254.48,243.21,254.48z"/>
		<path d="M204.08,215.39c-1.77-1.42-3.55-2.13-4.82-3.6c0-2.85,0-5.69,0-8.69c3.21,0,6.3,0,9.63,0c0.71,2.65,0.09,5.52,0.34,8.38
			C207.93,213.24,205.93,214.03,204.08,215.39z"/>
		<path d="M158.86,164.82c8.35-11.8,24.83-13.96,34.68,0.1c8.58-13.32,26.31-12.7,34.11,0.17c4.58-6.37,10.39-10.36,18.48-9.76
			c1.65,1.31,1.75,2.72,0.46,4.4c-1.08,0.24-2.28,0.62-3.5,0.74c-6.42,0.64-12.11,5.73-12.78,13.53c-0.03,0.38-0.02,0.76-0.04,1.13
			c-0.06,1.15-0.65,1.89-1.76,2.14c-1.24,0.28-2.18-0.12-2.9-1.22c-0.53-0.8-0.54-1.66-0.56-2.53c-0.09-5.86-5.53-12.11-12.37-13.11
			c-7.96-1.17-15.32,4.7-16.47,11.35c-0.21,1.23-0.44,2.46-0.63,3.69c-0.21,1.38-1.07,1.92-2.37,1.88
			c-1.29-0.03-2.21-0.61-2.31-1.98c-0.23-3.05-1.08-5.84-2.88-8.37c-6.25-8.8-19.98-8.28-25.11,2.02c-0.84,1.68-1.44,3.43-1.51,5.37
			c-0.07,2.17-0.92,3.01-2.53,2.97c-1.52-0.04-2.49-1.02-2.63-3.06c-0.17-2.44-0.99-4.56-2.25-6.65c-3.34-5.55-10.11-7.57-14.1-6.79
			c-6.54,1.27-11.2,4.74-12.59,11.66c-0.2,0.98-0.47,1.94-0.64,2.92c-0.24,1.36-1.06,1.92-2.37,1.91c-1.34-0.01-2.09-0.66-2.29-2
			c-0.15-0.98-0.41-1.95-0.59-2.93c-1.22-6.54-5.28-10.63-11.84-11.89c-0.98-0.19-1.97-0.3-2.94-0.53c-1.46-0.34-2.14-1.33-1.9-2.74
			c0.22-1.27,0.97-1.96,2.32-1.98c6.29-0.07,11.39,2.44,15.47,7.15c0.56,0.65,1.02,1.4,1.76,2.41c3.02-3.48,5.92-6.82,10.36-8.35
			c4.58-1.58,9.06-1.73,13.6-0.2C152.68,157.79,155.91,160.94,158.86,164.82z"/>
		<path d="M270.4,163.73c-5.7-0.05-9.92-4.57-9.99-10.4c-0.07-5.64,4.8-10.1,10.3-10.13c5.6-0.04,10.16,4.69,10.22,10.3
			C281.01,159.65,275.76,163.96,270.4,163.73z"/>
		<path d="M261.11,271.9c3.5,0,6.6-0.06,9.7,0.01c3.76,0.09,6.38,2.52,6.28,5.95c-0.11,3.6-3.44,6.15-6.37,6.11
			c-3-0.04-5.99-0.01-9.23-0.01C260.86,280.07,261.41,276.23,261.11,271.9z"/>
		<path d="M183.28,271.92c0,4.13,0,7.86,0,11.98c-3.16,0-6.29,0.28-9.33-0.08c-3.42-0.4-6.03-2.47-5.84-6.44
			c0.14-2.83,2.3-5.31,5.13-5.43C176.47,271.82,179.72,271.92,183.28,271.92z"/>
		<path d="M201.47,272.06c0,3.93,0,7.67,0,11.63c-2.03,0.56-4.14,0.19-6.22,0.26c-2.11,0.07-4.22,0.01-6.49,0.01
			c0-4.07,0-7.9,0-11.9C192.91,272.06,197,272.06,201.47,272.06z"/>
		<path d="M206.78,272.01c4.55,0,8.56,0,12.73,0c0,3.96,0,7.8,0,11.8c-4.2,0-8.3,0-12.7,0
			C206.76,279.77,206.79,275.84,206.78,272.01z"/>
		<path d="M224.82,272.01c4.5,0,8.59,0,12.86,0c0,3.91,0,7.75,0,11.77c-4.11,0-8.2,0-12.56,0
			C224.56,280.04,225.02,276.19,224.82,272.01z"/>
		<path d="M255.84,283.9c-4.29,0-8.28,0-12.52,0c-0.55-1.94-0.2-3.93-0.27-5.88c-0.06-1.88-0.01-3.76-0.01-5.8
			c2.08-0.65,4.21-0.24,6.29-0.31c2.11-0.07,4.23-0.02,6.51-0.02C255.84,275.92,255.84,279.75,255.84,283.9z"/>
	</g>
</g>
</svg>
