<?xml version="1.0" encoding="utf-8"?>
<!-- Generator: Adobe Illustrator 27.8.0, SVG Export Plug-In . SVG Version: 6.00 Build 0)  -->
<svg version="1.1" id="Layer_1" xmlns="http://www.w3.org/2000/svg" xmlns:xlink="http://www.w3.org/1999/xlink" x="0px" y="0px"
	 viewBox="0 0 400 400" style="enable-background:new 0 0 400 400;" xml:space="preserve">
<style type="text/css">
	.st0{fill:url(#SVGID_1_);}
	.st1{fill:url(#SVGID_00000005962542519052337620000006947751930053941379_);}
	.st2{fill:url(#SVGID_00000027601723891147691270000007774762010357728437_);}
	.st3{fill:url(#SVGID_00000119823404923559697790000006870951572444983188_);}
	.st4{fill:url(#SVGID_00000018938091928097658300000008285533081780659840_);}
	.st5{fill:url(#SVGID_00000031194425118022537610000015251674234662774154_);}
	.st6{fill:#EFDF00;}
	.st7{fill:#666666;}
	.st8{fill:#A39300;}
	.st9{fill:#D0C200;}
	.st10{fill:#00514D;}
	.st11{fill:#DD7901;}
</style>
<g>
	<linearGradient id="SVGID_1_" gradientUnits="userSpaceOnUse" x1="200" y1="0" x2="200" y2="400">
		<stop  offset="0" style="stop-color:#EFDF00"/>
		<stop  offset="0.2805" style="stop-color:#E0D100"/>
		<stop  offset="0.6415" style="stop-color:#D4C600"/>
		<stop  offset="1" style="stop-color:#D0C200"/>
	</linearGradient>
	<circle class="st0" cx="200" cy="200" r="200"/>
	<g>
		<path d="M214.4,121.54c0,7.06,0,13.92,0,20.79c0,3.33-0.01,6.66,0,9.99c0.02,3.69,0.92,4.63,4.56,4.64
			c9.05,0.02,18.11,0.01,27.16,0.01c1.14,0,2.29,0,3.42,0c0.7,2.31,0.97,31.72,0.4,44.09c-6.42,5.66-12.95,11.42-19.25,16.97
			c-12.66,0.78-22.33,10.88-23.16,21.99c-0.22,2.99-0.48,5.99-0.46,8.99c0.02,3.55-1.44,6.15-4.36,8.04
			c-0.52,0.34-1.04,0.68-1.49,0.98c-1.46,1.73-1.51,3.41-0.09,5.18c1,0.96,2.29,1.13,3.69,1.13c8.12-0.03,16.24,0.14,24.35-0.07
			c7-0.18,13.03-2.85,17.74-8.19c0.96-1.09,1.91-2.18,3.02-3.46c0.23,3.15,0.08,6.21,0.11,9.25c0.03,3.01,0.01,6.02,0.01,9.01
			c-2.74,0.65-55.98,0.9-71.02,0.36c-0.08-0.65-0.24-1.33-0.24-2.01c-0.03-3.54-0.07-7.08,0.01-10.62c0.05-2.04-0.5-3.68-2.48-4.86
			c-8.47,0-17.1,0-25.7,0c-0.66-2.21-0.86-15.9-0.35-22.81c2.18,0.38,4.35,0.75,6.82,1.17c0,3.48,0,6.97,0,10.54
			c2.49,0.61,4.7,0.45,7.2,0.15c0-3.6,0-7.09,0-10.73c11.51-1.19,21.38-5.55,29.39-13.59c7.94-7.97,12.22-17.77,13.41-29.18
			c3.59,0,7.08,0,10.66,0c0.54-2.49,0.44-4.7,0.1-7.2c-3.61,0-7.09,0-10.69,0c-0.68-4.63-1.59-8.93-3.19-13.08
			c-3.8-9.85-10.35-17.32-19.21-22.92c-4.61-2.91-9.64-4.63-14.89-5.86c-0.7-0.16-1.45-0.11-2.16-0.24
			c-1.09-0.2-2.16-0.46-3.31-0.72c0-3.56,0-6.87,0-10.37c-2.45,0-4.77,0-7.24,0c0,3.4,0,6.71,0,9.89c-2,1.93-4.59,0.64-6.59,1.82
			c-0.6-2.24-0.77-12.75-0.33-18.93C152.54,121.24,209.18,121.08,214.4,121.54z"/>
		<path d="M185.83,215.89c-0.04-10.72-4.48-18.4-13.46-23.75c4.38-4.35,6.96-9.41,6.2-15.54c-0.62-5-2.98-9.24-7.07-12.34
			c-6.91-5.24-16.55-4.73-23,1.35c-5.68,5.36-8.8,16.59,0.53,26.61c-4.11,2.53-7.67,5.61-9.99,9.9c-2.24,4.17-3.21,8.66-3.35,13.7
			c-8.16-7.11-12.73-15.66-13.91-26.39c2.42,0,4.55,0,6.86,0c0-2.49,0-4.72,0-7.03c-2.11-0.98-4.37,0-6.43-0.61
			c0.17-16.9,16.54-34.13,34.73-34.8c0.09,2.11,0.19,4.23,0.29,6.52c2.47,0,4.7,0,7.19,0c0-2.19,0-4.33,0-6.45
			c12.46-0.38,32.76,11.48,35.42,34.65c-2.07,0.64-4.26-0.03-6.53,0.41c0,2.27,0,4.52,0,6.91c0.93,0.63,2.1,0.18,3.2,0.27
			c1.03,0.08,2.06,0.02,3.17,0.02c-0.14,5.28-1.64,10.02-4.04,14.47C193.23,208.29,190.36,212.45,185.83,215.89z"/>
		<path d="M221.49,114.49c23.82,0,47.52,0,71.21,0c0.48,2.39,0.64,28.81,0.22,35.17c-2.29,0.47-67.71,0.58-71.43,0.1
			C221.49,138.06,221.49,126.34,221.49,114.49z M285.68,135.87c-6.81-0.44-54.33-0.27-56.86,0.2c0.03,2.31-0.38,4.66,0.25,6.87
			c18.92,0,37.63,0,56.44,0c0.07-0.5,0.16-0.9,0.17-1.29C285.69,139.78,285.68,137.91,285.68,135.87z M250.18,128.55
			c6.09,0.42,32.96,0.26,35.44-0.2c-0.02-2.31,0.36-4.66-0.22-6.89c-11.83,0-23.46,0-35.22,0
			C250.18,123.83,250.18,126.09,250.18,128.55z M228.9,128.71c2.42,0,4.68,0.07,6.94-0.02c2.32-0.1,4.7,0.43,7.09-0.37
			c0.14-2.34,0.46-4.55-0.25-6.85c-4.62,0-9.12,0-13.77,0C228.9,123.81,228.9,126.05,228.9,128.71z"/>
		<path d="M150.36,289.31c7.76,0,15.36-0.18,22.94,0.07c3.92,0.13,5.69-1.97,5.49-5.69c-0.08-1.54-0.01-3.1-0.01-4.61
			c2.87-0.58,59.25-0.8,71.06-0.31c0.07,0.67,0.2,1.36,0.2,2.05c0.02,2.91-0.02,5.83,0,8.74c0.04,5.33-5.03,10.42-10.32,10.42
			c-0.73,0-1.46,0.01-2.18,0.01c-24.97,0-49.94,0-74.91,0c-0.94,0-1.88,0.02-2.81-0.05C154.52,299.59,149.7,294.15,150.36,289.31z
			 M203.59,285.85c-2.41,0-4.73,0-6.99,0c0,2.4,0,4.62,0,6.96c2.42,0.29,4.63,0.41,6.99-0.09
			C203.59,290.37,203.59,288.15,203.59,285.85z"/>
		<path d="M170.94,281.9c-23.48,0-46.97,0-70.44,0c-0.48-2.44-0.62-14.4-0.26-20.81c0.09-0.1,0.15-0.18,0.23-0.25
			c0.08-0.06,0.17-0.13,0.26-0.13c23.18-0.02,46.36-0.03,69.55-0.04c0.29,0,0.58,0.11,0.85,0.17
			C171.67,264.84,171.52,279.87,170.94,281.9z M132.2,274.76c4.49,0.48,29.96,0.33,32.2-0.19c-0.06-2.13,0.25-4.29-0.19-6.36
			c-10.75,0-21.32,0-32,0C132.2,270.43,132.2,272.49,132.2,274.76z M107.19,274.99c6.08,0,11.94,0,17.78-0.01c0-2.48,0-4.62,0-6.73
			c-4.54-0.41-15.39-0.3-17.78,0.19C107.19,270.48,107.19,272.53,107.19,274.99z"/>
		<path d="M150.13,114.22c0-1.54-0.05-2.88,0.01-4.22c0.21-5.01,4.81-9.64,9.8-9.93c0.62-0.04,1.25-0.04,1.87-0.04
			c25.58,0,51.15,0.03,76.73-0.03c5.04-0.01,8.4,2.35,10.81,6.82c-0.96,0.07-1.76,0.17-2.56,0.17c-8.73,0.01-17.47-0.02-26.2,0.03
			c-1.62,0.01-3.23,0.36-4.33,0.49c-2.52,2.03-1.61,4.41-1.96,6.46C211.8,114.5,158.4,114.71,150.13,114.22z"/>
		<path d="M295.68,171.05c1.1,0.51,1.81,0.73,2.39,1.13c1.97,1.37,2.44,3.68,1.18,5.73c-0.49,0.79-1.07,1.53-1.69,2.23
			c-3.92,4.42-7.88,8.81-11.79,13.25c-5.41,6.14-10.78,12.33-16.18,18.48c-3.42,3.9-6.87,7.77-10.31,11.65
			c-3.02,3.4-6.06,6.79-9.06,10.16c-0.16,0.02-0.26,0.06-0.36,0.05c-0.09-0.01-0.21-0.05-0.27-0.12
			c-3.92-4.01-7.84-8.02-11.91-12.19c2.86-2.59,5.82-5.3,8.82-7.96c2.33-2.06,4.74-4.02,7.07-6.08c7.92-7.01,15.8-14.06,23.72-21.08
			c4.73-4.19,9.48-8.38,14.28-12.49C292.78,172.76,294.25,171.99,295.68,171.05z"/>
		<path d="M178.75,220.62c-4.53,2.44-9.14,3.72-14.28,4.06c0-2.03,0-4.18,0-6.47c-2.51,0-4.76,0-7.16,0
			c-0.61,2.05,0.05,4.25-0.39,6.41c-4.82-0.18-9.2-1.77-13.78-3.82c0.18-4-0.63-8.19,0.83-12.17c2.37-6.49,6.89-10.55,13.85-11.85
			c9.54-1.79,18.14,4.8,20.19,12.82C178.92,213.17,178.83,216.77,178.75,220.62z"/>
		<path d="M230.52,225.05c5.24,5.28,10.35,10.43,15.79,15.91c-0.03,3.27-1.48,6.51-3.78,9.38c-2.39,2.97-5.37,5.15-9.13,6.09
			c-0.69,0.17-1.4,0.43-2.1,0.43c-6.11,0.03-12.23,0.02-18.52,0.02c0.16-0.7,0.23-1.37,0.47-1.98c0.86-2.14,1.13-4.36,1.16-6.65
			c0.04-3.4-0.43-6.84,0.66-10.18c2.19-6.71,6.45-11.14,13.55-12.52C229.31,225.41,229.99,225.19,230.52,225.05z"/>
		<path d="M128.74,114.58c0,7.06,0,13.91,0,20.74c-2.4,0.48-23.8,0.61-28.46,0.18c0-6.92,0-13.85,0-20.78
			C102.58,114.26,124.43,114.14,128.74,114.58z M107.39,128.71c4.69,0.01,9.27,0.01,14.07-0.01c-0.17-2.63,0.21-4.96-0.26-7.36
			c-2.48,0-4.75-0.01-7.02,0c-2.24,0.01-4.48,0.05-6.82,0.07C106.99,123.94,106.97,126.14,107.39,128.71z"/>
		<path d="M163.96,168.25c7.17,2.81,8.52,9.12,6.94,13.68c-1.89,5.45-7.12,8.37-12.12,7.14c-5.97-1.47-9.32-6.25-8.55-11.84
			C150.9,172.35,154.42,166.95,163.96,168.25z"/>
	</g>
</g>
</svg>
