<?xml version="1.0" encoding="utf-8"?>
<!-- Generator: Adobe Illustrator 27.8.0, SVG Export Plug-In . SVG Version: 6.00 Build 0)  -->
<svg version="1.1" id="Layer_1" xmlns="http://www.w3.org/2000/svg" xmlns:xlink="http://www.w3.org/1999/xlink" x="0px" y="0px"
	 viewBox="0 0 400 400" style="enable-background:new 0 0 400 400;" xml:space="preserve">
<style type="text/css">
	.st0{fill:url(#SVGID_1_);}
	.st1{fill:url(#SVGID_00000156564473925645747540000001358660128084508604_);}
	.st2{fill:url(#SVGID_00000159443200065827579660000003416026604291152769_);}
	.st3{fill:url(#SVGID_00000026883486784802417920000004875645108913535932_);}
	.st4{fill:url(#SVGID_00000101068564768322197950000006337949451329524655_);}
	.st5{fill:url(#SVGID_00000110469022002937413500000017298320278093169840_);}
	.st6{fill:#EFDF00;}
	.st7{fill:#666666;}
	.st8{fill:#A39300;}
	.st9{fill:#D0C200;}
	.st10{fill:#00514D;}
	.st11{fill:#DD7901;}
</style>
<g>
	<linearGradient id="SVGID_1_" gradientUnits="userSpaceOnUse" x1="200" y1="0" x2="200" y2="400">
		<stop  offset="0" style="stop-color:#EFDF00"/>
		<stop  offset="0.2805" style="stop-color:#E0D100"/>
		<stop  offset="0.6415" style="stop-color:#D4C600"/>
		<stop  offset="1" style="stop-color:#D0C200"/>
	</linearGradient>
	<circle class="st0" cx="200" cy="200" r="200"/>
	<g>
		<path d="M300.08,246.96c-0.24,15.44-2.83,27.36-10.06,37.94c-3.55,5.19-7.95,9.46-13.69,12.19c-9.13,4.35-17.98,3.87-26.35-1.86
			c-8.17-5.58-13.43-13.34-16.2-22.78c-1.16-3.94-2.78-7.56-5.63-10.57c-3.02-3.19-6.59-4.84-11.07-4.8
			c-11.19,0.1-22.37,0.18-33.56-0.03c-6-0.11-10.37,2.47-13.47,7.2c-1.66,2.53-2.82,5.48-3.75,8.39
			c-2.73,8.5-7.29,15.73-14.34,21.24c-9.93,7.77-21.69,8.11-32.09,0.99c-7.1-4.86-11.89-11.61-14.95-19.53
			c-7.13-18.43-6.66-36.71,1.68-54.66c2.74-5.9,6.72-10.94,11.97-14.86c5.1-3.81,10.83-5.85,17.24-5.86
			c7.85-0.01,15.71,0.01,23.56-0.01c5.26-0.01,9.74,1.84,13.47,5.54c2.28,2.26,4.59,4.5,6.81,6.82c1.33,1.39,2.84,1.96,4.76,1.95
			c10.35-0.05,20.71-0.06,31.06,0c2.05,0.01,3.67-0.57,5.08-2.07c2.12-2.25,4.36-4.39,6.55-6.58c3.8-3.81,8.37-5.71,13.78-5.68
			c7.26,0.04,14.52,0.13,21.78-0.02c10.72-0.23,19.03,4.32,25.59,12.47c4.85,6.03,8.02,12.95,9.66,20.45
			C299.09,238.41,299.65,244.1,300.08,246.96z M142.88,242.81c3.24,0,6.07,0.01,8.89,0c3.69-0.02,5.45-1.25,5.34-3.7
			c-0.1-2.33-1.72-3.38-5.27-3.41c-2.92-0.02-5.84,0-8.96,0c0-3.31,0.02-6.15,0-8.98c-0.03-3.55-1.1-5.17-3.43-5.25
			c-2.47-0.09-3.65,1.61-3.68,5.36c-0.02,2.91,0,5.82,0,8.87c-1.48,0-2.43,0-3.37,0c-2.49,0.01-5-0.1-7.48,0.07
			c-2.12,0.15-3.36,1.58-3.39,3.45c-0.02,1.85,1.23,3.25,3.31,3.53c0.93,0.13,1.9,0.06,2.85,0.06c2.58,0.01,5.16,0,8.07,0
			c0,1.62-0.01,2.89,0,4.17c0.01,2.26-0.05,4.52,0.07,6.77c0.09,1.73,1.15,3.07,2.83,3.14c1.13,0.05,2.53-0.56,3.37-1.35
			c0.64-0.61,0.77-1.94,0.81-2.97C142.94,249.5,142.88,246.42,142.88,242.81z M257.29,214.29c-3.82-0.08-7.12,3.05-7.25,6.88
			c-0.13,3.79,2.98,7.15,6.79,7.34c3.93,0.19,7.4-3.1,7.43-7.06C264.28,217.64,261.11,214.38,257.29,214.29z M249.97,235.57
			c-0.07-3.82-3.31-7.01-7.13-6.99c-3.83,0.01-7.05,3.21-7.09,7.04c-0.04,3.95,3.37,7.3,7.31,7.17
			C246.89,242.67,250.04,239.38,249.97,235.57z M278.54,235.67c-0.01-3.82-3.22-7.05-7.04-7.09c-3.84-0.04-7.09,3.1-7.18,6.95
			c-0.1,3.95,3.26,7.34,7.21,7.27C275.35,242.73,278.55,239.48,278.54,235.67z M264.25,250.1c0.08-3.81-3.06-7.11-6.89-7.24
			c-3.83-0.13-7.15,2.95-7.33,6.8c-0.19,3.94,3.1,7.4,7.06,7.42C260.91,257.1,264.18,253.92,264.25,250.1z"/>
		<path d="M200.16,100c27.65,0.06,49.98,22.59,49.85,50.31c-0.13,27.48-22.59,49.74-50.13,49.68c-27.64-0.06-49.98-22.6-49.86-50.31
			C150.15,122.2,172.61,99.95,200.16,100z M173.87,149.99c3.75-2.84,7.02-5.2,10.17-7.72c1.88-1.5,2.14-3.34,0.98-4.99
			c-1.16-1.66-3.13-2.12-5.01-0.77c-4.81,3.47-9.57,7.02-14.22,10.7c-2.02,1.6-2.06,3.93-0.06,5.51c4.75,3.75,9.6,7.36,14.53,10.87
			c1.73,1.23,3.58,0.72,4.72-0.83c1.13-1.53,0.96-3.33-0.6-4.79c-0.95-0.89-2.06-1.6-3.1-2.39
			C178.94,153.82,176.6,152.05,173.87,149.99z M226.03,149.92c-0.98,0.83-1.66,1.45-2.39,2c-2.55,1.94-5.16,3.8-7.65,5.81
			c-1.87,1.51-2.13,3.35-0.95,4.99c1.19,1.65,3.14,2.09,5.02,0.74c4.81-3.47,9.57-7.02,14.22-10.71c2.01-1.59,2.01-3.92,0-5.51
			c-4.64-3.69-9.41-7.23-14.22-10.7c-1.89-1.36-3.84-0.93-5.03,0.72c-1.18,1.64-0.91,3.47,0.94,4.99c1.92,1.58,3.97,3.01,5.96,4.52
			C223.23,147.75,224.51,148.75,226.03,149.92z M192.93,160.33c-0.02,1.76,0.72,3.04,2.34,3.65c1.65,0.62,3.05,0.09,4.04-1.32
			c0.4-0.57,0.64-1.27,0.87-1.94c2.11-6.29,4.23-12.57,6.29-18.87c1.05-3.21,0.37-5.21-1.86-5.92c-2.17-0.69-3.86,0.6-4.95,3.84
			c-2.01,5.95-4,11.9-5.99,17.85C193.38,158.52,193.17,159.44,192.93,160.33z"/>
		<path d="M110.69,135.69c-1.31,0-2.62,0.1-3.91-0.02c-3.85-0.34-6.66-3.31-6.72-7.01c-0.06-3.86,2.8-6.96,6.86-7.2
			c2.6-0.15,5.23-0.16,7.83,0.01c3.85,0.26,6.66,3.29,6.72,6.98c0.06,3.84-2.83,6.91-6.86,7.22
			C113.3,135.79,111.99,135.7,110.69,135.69C110.69,135.7,110.69,135.7,110.69,135.69z"/>
		<path d="M289.11,135.69c-1.31,0-2.62,0.11-3.91-0.02c-3.83-0.37-6.62-3.41-6.62-7.1c0-3.73,2.74-6.8,6.6-7.08
			c2.71-0.2,5.47-0.19,8.18,0c3.83,0.27,6.62,3.38,6.62,7.07c0,3.7-2.77,6.74-6.6,7.1C291.97,135.8,290.53,135.69,289.11,135.69z"/>
		<path d="M110.48,157.13c-1.19,0-2.38,0.08-3.56-0.01c-4.03-0.31-6.92-3.39-6.87-7.22c0.06-3.73,2.81-6.72,6.71-6.99
			c2.6-0.18,5.23-0.16,7.83-0.01c4.02,0.23,6.93,3.38,6.87,7.2c-0.05,3.7-2.85,6.67-6.71,7.01
			C113.34,157.22,111.91,157.12,110.48,157.13C110.48,157.12,110.48,157.12,110.48,157.13z"/>
		<path d="M289.03,157.11c-1.31,0-2.62,0.11-3.91-0.02c-3.81-0.39-6.58-3.48-6.54-7.17c0.04-3.73,2.8-6.75,6.67-7.01
			c2.72-0.18,5.47-0.19,8.18,0.01c3.81,0.29,6.59,3.45,6.55,7.14c-0.04,3.7-2.83,6.69-6.68,7.04
			C291.89,157.22,290.46,157.12,289.03,157.11C289.03,157.11,289.03,157.11,289.03,157.11z"/>
		<path d="M110.7,178.52c-1.42,0-2.86,0.14-4.27-0.03c-3.64-0.42-6.32-3.42-6.38-6.96c-0.06-3.72,2.65-6.89,6.49-7.18
			c2.83-0.22,5.71-0.22,8.54,0.01c3.64,0.3,6.32,3.39,6.38,6.94c0.07,3.69-2.69,6.81-6.49,7.21
			C113.56,178.65,112.13,178.53,110.7,178.52C110.7,178.53,110.7,178.52,110.7,178.52z"/>
		<path d="M289.11,178.53c-1.31,0-2.62,0.11-3.91-0.02c-3.83-0.37-6.62-3.41-6.62-7.1c0-3.73,2.73-6.8,6.6-7.08
			c2.71-0.2,5.47-0.19,8.18,0c3.83,0.27,6.62,3.38,6.62,7.07c0.01,3.7-2.77,6.74-6.6,7.11
			C291.97,178.65,290.54,178.53,289.11,178.53z"/>
		<path d="M150.21,121.45c-1.97,4.87-3.78,9.35-5.76,14.24c-2.92,0-6.11,0.17-9.28-0.04c-3.82-0.26-6.6-3.47-6.55-7.16
			c0.05-3.74,2.82-6.83,6.72-6.98C140.2,121.3,145.07,121.45,150.21,121.45z"/>
		<path d="M255.61,135.7c-1.96-4.82-3.78-9.31-5.8-14.28c1.65,0,3.23,0,4.8,0c3.33,0.01,6.67-0.12,9.99,0.06
			c4.02,0.22,6.92,3.44,6.82,7.27c-0.1,3.71-2.91,6.7-6.81,6.92C261.65,135.84,258.68,135.7,255.61,135.7z"/>
		<path d="M150.24,178.55c-5.08,0-9.96,0.14-14.81-0.04c-4.03-0.16-6.91-3.44-6.8-7.28c0.11-3.73,2.9-6.68,6.82-6.9
			c2.96-0.16,5.93-0.03,8.96-0.03C146.31,168.95,148.18,173.52,150.24,178.55z"/>
		<path d="M255.59,164.28c2.98,0,5.95-0.12,8.91,0.03c4.05,0.21,6.96,3.34,6.92,7.17c-0.04,3.85-2.96,6.91-7.06,7.04
			c-4.74,0.15-9.5,0.03-14.52,0.03C251.76,173.79,253.59,169.25,255.59,164.28z"/>
		<path d="M143.12,142.84c0,5.03,0,9.49,0,14.21c-2.8,0-5.63,0.24-8.41-0.06c-3.6-0.38-6.16-3.63-6.09-7.15
			c0.08-3.57,2.71-6.51,6.37-6.92c1.52-0.17,3.07-0.06,4.61-0.07C140.76,142.84,141.92,142.84,143.12,142.84z"/>
		<path d="M256.92,157.06c0-4.73,0-9.18,0-14.09c2.93-0.19,6.08-0.48,9.16,0.18c3.27,0.69,5.44,3.79,5.34,7.06
			c-0.11,3.4-2.62,6.44-6.09,6.79C262.55,157.28,259.71,157.06,256.92,157.06z"/>
	</g>
</g>
</svg>
