<?xml version="1.0" encoding="utf-8"?>
<!-- Generator: Adobe Illustrator 27.8.0, SVG Export Plug-In . SVG Version: 6.00 Build 0)  -->
<svg version="1.1" id="Layer_1" xmlns="http://www.w3.org/2000/svg" xmlns:xlink="http://www.w3.org/1999/xlink" x="0px" y="0px"
	 viewBox="0 0 400 400" style="enable-background:new 0 0 400 400;" xml:space="preserve">
<style type="text/css">
	.st0{fill:url(#SVGID_1_);}
	.st1{fill:url(#SVGID_00000047032561799199917550000015872055693280632507_);}
	.st2{fill:url(#SVGID_00000098213165808042365910000006065805207424665508_);}
	.st3{fill:url(#SVGID_00000016060536333065433520000004494284377597798532_);}
	.st4{fill:url(#SVGID_00000052071638264363797350000006636529802022444161_);}
	.st5{fill:url(#SVGID_00000031167300957222725700000016572133773957021077_);}
	.st6{fill:#EFDF00;}
	.st7{fill:#666666;}
	.st8{fill:#A39300;}
	.st9{fill:#D0C200;}
	.st10{fill:#00514D;}
	.st11{fill:#DD7901;}
</style>
<g>
	<linearGradient id="SVGID_1_" gradientUnits="userSpaceOnUse" x1="200" y1="0" x2="200" y2="400">
		<stop  offset="0" style="stop-color:#EFDF00"/>
		<stop  offset="0.2805" style="stop-color:#E0D100"/>
		<stop  offset="0.6415" style="stop-color:#D4C600"/>
		<stop  offset="1" style="stop-color:#D0C200"/>
	</linearGradient>
	<circle class="st0" cx="200" cy="200" r="200"/>
	<g>
		<path d="M131.18,133.16c13.28-19.86,31.91-28.13,55.97-25.92c-2.67,7.34-2.54,14.41,0.9,21.71c6.34-3.76,12.64-7.5,18.81-11.16
			c8.88,1.73,16.75,10.19,17.15,19.95c0.45,11-0.26,22.04-0.54,33.07c-0.03,1.25-0.57,2.48-0.94,4.01c-1.9-0.72-3.55-1.35-5.5-2.09
			c0-2.13,0.02-4.18,0-6.23c-0.1-6.91-4.01-10.91-10.87-10.96c-10-0.06-20-0.02-29.83-0.02c-9.09-9.4-19.57-9.18-28.3,0.01
			c-10,0-20.26-0.05-30.51,0.02c-4.95,0.03-8.63,2.79-9.88,7.26c-0.31,1.1-0.35,2.3-0.38,3.46c-0.06,2.07-0.02,4.14-0.02,6.36
			c-1.12,0.39-2.04,0.72-2.94,1.04c-0.42-0.44-0.82-0.67-0.91-0.99c-1.01-3.61-2.68-7.22-2.8-10.87c-0.3-9.05-1-18.31,0.51-27.13
			c2.19-12.76,10.85-20.88,23.07-25.08c0.58-0.2,1.24-0.18,2.35-0.33C123.67,118.14,124.83,126.04,131.18,133.16z"/>
		<path d="M210.09,111.29c0-2.19-0.06-4.38,0.01-6.57c0.13-3.49,1.27-4.67,4.75-4.69c8.31-0.06,16.62-0.02,24.94-0.02
			c18.05,0,36.11-0.01,54.16,0c5.36,0,6.03,0.67,6.03,6.08c0.01,19.22,0.01,38.45-0.01,57.67c0,4.43-0.85,5.33-5.21,5.33
			c-20.39,0.03-40.78,0.02-61.17,0c-0.88,0-1.77-0.16-2.94-0.27c0-1.25,0-2.36,0-3.48c-0.04-9.34,0.41-18.72-0.23-28.02
			c-0.79-11.42-7.1-19.49-17.31-24.55C212.21,112.33,211.29,111.88,210.09,111.29z M241.61,110.85c0,16.08,0,31.47,0,47.45
			c13.6-7.93,26.84-15.65,40.66-23.72C268.53,126.56,255.37,118.88,241.61,110.85z"/>
		<path d="M113.88,175.86c11.78,0,23.06,0,34.35,0c9.91,10.1,20.31,7.91,27.64,0.06c11.3,0,22.67,0,34.26,0
			c0.11,0.92,0.28,1.67,0.29,2.41c0.02,8.05,0.07,16.11,0,24.16c-0.05,5.4-2.5,7.86-7.87,7.91c-7.66,0.07-15.33-0.03-22.99,0.04
			c-3.53,0.03-5.92-1.51-7.44-4.62c-1.42-2.91-2.9-5.79-4.41-8.8c-3.67,0-7.27,0-11.11,0c-1.51,2.97-3.06,5.95-4.55,8.95
			c-1.47,2.96-3.76,4.48-7.13,4.46c-7.92-0.05-15.85,0.05-23.77-0.04c-4.21-0.05-7.08-2.25-7.18-6.12
			C113.71,194.95,113.88,185.62,113.88,175.86z M196.23,193.12c0.01-3.81-2.8-6.61-6.59-6.6c-3.73,0.01-6.68,2.95-6.67,6.62
			c0.02,3.59,3.12,6.7,6.69,6.7C193.31,199.84,196.22,196.86,196.23,193.12z M134.4,186.53c-3.75,0.09-6.55,3.05-6.43,6.8
			c0.12,3.67,3.24,6.65,6.82,6.51c3.57-0.13,6.62-3.36,6.51-6.91C141.19,189.29,138.11,186.44,134.4,186.53z"/>
		<path d="M198.67,217.01c-4.81,0.14-9.64-0.32-14.41,0.11c-9.46,0.86-16.25-2.31-19.58-11.58c-0.01-0.02-0.02-0.05-0.02-0.08h-5.04
			c-0.53,1.01-1,1.91-1.43,2.84c-2.83,6.08-7.59,9.01-14.28,8.74c-9.88-0.39-19.82,1.03-29.76-1.13c0,1.08-0.1,1.99,0.02,2.86
			c1.79,13.21,13.64,25.08,26.96,25.73c13.6,0.66,27.27,0.71,40.87,0.09c12.2-0.55,20.78-7.43,25.81-18.46
			c1.4-3.1,1.94-6.59,2.9-9.98C206.1,216.5,202.39,216.91,198.67,217.01z M162.86,237.55c-8.14,0.27-14.45-4.06-17.3-12.15
			c1.75-0.66,3.5-1.32,5.59-2.11c2.28,4.4,5.45,7.77,10.66,7.86c5.23,0.09,8.73-2.76,11.12-7.87c2.1,0.74,3.9,1.37,5.69,2
			C176.54,232.61,170.44,237.31,162.86,237.55z"/>
		<path d="M296.43,265.62c0,11.45,0,22.68,0,34.13c-2.28,0-4.3,0-6.85,0c0-6.54,0-13.08,0-19.95c-7.04,0-13.56,0-20.46,0
			c0,6.58,0,13.05,0,19.84c-10.54,0-20.72,0-31.2,0c0-11.23,0-22.47,0-34.02C257.42,265.62,276.81,265.62,296.43,265.62z
			 M258.23,276.07c-4.43,0-8.53,0-12.93,0c0,4.4,0,8.6,0,13.08c4.38,0,8.58,0,12.93,0C258.23,284.74,258.23,280.61,258.23,276.07z"
			/>
		<path d="M170.78,279.15c9.85,0,19.29,0,29.05,0c0,6.87,0,13.54,0,20.59c-1.02,0.08-2.13,0.24-3.25,0.24
			c-6.76,0.02-13.51,0.04-20.27,0.01c-17.26-0.08-30.7-12.83-31.62-30.05c-0.15-2.72-0.18-5.47,0.01-8.18
			c0.43-5.99,5.05-10.38,10.64-10.31c5.81,0.08,10.22,4.69,10.42,10.91c0,0.13-0.01,0.26,0,0.39c0.55,7.67,0.3,15.12-6.58,20.97
			c2.09,1.46,3.71,2.59,5.65,3.95C166.89,284.73,168.79,282,170.78,279.15z"/>
		<path d="M230.76,227.91c2.9-1.15,4.42-0.13,5.87,1.35c7.06,7.21,6.31,19.26-1.64,25.56c-1.12,0.88-2.34,1.64-3.75,2.61
			c0,6.59,0,13.33,0,20.44c-2.71-0.85-5.1-1.59-7.48-2.34c0.36-0.34,0.73-0.69,1.09-1.03c-2.09-2.07-4.19-4.13-6.28-6.2
			c-0.47,0.38-0.94,0.75-1.4,1.13c0-4,0-8,0-11.93c-1.29-0.86-2.4-1.53-3.43-2.29c-8.3-6.17-9.37-18.33-2.29-25.78
			c1.97-2.07,2.2-2.15,5.9-1.69c0,1.97-0.07,4.02,0.01,6.07c0.18,4.27,2.84,7.2,6.57,7.33c3.5,0.12,6.34-2.54,6.8-6.66
			C230.95,232.33,230.76,230.12,230.76,227.91z"/>
		<path d="M237.88,203.42c0-2.49,0-4.51,0-6.82c20.71,0,41.15,0,61.85,0c0,2.28,0,4.41,0,6.82
			C279.17,203.42,258.72,203.42,237.88,203.42z"/>
		<path d="M283.99,258.52c-7.69,0-15.47,0-23.2,0c-3.79-5.25-3-12.25,1.86-16.91c5.07-4.86,13.11-5.17,18.51-0.7
			C286.47,245.28,287.68,252.56,283.99,258.52z"/>
		<path d="M299.81,182.97c0,2.24,0,4.27,0,6.62c-15.96,0-31.83,0-48.04,0c0-2.1,0-4.2,0-6.62
			C267.62,182.97,283.49,182.97,299.81,182.97z"/>
		<path d="M206.99,296.61c0-5.65,0-10.81,0-16.17c2.24-1.91,3.58-5.56,7.67-4.67c2,0.43,2.48,1.67,2.92,6.76
			c1.95,0,3.97-0.08,5.98,0.02c3.04,0.16,4.15,1.46,4.03,4.47c-0.2,4.91-4.18,9.04-9.64,9.53
			C214.48,296.86,210.98,296.61,206.99,296.61z"/>
		<path d="M258.55,217.06c0-2.31,0-4.34,0-6.67c13.71,0,27.27,0,41.13,0c0,2.15,0,4.27,0,6.67
			C286.11,217.06,272.55,217.06,258.55,217.06z"/>
		<path d="M114.1,168.75c-0.62-5.66,0.38-6.87,5.62-6.9c7.25-0.04,14.49-0.02,21.74,0c1.13,0,2.26,0.16,3.58,0.26
			c0,2.24,0,4.25,0,6.64C134.81,168.75,124.56,168.75,114.1,168.75z"/>
		<path d="M179.08,168.86c0-2.4,0-4.33,0-6.67c1.14-0.12,2.24-0.33,3.35-0.33c7.41-0.03,14.82-0.05,22.23,0
			c5.16,0.03,6.23,1.42,5.31,7.01C199.81,168.86,189.62,168.86,179.08,168.86z"/>
		<path d="M171.69,255.32c7.88,2.94,12.49,8.44,14.43,16.91c-4.68,0-8.97,0-13.47,0C172.33,266.69,172.03,261.31,171.69,255.32z"/>
		<path d="M107.11,180.28c0,6.41,0,12.48,0,18.57c-4.08-0.8-6.8-4.09-7.07-8.43C99.73,185.57,102.19,181.88,107.11,180.28z"/>
		<path d="M217.29,199.04c0-6.22,0-12.35,0-18.5c3.9,0.71,6.66,4.07,6.96,8.41C224.57,193.6,222.05,197.36,217.29,199.04z"/>
		<path d="M251.39,217.14c-4.51,0-8.84,0-13.47,0c0-2.26,0-4.37,0-6.77c4.5,0,8.8,0,13.47,0
			C251.39,212.48,251.39,214.58,251.39,217.14z"/>
		<path d="M282.56,286.1c0,4.55,0,8.9,0,13.57c-2.12,0-4.25,0-6.68,0c0-4.38,0-8.83,0-13.57C278.09,286.1,280.2,286.1,282.56,286.1z
			"/>
		<path d="M244.69,189.71c-2.43,0-4.44,0-6.77,0c0-2.29,0-4.4,0-6.78c2.24,0,4.36,0,6.77,0C244.69,185.1,244.69,187.2,244.69,189.71
			z"/>
		<path d="M162.16,155.1c-5.72-0.02-10.49,4.63-10.57,10.32c-0.08,5.7,4.55,10.45,10.3,10.55c5.79,0.1,10.56-4.36,10.79-10.08
			C172.9,160.13,168.03,155.13,162.16,155.1z M162.07,168.27c-1.5-0.03-2.71-1.27-2.69-2.76c0.02-1.49,1.27-2.71,2.76-2.7
			c1.53,0.01,2.81,1.32,2.75,2.82C164.83,167.13,163.58,168.3,162.07,168.27z"/>
	</g>
</g>
</svg>
