<?xml version="1.0" encoding="utf-8"?>
<!-- Generator: Adobe Illustrator 27.8.0, SVG Export Plug-In . SVG Version: 6.00 Build 0)  -->
<svg version="1.1" id="Layer_1" xmlns="http://www.w3.org/2000/svg" xmlns:xlink="http://www.w3.org/1999/xlink" x="0px" y="0px"
	 viewBox="0 0 400 400" style="enable-background:new 0 0 400 400;" xml:space="preserve">
<style type="text/css">
	.st0{fill:url(#SVGID_1_);}
	.st1{fill:url(#SVGID_00000049218770734248427460000013549717058786043546_);}
	.st2{fill:url(#SVGID_00000117651553546409166760000010317952982460682427_);}
	.st3{fill:url(#SVGID_00000120517605045206692590000017889684703473338766_);}
	.st4{fill:url(#SVGID_00000064349059289756443760000003469131147151830165_);}
	.st5{fill:url(#SVGID_00000070814113970989893740000001199298628344093081_);}
	.st6{fill:#EFDF00;}
	.st7{fill:#666666;}
	.st8{fill:#A39300;}
	.st9{fill:#D0C200;}
	.st10{fill:#00514D;}
	.st11{fill:#DD7901;}
</style>
<g>
	<linearGradient id="SVGID_1_" gradientUnits="userSpaceOnUse" x1="200" y1="0" x2="200" y2="400">
		<stop  offset="0" style="stop-color:#EFDF00"/>
		<stop  offset="0.2805" style="stop-color:#E0D100"/>
		<stop  offset="0.6415" style="stop-color:#D4C600"/>
		<stop  offset="1" style="stop-color:#D0C200"/>
	</linearGradient>
	<circle class="st0" cx="200" cy="200" r="200"/>
	<g>
		<path d="M147.84,192.84c3.69,0,7.38,0.05,11.07-0.01c5.67-0.09,10.43,1.9,14.37,5.97c1.98,2.05,4.1,3.98,6.04,6.07
			c1.48,1.6,3.14,2.3,5.34,2.28c10.23-0.08,20.46-0.08,30.7,0c2.2,0.02,3.87-0.66,5.36-2.25c2.11-2.26,4.35-4.4,6.55-6.57
			c3.74-3.69,8.23-5.51,13.49-5.5c6.78,0.02,13.58,0.28,20.34-0.06c10.66-0.53,18.48,4.26,24.76,12.31
			c5.87,7.53,9.49,16.16,11.7,25.37c3.79,15.77,3.6,31.35-3.08,46.43c-3.85,8.69-9.42,15.97-18.23,20.22
			c-9.11,4.39-17.97,3.82-26.33-1.91c-8.16-5.6-13.41-13.36-16.16-22.81c-1.22-4.19-3.01-7.97-6.17-11.06
			c-2.85-2.8-6.17-4.25-10.23-4.23c-10.95,0.07-21.89,0.02-32.84,0.02c-8.58,0-14.26,4-17.22,12.19c-0.85,2.34-1.44,4.78-2.35,7.09
			c-2.53,6.42-6.42,11.91-11.64,16.43c-10.44,9.05-23.62,9.52-34.65,1.17c-7.16-5.41-11.94-12.64-14.64-21.05
			c-7.69-23.95-4.33-46.49,9.81-67.22c5.97-8.75,14.37-13.69,25.46-12.92C142.11,193.01,144.98,192.84,147.84,192.84z
			 M142.88,228.57c0-3.91,0.05-7.23-0.02-10.55c-0.04-2.04-1.16-3.65-3.17-3.55c-1.25,0.06-2.62,1.23-3.57,2.25
			c-0.51,0.54-0.31,1.81-0.32,2.75c-0.03,2.93-0.01,5.86-0.01,9.11c-3.8,0-7.21-0.06-10.62,0.02c-2.04,0.05-3.41,1.2-3.57,3.26
			c-0.16,2.06,1.04,3.35,3.05,3.72c0.92,0.17,1.89,0.09,2.84,0.09c2.69,0.01,5.37,0,8.32,0c0,3.87-0.08,7.29,0.03,10.71
			c0.06,2.04,1.27,3.3,3.33,3.5c1.92,0.19,3.45-1.28,3.69-3.52c0.12-1.18,0.04-2.37,0.04-3.56c0-2.32,0-4.64,0-7.14
			c3.71,0,6.9,0.07,10.09-0.02c2.63-0.07,4.09-1.38,4.14-3.46c0.05-2.08-1.42-3.52-3.98-3.6
			C149.85,228.49,146.55,228.57,142.88,228.57z M257.24,221.38c3.81-0.07,7.01-3.33,6.99-7.14c-0.02-3.95-3.47-7.25-7.4-7.08
			c-3.84,0.17-6.93,3.49-6.81,7.31C250.14,218.29,253.44,221.45,257.24,221.38z M242.88,235.66c3.81-0.02,7.04-3.24,7.07-7.05
			c0.03-3.95-3.38-7.29-7.32-7.16c-3.82,0.12-6.97,3.42-6.9,7.23C235.82,232.48,239.08,235.68,242.88,235.66z M278.51,228.47
			c-0.04-3.82-3.28-7.02-7.09-7.03c-3.84-0.01-7.06,3.16-7.12,7c-0.06,3.95,3.32,7.31,7.27,7.21
			C275.38,235.56,278.56,232.28,278.51,228.47z M264.23,242.81c-0.01-3.82-3.22-7.05-7.04-7.09c-3.83-0.04-7.08,3.11-7.18,6.95
			c-0.09,3.95,3.27,7.33,7.21,7.27C261.05,249.87,264.25,246.61,264.23,242.81z"/>
		<path d="M192.89,178.59c0,4.52-0.07,8.55,0.02,12.58c0.08,3.6-0.79,6.64-4.37,8.19c-3.78,1.64-6.59-0.08-9.18-2.72
			c-5.25-5.34-10.63-10.55-15.83-15.94c-1.54-1.6-3.13-2.17-5.32-2.15c-12.24,0.09-24.49,0.12-36.74,0.01
			c-9.48-0.08-17.26-5.7-20.23-14.63c-0.77-2.32-1.11-4.88-1.13-7.33c-0.11-11.53-0.11-23.06-0.04-34.6
			c0.08-12.64,9.21-21.89,21.79-21.93c25.92-0.08,51.84-0.08,77.75,0c12.6,0.04,21.72,9.26,21.81,21.91
			c0.08,11.53,0.07,23.07,0,34.6c-0.08,12.82-9.23,21.89-22.09,22.02C197.34,178.6,195.34,178.59,192.89,178.59z M122.79,139.28
			c5.95-5.87,11.52-11.36,17.07-16.87c0.84-0.83,1.69-1.68,2.37-2.63c1.05-1.45,0.83-3-0.35-4.24c-1.29-1.36-2.89-1.61-4.51-0.51
			c-0.68,0.46-1.27,1.06-1.86,1.64c-6.3,6.29-12.61,12.58-18.89,18.9c-3.06,3.07-3.07,4.39-0.07,7.41
			c6.36,6.4,12.75,12.78,19.14,19.15c0.58,0.58,1.2,1.15,1.9,1.59c1.53,0.96,3.02,0.65,4.21-0.56c1.19-1.22,1.48-2.73,0.47-4.22
			c-0.59-0.87-1.35-1.65-2.1-2.4C134.56,150.93,128.9,145.34,122.79,139.28z M198.55,139.12c-1.17,1.25-1.95,2.12-2.77,2.95
			c-4.86,4.88-9.74,9.74-14.6,14.63c-0.75,0.75-1.8,1.52-1.98,2.43c-0.24,1.24-0.18,2.87,0.46,3.89c0.87,1.38,2.57,1.71,4.11,0.76
			c0.89-0.55,1.68-1.3,2.43-2.05c5.56-5.53,11.1-11.07,16.64-16.61c5.8-5.81,5.8-5.82-0.12-11.74c-5.88-5.88-11.74-11.78-17.67-17.6
			c-1.87-1.83-3.88-1.85-5.36-0.36c-1.48,1.49-1.37,3.41,0.36,5.37c0.55,0.62,1.16,1.19,1.76,1.77
			C187.29,127.99,192.77,133.41,198.55,139.12z M149.82,161c0.8,0.87,1.63,2.35,2.89,3.01c1.5,0.79,3.01-0.04,3.9-1.55
			c0.42-0.71,0.7-1.51,0.96-2.29c3.97-11.91,7.93-23.82,11.89-35.74c0.63-1.91,1.39-3.8,1.84-5.75c0.47-2.02-0.5-3.53-2.46-4.14
			c-1.84-0.57-3.25,0.24-4.12,1.91c-0.33,0.63-0.55,1.31-0.78,1.99c-4.08,12.25-8.16,24.5-12.23,36.75
			C151.15,156.88,150.61,158.57,149.82,161z"/>
		<path d="M259.42,142.87c-11.6-4.23-18.13-13.86-16.33-24.55c1.82-10.79,10.61-18.33,21.31-18.28
			c10.67,0.06,19.47,7.72,21.08,18.54c1.34,8.99-3.45,20.28-16.27,23.81c3.65,0.64,7.49,0.9,11.07,2.01
			c11.64,3.62,19.43,14.29,19.69,26.48c0.05,2.38,0.06,4.76,0,7.13c-0.12,4.78-2.81,7.67-7.5,7.69
			c-18.78,0.07-37.57,0.06-56.35,0.01c-3.95-0.01-7.1-2.33-7.36-5.88c-0.48-6.75-0.8-13.59,2.27-19.95
			c5.15-10.69,13.69-16.37,25.56-16.99C257.52,142.83,258.47,142.87,259.42,142.87z"/>
	</g>
</g>
</svg>
