<?xml version="1.0" encoding="utf-8"?>
<!-- Generator: Adobe Illustrator 27.8.0, SVG Export Plug-In . SVG Version: 6.00 Build 0)  -->
<svg version="1.1" id="Layer_1" xmlns="http://www.w3.org/2000/svg" xmlns:xlink="http://www.w3.org/1999/xlink" x="0px" y="0px"
	 viewBox="0 0 400 400" style="enable-background:new 0 0 400 400;" xml:space="preserve">
<style type="text/css">
	.st0{fill:url(#SVGID_1_);}
	.st1{fill:url(#SVGID_00000107580247793739654090000012817956181342856368_);}
	.st2{fill:url(#SVGID_00000160151460700795851270000017786111098326149534_);}
	.st3{fill:url(#SVGID_00000167384074463062786840000009914543091232113818_);}
	.st4{fill:url(#SVGID_00000162335130791352358010000009019579337239330990_);}
	.st5{fill:url(#SVGID_00000069385065058173185830000015364911592905028285_);}
	.st6{fill:url(#SVGID_00000010302813724518311390000002343535878538872983_);}
	.st7{fill:url(#SVGID_00000155861159977565862500000015506539669664853391_);}
	.st8{fill:url(#SVGID_00000033337840937112926890000008622887146915474833_);}
</style>
<g>
	<linearGradient id="SVGID_1_" gradientUnits="userSpaceOnUse" x1="200" y1="0" x2="200" y2="400">
		<stop  offset="0" style="stop-color:#EFDF00"/>
		<stop  offset="0.2805" style="stop-color:#E0D100"/>
		<stop  offset="0.6415" style="stop-color:#D4C600"/>
		<stop  offset="1" style="stop-color:#D0C200"/>
	</linearGradient>
	<circle class="st0" cx="200" cy="200" r="200"/>
	<g>
		<path d="M203.86,90c7.28,2.94,5.43,9.24,5.56,15.09c-0.83,0.05-1.58,0.12-2.33,0.12c-4.08,0.01-8.16-0.03-12.24,0.02
			c-2.66,0.03-4.33,1.56-4.31,3.76c0.03,2.19,1.76,3.73,4.37,3.75c4.78,0.04,9.56,0.01,14.44,0.01c0,2.61,0,5,0,7.67
			c-2.34,0-4.61-0.02-6.88,0.01c-2.76,0.03-4.26,1.36-4.26,3.7c0,2.34,1.53,3.68,4.26,3.72c2.08,0.02,4.15,0.02,6.23,0.03
			c0.14,0,0.27,0.06,0.59,0.13c0,2.4,0,4.85,0,7.53c-4.88,0-9.72,0-14.57,0c-1.93,0-3.57,0.8-3.87,2.68
			c-0.19,1.21,0.32,2.81,1.08,3.8c0.55,0.71,2.03,0.94,3.11,0.97c3.93,0.11,7.87,0.04,11.81,0.05c0.78,0,1.55,0,2.47,0
			c0,2.58,0,4.97,0,7.67c-1.99,0-3.97,0-5.94,0c-3.52,0.01-5.15,1.19-5.17,3.73c-0.02,2.55,1.67,3.81,5.09,3.83
			c1.86,0.01,3.72,0.03,5.58,0.05c0.12,0,0.25,0.11,0.47,0.22c0,2.35,0,4.75,0,7.4c-4.09,0-8.08,0-12.07,0c-1,0-2.01-0.03-3.01,0.03
			c-2.19,0.12-3.72,1.62-3.74,3.63c-0.03,2.05,1.61,3.73,3.86,3.76c4.15,0.06,8.3,0.02,12.46,0.02c0.77,0,1.55,0,2.46,0
			c0,2.56,0,4.96,0,7.68c-2.22,0-4.48-0.02-6.74,0c-2.73,0.02-4.32,1.36-4.37,3.64c-0.05,2.44,1.45,3.77,4.38,3.81
			c2.2,0.03,4.41,0.01,6.74,0.01c0,2.61,0,5,0,7.68c-4.38,0-8.72-0.01-13.06,0.01c-0.93,0-1.87,0-2.77,0.18
			c-1.85,0.38-2.88,1.67-2.92,3.48c-0.05,1.92,0.97,3.34,2.92,3.68c1.46,0.25,2.99,0.19,4.49,0.2c3.72,0.02,7.44,0.01,11.31,0.01
			c0,2.51,0,4.91,0,7.68c-2.13,0-4.31-0.02-6.5,0c-3.12,0.03-4.65,1.32-4.59,3.81c0.05,2.34,1.66,3.63,4.58,3.65
			c2.13,0.01,4.27,0,6.54,0c0,2.57,0,4.97,0,7.68c-1.82,0-3.65,0-5.48,0c-3.08,0-6.16-0.03-9.24,0.01c-2.41,0.03-4.1,1.64-4.07,3.77
			c0.03,2.09,1.6,3.6,3.96,3.64c4.15,0.06,8.3,0.02,12.46,0.03c0.77,0,1.53,0,2.4,0c0,2.65,0,5.05,0,7.67c-2.3,0-4.5-0.02-6.7,0.01
			c-2.84,0.04-4.46,1.46-4.44,3.82c0.02,2.3,1.55,3.66,4.31,3.73c2.21,0.05,4.42,0.01,6.79,0.01c0,2.54,0,4.94,0,7.67
			c-1.45,0-2.92,0-4.39,0c-3.51,0.01-7.02-0.05-10.52,0.05c-2.34,0.06-3.89,1.68-3.85,3.74c0.04,2.04,1.68,3.67,3.96,3.69
			c4.87,0.06,9.73,0.02,14.96,0.02c0,0.75,0,1.43,0,2.1c0,11.67,0.01,23.34,0,35.01c-0.01,5.53-2.94,8.41-8.52,8.41
			c-7.16,0-14.32,0.01-21.48,0c-4.71-0.01-7.76-3.02-7.9-7.74c-0.02-0.64-0.01-1.29-0.01-1.93c0-66.87,0.03-133.74-0.06-200.61
			c-0.01-4.63,1.39-7.89,5.74-9.68C186.1,90,194.98,90,203.86,90z M190.62,275.95c-6.38-0.03-11.33,4.82-11.38,11.16
			c-0.05,6.37,4.83,11.33,11.17,11.38c6.37,0.04,11.35-4.84,11.38-11.16C201.82,280.95,196.94,275.98,190.62,275.95z"/>
		<path d="M228.51,275.95c0-2.67,0-5.06,0-7.69c2.29,0,4.49,0.02,6.69-0.01c2.85-0.03,4.51-1.43,4.53-3.75
			c0.02-2.33-1.62-3.75-4.48-3.8c-2.2-0.04-4.41-0.01-6.74-0.01c0-2.61,0-5.01,0-7.68c2.35,0,4.62,0.04,6.89-0.01
			c2.74-0.06,4.31-1.44,4.32-3.7c0.01-2.34-1.66-3.76-4.48-3.79c-2.2-0.02-4.41,0-6.74,0c0-2.58,0-4.98,0-7.68
			c2.3,0,4.57,0.01,6.83,0c2.72-0.02,4.33-1.36,4.39-3.62c0.06-2.34-1.59-3.77-4.42-3.8c-2.21-0.02-4.41,0-6.77,0
			c0-2.58,0-4.97,0-7.67c2.38,0,4.79,0.06,7.19-0.02c2.83-0.1,4.48-2.15,3.86-4.69c-0.48-1.97-1.91-2.75-3.81-2.81
			c-1.22-0.04-2.43-0.02-3.65-0.02c-1.14,0-2.28,0-3.58,0c0-2.55,0-4.94,0-7.67c2.35,0,4.68,0.02,7.01-0.01
			c1.87-0.02,3.38-0.69,3.99-2.61c0.8-2.57-0.91-4.81-3.8-4.91c-2.35-0.09-4.71-0.02-7.21-0.02c0-2.53,0-4.93,0-7.67
			c2.23,0,4.49,0.01,6.75,0c2.83-0.02,4.48-1.44,4.44-3.77c-0.04-2.26-1.65-3.61-4.37-3.64c-2.08-0.02-4.15-0.02-6.23-0.04
			c-0.14,0-0.27-0.07-0.43-0.11c0-4.38-0.35-8.81,0.12-13.15c0.35-3.26,2.91-5.14,6.22-5.61c3.31-0.47,5.93,0.79,7.63,3.64
			c1.28,2.14,2.3,4.44,3.42,6.67c20.21,40.45,40.4,80.91,60.62,121.35c1.09,2.17,1.82,4.33,1.1,6.79c-0.88,2.99-3.62,5.37-6.7,5.5
			c-2.64,0.11-5.29,0.02-8.27,0.02c0-2.34,0.01-4.6,0-6.86c-0.02-2.89-1.37-4.42-3.81-4.38c-2.33,0.04-3.59,1.54-3.61,4.35
			c-0.02,2.21,0,4.41,0,6.76c-2.57,0-4.96,0-7.67,0c0-2.3,0.04-4.64-0.01-6.97c-0.05-2.36-1.32-3.89-3.26-4.11
			c-2.46-0.28-4.15,1.21-4.26,3.93c-0.1,2.34-0.02,4.7-0.02,7.17c-2.6,0-5,0-7.67,0c0-2.27,0.03-4.46-0.01-6.66
			c-0.06-2.96-1.35-4.47-3.76-4.47c-2.36,0.01-3.74,1.63-3.77,4.49c-0.02,2.14,0,4.29,0,6.6c-2.53,0-4.98,0-7.67,0
			c0-2.39,0.03-4.74-0.01-7.08c-0.04-2.55-1.45-4.03-3.73-4.01c-2.28,0.02-3.63,1.5-3.67,4.08c-0.03,2.28-0.01,4.56-0.01,6.81
			c-7.07,1.67-12.68-2.03-11.33-11.13c2.48,0,5.03,0.09,7.58-0.02c2.62-0.12,4.16-2.36,3.39-4.79c-0.57-1.79-1.92-2.6-3.75-2.61
			c-2.36-0.02-4.71,0-7.24,0c0-2.51,0-4.9,0-7.69c2.37,0,4.84,0.04,7.31-0.01c2.42-0.06,3.97-1.68,3.85-3.93
			c-0.1-1.98-1.51-3.4-3.64-3.46C233.59,275.89,231.11,275.95,228.51,275.95z M251.32,287.05c8.03,0,15.96,0,24.14,0
			c-8-16.17-15.88-32.11-23.77-48.04c-0.13,0.04-0.25,0.08-0.38,0.12C251.32,255.08,251.32,271.03,251.32,287.05z"/>
		<path d="M252.3,150.54c8.03-10.23,15.81-20.13,23.59-30.03c5.57-7.09,11.18-14.16,16.68-21.3c1-1.3,2.05-1.72,3.62-1.68
			c7.17,0.19,11.95,4.9,11.98,12.09c0.05,9.67,0.04,19.33,0,29c-0.03,7.12-4.66,11.99-11.74,12.05c-14.25,0.11-28.5,0.04-42.75,0.03
			C253.35,150.7,253.01,150.62,252.3,150.54z"/>
		<path d="M122.36,155.7c2.5,2.63,4.75,4.93,6.9,7.32c0.41,0.46,0.61,1.26,0.61,1.91c0.03,21.54,0.03,43.08,0.02,64.62
			c0,3.11-1.47,4.57-4.61,4.66c-2,0.05-4.01,0.05-6.01,0c-3.25-0.08-4.69-1.53-4.7-4.79c-0.02-9.66,0.01-19.32-0.02-28.98
			c-0.01-2.96-2.13-4.75-4.67-4c-2.14,0.63-2.77,2.2-2.76,4.28c0.03,9.45,0.02,18.89,0,28.34c0,0.84-0.05,1.74-0.31,2.52
			c-0.63,1.87-2.07,2.73-3.99,2.5c-1.93-0.23-3.06-1.43-3.33-3.37c-0.05-0.35-0.03-0.71-0.03-1.07c0-23.33,0-46.66,0-69.99
			c0-0.28,0.03-0.57,0.06-1.34c2.63,1.97,5.05,3.73,7.39,5.6c0.31,0.25,0.21,1.08,0.21,1.64c0.01,4.94,0,9.88,0.01,14.81
			c0.01,2.71,1.37,4.33,3.63,4.38c2.34,0.05,3.78-1.6,3.79-4.42c0.02-4.72,0.07-9.45-0.02-14.17c-0.03-1.75,0.33-3.05,1.75-4.28
			C118.37,160.06,120.18,157.94,122.36,155.7z"/>
		<path d="M284.22,97.74c-4.37,5.58-8.51,10.86-12.65,16.13c-9.28,11.82-18.55,23.64-27.91,35.41c-0.59,0.75-1.84,1.36-2.79,1.37
			c-7.72,0.12-12.47-4.64-12.47-12.33c-0.01-9.59-0.02-19.19,0-28.78c0.01-6.97,4.64-11.88,11.6-11.94
			c14.32-0.11,28.64-0.04,42.95-0.03C283.23,97.56,283.5,97.64,284.22,97.74z M247.3,116.54c2.74,0,5.17,0.1,7.58-0.03
			c2.35-0.12,3.88-1.74,3.85-3.79c-0.02-1.98-1.5-3.63-3.71-3.7c-3.85-0.12-7.72-0.13-11.57,0.01c-2.12,0.08-3.47,1.57-3.53,3.6
			c-0.08,2.64-0.09,5.29,0,7.93c0.07,2.08,1.57,3.44,3.6,3.47c2.13,0.04,3.63-1.34,3.76-3.53
			C247.36,119.29,247.3,118.09,247.3,116.54z"/>
		<path d="M122.22,272.05c6.01,0,12.03-0.02,18.04,0.01c3.51,0.01,4.73,1.28,4.73,4.81c0.01,7.09,0.01,14.17,0,21.26
			c-0.01,4.87-2.95,8-7.81,8.03c-9.95,0.07-19.9,0.07-29.85,0c-4.85-0.04-7.85-3.17-7.86-8c-0.02-7.16-0.01-14.32,0-21.47
			c0.01-3.33,1.3-4.62,4.71-4.63C110.2,272.03,116.21,272.05,122.22,272.05z"/>
		<path d="M122.24,264.45c-8.51,0-17.02,0.01-25.53,0c-3.56,0-4.87-1.33-4.89-4.94c-0.02-4.36-0.02-8.73,0-13.09
			c0.02-3.32,1.42-4.73,4.68-4.73c17.17-0.01,34.33-0.01,51.5,0c3.25,0,4.65,1.42,4.67,4.74c0.02,4.43,0.02,8.87,0,13.3
			c-0.02,3.32-1.39,4.7-4.68,4.71C139.4,264.46,130.82,264.45,122.24,264.45z"/>
		<path d="M110.57,157.12c-3.48-2.61-6.79-5.1-10.23-7.67c1.28-2.92,2.54-5.78,3.79-8.64c2.75-6.28,5.52-12.55,8.21-18.85
			c0.51-1.21,1.12-1.75,2.51-1.73c4.94,0.08,9.88-0.02,14.81,0.09c0.78,0.02,1.96,0.64,2.26,1.29c4.12,9.18,8.12,18.42,12.23,27.83
			c-3.35,2.53-6.69,5.06-10.27,7.77c-1.99-2.07-3.87-4.13-5.86-6.08c-3.66-3.59-7.89-3.58-11.55,0.01
			C114.53,153.05,112.65,155.01,110.57,157.12z"/>
		<path d="M144.99,158.26c0,1.1,0,1.73,0,2.36c0,22.89,0,45.79,0,68.68c0,0.43,0.02,0.86-0.02,1.29c-0.19,1.97-1.29,3.17-3.21,3.46
			c-1.93,0.29-3.38-0.55-4.06-2.38c-0.31-0.84-0.36-1.81-0.36-2.73c-0.02-21.03,0-42.07-0.04-63.1c0-1.42,0.31-2.32,1.61-3.12
			C140.9,161.5,142.71,159.96,144.99,158.26z"/>
		<path d="M116.46,112.61c1.43-3.24,2.71-6.39,4.22-9.43c0.67-1.34,2.58-1.18,3.28,0.26c1.41,2.94,2.66,5.95,4.08,9.16
			C124.09,112.61,120.44,112.61,116.46,112.61z"/>
		<path d="M190.46,291.04c-2.07-0.03-3.78-1.8-3.75-3.88c0.03-2.07,1.81-3.81,3.87-3.77c2.06,0.04,3.81,1.85,3.78,3.89
			C194.31,289.33,192.51,291.07,190.46,291.04z"/>
	</g>
</g>
</svg>
