<?xml version="1.0" encoding="utf-8"?>
<!-- Generator: Adobe Illustrator 27.8.0, SVG Export Plug-In . SVG Version: 6.00 Build 0)  -->
<svg version="1.1" id="Layer_1" xmlns="http://www.w3.org/2000/svg" xmlns:xlink="http://www.w3.org/1999/xlink" x="0px" y="0px"
	 viewBox="0 0 400 400" style="enable-background:new 0 0 400 400;" xml:space="preserve">
<style type="text/css">
	.st0{fill:url(#SVGID_1_);}
	.st1{fill:url(#SVGID_00000013914254306943752810000016161912240649163677_);}
	.st2{fill:url(#SVGID_00000119797412397357660420000012442576691947504309_);}
	.st3{fill:url(#SVGID_00000062187290245677686350000014558593863509076891_);}
	.st4{fill:url(#SVGID_00000056422319670707107910000014017090611883461271_);}
	.st5{fill:url(#SVGID_00000155142720680020469130000010223328639767099786_);}
	.st6{fill:url(#SVGID_00000168106380859875843360000003220111245825400748_);}
	.st7{fill:url(#SVGID_00000170973249432011977760000015323657302646325916_);}
	.st8{fill:url(#SVGID_00000020356940064971577640000000150916489490150590_);}
</style>
<g>
	<linearGradient id="SVGID_1_" gradientUnits="userSpaceOnUse" x1="200" y1="0" x2="200" y2="400">
		<stop  offset="0" style="stop-color:#EFDF00"/>
		<stop  offset="0.2805" style="stop-color:#E0D100"/>
		<stop  offset="0.6415" style="stop-color:#D4C600"/>
		<stop  offset="1" style="stop-color:#D0C200"/>
	</linearGradient>
	<circle class="st0" cx="200" cy="200" r="200"/>
	<g>
		<path d="M212.5,231c-0.36,2.79-0.67,5.2-1.02,7.89c-0.83,0-1.65,0-2.47,0c-11.97,0-23.95-0.01-35.92,0.01
			c-2.89,0-4.86,1.85-4.61,4.22c0.24,2.29,2.04,3.6,5.05,3.6c11.28,0.01,22.57,0,33.85,0.01c0.83,0,1.65,0,3.09,0
			c-1.26,2.17-2.21,3.97-3.32,5.66c-2.62,4-0.95,8.59,3.73,9.31c8.9,1.37,17.8,1.17,26.28-2.22c8.99-3.6,14.6-9.93,14.89-20.09
			c0.01-0.22,0.11-0.44,0.17-0.71c2.11,0,4.22,0,6.47,0c0,16.93,0,33.94,0,51.13c-41.79,0-83.57,0-125.51,0
			c0-56.18,0-112.37,0-168.81c2.73,0,5.4-0.06,8.06,0.05c0.56,0.02,1.19,0.57,1.62,1.03c1.65,1.79,3.62,2.74,6.08,2.74
			c7.75-0.03,15.51,0.15,23.25-0.12c1.95-0.07,4.06-1.19,5.71-2.37c1.11-0.79,1.99-1.37,3.39-1.37c9.82,0.05,19.65,0.05,29.47,0
			c1.31-0.01,2.12,0.52,3.16,1.3c1.57,1.18,3.59,2.36,5.45,2.42c7.97,0.26,15.97,0.25,23.94,0.01c1.8-0.05,3.84-1.1,5.27-2.29
			c1.16-0.96,2.11-1.5,3.57-1.43c2.13,0.09,4.26,0.02,6.55,0.02c0.06,0.95,0.14,1.69,0.14,2.43c0.01,18.72-0.01,37.45,0.04,56.17
			c0,1.59-0.49,2.67-1.61,3.81c-4.52,4.59-8.92,9.3-13.75,14.38c-0.7-1.5-1.06-2.19-1.36-2.92c-6.02-14.65-12.02-29.32-18.05-43.97
			c-2.07-5.02-6.26-7.27-10.97-5.91c-2.94,0.85-4.81,2.86-5.94,5.65c-2.14,5.24-4.31,10.48-6.47,15.72
			c-0.28,0.69-0.61,1.36-1.1,2.45c-2.22-5.23-4.26-10.05-6.3-14.88c-1.49-3.52-3.07-7.02-4.45-10.58c-1.57-4.07-4.35-6.6-8.75-6.56
			c-4.29,0.04-6.91,2.59-8.55,6.52c-8.08,19.36-16.27,38.67-24.39,58c-0.55,1.32-1.04,2.27-2.84,2.36c-2.15,0.1-3.44,1.98-3.32,3.98
			c0.12,2.09,1.69,3.55,3.97,3.67c0.69,0.04,1.38,0.01,2.07,0.01c27.25,0,54.5,0,81.74,0c0.91,0,1.81,0,2.73,0c0,2.3,0,4.41,0,5.97
			c-3.75,1.18-7.63,1.61-10.53,3.52c-3.3,2.17-6.53,2.45-10.14,2.43c-14.81-0.06-29.63-0.02-44.44-0.02c-0.69,0-1.38-0.03-2.07,0.02
			c-2.09,0.16-3.64,1.7-3.73,3.67c-0.08,1.86,1.22,3.51,3.21,3.91c0.89,0.18,1.83,0.17,2.74,0.18c14.35,0.01,28.71,0.01,43.06,0.01
			C210.54,231,211.44,231,212.5,231z M172.46,274.31c-2.6,0-5.2-0.04-7.8,0.01c-2.3,0.05-3.89,1.5-4.05,3.56
			c-0.16,2.09,1.4,4.03,3.75,4.09c5.35,0.14,10.7,0.13,16.05-0.01c2.27-0.06,3.74-1.85,3.69-3.9c-0.05-2.18-1.65-3.69-4.08-3.74
			C177.51,274.27,174.99,274.31,172.46,274.31z M146.43,282.12c1.18-0.06,1.96-0.04,2.71-0.15c2.21-0.33,3.7-2.07,3.54-4.07
			c-0.16-2.06-1.76-3.51-4.03-3.58c-1.45-0.04-2.92-0.12-4.35,0.06c-2.01,0.25-3.13,1.59-3.25,3.56c-0.11,1.86,0.77,3.29,2.63,3.82
			C144.69,282.04,145.78,282.04,146.43,282.12z"/>
		<path d="M274.63,226.06c0,0.74,0,1.48,0,2.23c0,23.79,0,47.58,0,71.36c0,5.02-1.02,6.02-6.1,6.02c-48.5,0-97.01,0-145.51,0
			c-4.58,0-5.67-1.09-5.67-5.69c0-63.08,0-126.15,0-189.23c0-4.34,1.12-5.49,5.39-5.5c5.97-0.01,11.94,0,18.06,0
			c0,2.71,0,5.19,0,7.93c-2.54,0-4.97-0.02-7.41,0c-4.61,0.05-7.81,3.04-8.15,7.64c-0.05,0.69-0.02,1.38-0.02,2.07
			c0,55.02,0,110.04,0,165.06c0,7.04,2.84,9.86,9.94,9.86c40.75,0,81.51,0,122.26,0c4.74,0,7.68-1.78,8.8-5.51
			c0.35-1.14,0.38-2.41,0.38-3.62c0.02-17.73-0.01-35.45,0.08-53.18c0.01-1.2,0.66-2.62,1.45-3.56c1.82-2.16,3.91-4.08,5.9-6.09
			C274.22,225.91,274.42,225.98,274.63,226.06z"/>
		<path d="M267.05,220.85c-5.8-5.8-11.97-11.97-18.31-18.3c7.67-7.44,15.34-15.06,23.21-22.48c13.79-13.01,27.85-25.75,43.47-36.56
			c5.33-3.69,11.14-6.69,16.83-9.84c1.4-0.77,3.16-0.89,5.52-1.5c-0.46,2.23-0.44,3.99-1.18,5.35c-3.26,5.97-6.32,12.11-10.2,17.67
			c-12.47,17.85-27.22,33.81-42.34,49.41C278.59,210.19,272.75,215.41,267.05,220.85z"/>
		<path d="M205.72,203.41c-17.06,0-33.84,0-50.89,0c0.32-0.9,0.56-1.67,0.88-2.41c7.63-18.11,15.26-36.22,22.93-54.31
			c0.35-0.82,1.12-1.46,1.69-2.18c0.5,0.71,1.15,1.37,1.48,2.15c7.72,18.24,15.4,36.5,23.09,54.75
			C205.14,201.97,205.36,202.53,205.72,203.41z"/>
		<path d="M237.11,203.48c-6.48,0-12.75,0-19.02,0c-3.89,0-3.89,0-5.38-3.55c-2.69-6.42-5.44-12.81-8.04-19.26
			c-0.37-0.93-0.4-2.26-0.03-3.18c3.08-7.75,6.27-15.44,9.48-23.14c0.3-0.71,0.93-1.29,1.41-1.92c0.51,0.59,1.22,1.1,1.5,1.79
			c6.52,15.76,13,31.54,19.47,47.32C236.73,202.07,236.86,202.65,237.11,203.48z"/>
		<path d="M266.6,174.31c0-3.97,0-7.25,0-10.54c0-13.88,0-27.76,0-41.65c0-6.06-2.93-8.95-9.06-8.95c-2.13,0-4.25,0-6.49,0
			c-0.06-0.6-0.13-0.96-0.13-1.33c-0.01-2.06-0.01-4.12-0.01-6.35c0.68-0.09,1.26-0.23,1.84-0.23c5.68-0.02,11.35-0.04,17.03,0
			c3.4,0.02,4.82,1.35,4.82,4.73c0.04,18.48,0.02,36.97,0,55.45c0,0.65-0.09,1.51-0.5,1.91C271.82,169.6,269.43,171.72,266.6,174.31
			z"/>
		<path d="M215.58,254.5c1.08-3.27,2.3-6.24,3.01-9.32c0.63-2.74,0.81-5.61,0.98-8.43c0.49-8.1,7.07-12.75,14.89-10.35
			c5.68,1.75,9.12,5.67,9.77,11.54c0.6,5.43-1.83,9.63-6.46,12.55c-4.2,2.65-8.91,3.63-13.75,3.97
			C221.23,254.67,218.42,254.5,215.58,254.5z"/>
		<path d="M172.35,101.42c0,5.16,0,10.19,0,15.44c-7.81,0-15.57,0-23.49,0c0-5.11,0-10.2,0-15.44
			C156.64,101.42,164.35,101.42,172.35,101.42z"/>
		<path d="M242.98,116.94c-7.81,0-15.5,0-23.31,0c0-5.23,0-10.33,0-15.55c7.8,0,15.5,0,23.31,0
			C242.98,106.62,242.98,111.71,242.98,116.94z"/>
		<path d="M180.32,113c0-2.48,0-4.97,0-7.6c10.4,0,20.71,0,31.21,0c0,2.46,0,4.94,0,7.6C201.22,113,190.85,113,180.32,113z"/>
		<path d="M242.92,208.74c6.17,6.16,12.32,12.31,18.51,18.49c-3.19,4.69-7.5,5.15-11.64,1.05c-2.55-2.53-5.09-5.08-7.63-7.63
			C237.79,216.27,238.09,212.5,242.92,208.74z"/>
		<path d="M156.74,85.66c2.6,0,5.04,0,7.67,0c0,2.52,0,5,0,7.63c-2.51,0-5,0-7.67,0C156.74,90.85,156.74,88.38,156.74,85.66z"/>
		<path d="M227.49,93.27c0-2.56,0-4.98,0-7.54c2.56,0,5.04,0,7.63,0c0,2.51,0,4.93,0,7.54C232.66,93.27,230.19,93.27,227.49,93.27z"
			/>
	</g>
</g>
</svg>
