<?xml version="1.0" encoding="utf-8"?>
<!-- Generator: Adobe Illustrator 27.8.0, SVG Export Plug-In . SVG Version: 6.00 Build 0)  -->
<svg version="1.1" id="Layer_1" xmlns="http://www.w3.org/2000/svg" xmlns:xlink="http://www.w3.org/1999/xlink" x="0px" y="0px"
	 viewBox="0 0 400 400" style="enable-background:new 0 0 400 400;" xml:space="preserve">
<style type="text/css">
	.st0{fill:#FFFFFF;}
	.st1{font-family:'Poppins-Bold';}
	.st2{font-size:181.1378px;}
	.st3{fill:url(#SVGID_1_);}
	.st4{fill:url(#SVGID_00000145050587498839296320000001004964551435234951_);}
	.st5{fill:url(#SVGID_00000070813108023484772400000015210555031480157616_);}
	.st6{fill:url(#SVGID_00000114780939727161345020000004030681664950657436_);}
	.st7{fill:url(#SVGID_00000167376141823678818210000005294472439103786904_);}
	.st8{fill:url(#SVGID_00000174566641224537130700000017906510358575111082_);}
	.st9{fill:url(#SVGID_00000011739827022528069300000004958526556914918841_);}
	.st10{fill:url(#SVGID_00000118389403942941162040000013935498069877791889_);}
	.st11{fill:url(#SVGID_00000029756338944046874990000017007366878567447436_);}
</style>
<text transform="matrix(1 0 0 1 28.1787 -86.0636)" class="st0 st1 st2">Branding</text>
<g>
	<linearGradient id="SVGID_1_" gradientUnits="userSpaceOnUse" x1="200" y1="0" x2="200" y2="400">
		<stop  offset="0" style="stop-color:#EFDF00"/>
		<stop  offset="0.2805" style="stop-color:#E0D100"/>
		<stop  offset="0.6415" style="stop-color:#D4C600"/>
		<stop  offset="1" style="stop-color:#D0C200"/>
	</linearGradient>
	<circle class="st3" cx="200" cy="200" r="200"/>
	<g>
		<path d="M295.37,90c0.04,0.78,0.12,1.57,0.12,2.35c0.01,54.96,0.01,109.93,0.01,164.89c0,0.78,0,1.55,0,2.47
			c-15.39,0-30.62,0-45.99,0c0-5.2,0-10.38,0-15.76c10.19,0,20.33,0,30.65,0c0-4.36,0-8.53,0-12.88c-10.16,0-20.31,0-30.62,0
			c0-5.43,0-10.7,0-16.22c10.15,0,20.35,0,30.67,0c0-4.38,0-8.49,0-12.81c-10.26,0-20.41,0-30.84,0c0-1.04,0-1.86,0-2.69
			c0-22.36-0.02-44.72,0.04-67.07c0-1.54-0.42-2.39-1.79-3.19c-21.66-12.58-43.28-25.24-64.9-37.88c-0.61-0.35-1.16-0.8-1.73-1.21
			C219.11,90,257.24,90,295.37,90z"/>
		<path d="M155.61,90c3.1,1.89,6.17,3.82,9.3,5.65c17.34,10.16,34.69,20.29,52.04,30.43c0.49,0.29,0.97,0.59,1.86,1.12
			c-21.41,0-42.38,0-63.64,0c0-12.36,0-24.78,0-37.21C155.32,90,155.46,90,155.61,90z"/>
		<path d="M236.32,310c-13.5-15.72-26.7-31.09-39.99-46.57c7.52-8.61,10.79-18.53,9.04-29.82c-1.38-8.91-5.72-16.29-12.75-21.96
			c-14.12-11.38-34.27-10.3-47.17,2.43c-12.53,12.38-14.92,33.51-0.99,49.36c-13.2,15.38-26.42,30.78-39.96,46.55
			c0-56.78,0-113.1,0-169.56c43.87,0,87.76,0,131.82,0C236.32,196.76,236.32,253.11,236.32,310z M134.17,169.43
			c24.28,0,48.38,0,72.52,0c0-4.26,0-8.38,0-12.62c-24.21,0-48.3,0-72.52,0C134.17,161.04,134.17,165.16,134.17,169.43z"/>
		<path d="M170.41,252.92c16.33,19.02,32.55,37.91,48.98,57.05c-32.72,0-65.11,0-97.96,0C137.82,290.88,154.05,271.97,170.41,252.92
			z"/>
		<path d="M170.41,233.25c-5.87,6.82-11.59,13.48-17.33,20.15c-7.51-7.97-6.82-21.9,1.35-30.12c8.47-8.52,22.32-8.88,31.09-0.82
			c8.95,8.23,10.04,21.82,2.27,31C182.04,246.77,176.33,240.13,170.41,233.25z"/>
	</g>
</g>
</svg>
