<?xml version="1.0" encoding="utf-8"?>
<!-- Generator: Adobe Illustrator 27.8.0, SVG Export Plug-In . SVG Version: 6.00 Build 0)  -->
<svg version="1.1" id="Layer_1" xmlns="http://www.w3.org/2000/svg" xmlns:xlink="http://www.w3.org/1999/xlink" x="0px" y="0px"
	 viewBox="0 0 400 400" style="enable-background:new 0 0 400 400;" xml:space="preserve">
<style type="text/css">
	.st0{fill:#FFFFFF;}
	.st1{font-family:'Poppins-Bold';}
	.st2{font-size:181.1378px;}
	.st3{fill:url(#SVGID_1_);}
	.st4{fill:url(#SVGID_00000129904300239653988950000015440239230346878358_);}
	.st5{fill:url(#SVGID_00000118397405415569419590000008308462289182452878_);}
	.st6{fill:url(#SVGID_00000074426529767441488010000006673086674154666145_);}
	.st7{fill:url(#SVGID_00000097490095312037683330000007586225753568443029_);}
	.st8{fill:url(#SVGID_00000036959125170728155760000007750646378751711637_);}
	.st9{fill:url(#SVGID_00000116947798847781561910000001785237266686968485_);}
	.st10{fill:url(#SVGID_00000117639838515511033850000004209188668628461451_);}
	.st11{fill:url(#SVGID_00000117648321358264779580000008929256662316252032_);}
</style>
<text transform="matrix(1 0 0 1 -411.6511 -86.0636)" class="st0 st1 st2">Branding</text>
<g>
	<linearGradient id="SVGID_1_" gradientUnits="userSpaceOnUse" x1="200" y1="0" x2="200" y2="400">
		<stop  offset="0" style="stop-color:#EFDF00"/>
		<stop  offset="0.2805" style="stop-color:#E0D100"/>
		<stop  offset="0.6415" style="stop-color:#D4C600"/>
		<stop  offset="1" style="stop-color:#D0C200"/>
	</linearGradient>
	<circle class="st3" cx="200" cy="200" r="200"/>
	<g>
		<path d="M82.54,126.2c0-1.22,0-2.45,0-3.67c1.27-2.82,3.48-4.39,6.41-5.35c26.57-8.73,53.12-17.55,79.67-26.33
			c5.27-1.74,7.53-0.94,10.65,3.74c6.4,9.59,12.8,19.19,19.2,28.78c0.45,0.67,0.94,1.31,1.54,2.15c0.62-0.88,1.1-1.54,1.56-2.22
			c6.44-9.66,12.88-19.32,19.33-28.97c2.91-4.36,5.31-5.18,10.34-3.52c26.7,8.84,53.39,17.69,80.08,26.55
			c6.36,2.11,7.86,6.65,4.09,12.22c-7.76,11.44-15.5,22.9-23.32,34.3c-0.94,1.36-0.92,2.25,0.01,3.6
			c7.86,11.46,15.65,22.98,23.44,34.49c3.6,5.31,2.06,9.94-4,11.95c-26.69,8.86-53.39,17.71-80.08,26.55
			c-5.31,1.76-7.63,0.96-10.69-3.64c-6.44-9.66-12.88-19.32-19.32-28.98c-0.44-0.65-0.91-1.28-1.49-2.09
			c-7.07,10.61-13.93,20.9-20.8,31.19c-2.93,4.38-5.38,5.24-10.32,3.61c-26.63-8.81-53.25-17.64-79.89-26.4
			c-2.93-0.96-5.14-2.53-6.4-5.37c0-1.22,0-2.45,0-3.67c0.93-1.47,1.81-2.97,2.79-4.42c7.27-10.75,14.49-21.53,21.91-32.18
			c1.51-2.17,1.5-3.56,0-5.73C98.9,150.67,90.75,138.41,82.54,126.2z M260.49,165.72c-1.06-0.42-1.46-0.6-1.88-0.74
			c-19.08-6.36-38.16-12.74-57.27-19.03c-0.97-0.32-2.25-0.19-3.25,0.14c-18.66,6.17-37.31,12.41-55.95,18.64
			c-0.68,0.23-1.35,0.51-2.46,0.94c1.12,0.43,1.78,0.72,2.47,0.94c18.5,6.17,37.02,12.32,55.51,18.53c1.6,0.54,2.98,0.59,4.59,0.04
			c11.69-3.96,23.42-7.82,35.13-11.73C244.88,170.96,252.37,168.44,260.49,165.72z"/>
		<path d="M110.54,235.58c8.09,2.69,15.83,5.24,23.55,7.82c10.19,3.4,20.37,6.83,30.56,10.21c10.56,3.51,19.5,0.45,25.7-8.79
			c3.14-4.69,6.26-9.39,9.53-14.29c0.49,0.59,0.9,1,1.21,1.47c2.85,4.25,5.67,8.52,8.52,12.77c6.21,9.25,15.18,12.37,25.68,8.87
			c17.13-5.71,34.25-11.44,51.37-17.16c0.85-0.28,1.73-0.49,2.8-0.8c0,3.32,0,6.45,0,9.57c0,9.86,0.01,19.72,0,29.58
			c-0.01,4.27-1.56,6.46-5.64,7.82c-26.95,9.01-53.9,18.03-80.9,26.91c-1.81,0.6-4.17,0.56-5.99-0.04
			c-26.85-8.84-53.65-17.82-80.46-26.78c-4.42-1.48-5.92-3.54-5.92-8.08c-0.01-12.31,0-24.61,0-36.92
			C110.54,237.14,110.54,236.54,110.54,235.58z"/>
	</g>
</g>
</svg>
