<?xml version="1.0" encoding="utf-8"?>
<!-- Generator: Adobe Illustrator 27.8.0, SVG Export Plug-In . SVG Version: 6.00 Build 0)  -->
<svg version="1.1" id="Layer_1" xmlns="http://www.w3.org/2000/svg" xmlns:xlink="http://www.w3.org/1999/xlink" x="0px" y="0px"
	 viewBox="0 0 400 400" style="enable-background:new 0 0 400 400;" xml:space="preserve">
<style type="text/css">
	.st0{fill:url(#SVGID_1_);}
	.st1{fill:url(#SVGID_00000183227158072530990570000009929324279857208742_);}
	.st2{fill:url(#SVGID_00000026872337067546243700000005621468394510800011_);}
	.st3{fill:url(#SVGID_00000168091091851270331330000015347490886918551175_);}
	.st4{fill:url(#SVGID_00000175313061024659592010000008848092718979868080_);}
	.st5{fill:url(#SVGID_00000021801142425093035490000001647669686673685158_);}
	.st6{fill:url(#SVGID_00000083077003429231294150000008822966191206325181_);}
	.st7{fill:url(#SVGID_00000079471039749666148000000011491455153329874619_);}
	.st8{fill:url(#SVGID_00000128485660691579470520000013767566988533905590_);}
</style>
<g>
	<linearGradient id="SVGID_1_" gradientUnits="userSpaceOnUse" x1="200" y1="0" x2="200" y2="400">
		<stop  offset="0" style="stop-color:#EFDF00"/>
		<stop  offset="0.2805" style="stop-color:#E0D100"/>
		<stop  offset="0.6415" style="stop-color:#D4C600"/>
		<stop  offset="1" style="stop-color:#D0C200"/>
	</linearGradient>
	<circle class="st0" cx="200" cy="200" r="200"/>
	<g>
		<path d="M273.92,90c5.03,1.8,6.75,5.47,6.74,10.67c-0.08,56.71-0.05,113.42-0.05,170.13c0,0.92,0,1.83,0,2.9
			c-44.08,0-87.93,0-132.17,0c0-61.2,0-122.45,0-183.7C190.27,90,232.1,90,273.92,90z M214.86,251.61c8.16,0,16.32,0.03,24.49-0.01
			c3.86-0.02,6.62-2.62,6.64-6.38c0.06-9.59,0.14-19.19-0.09-28.78c-0.04-1.69-1.17-3.77-2.47-4.91c-1.37-1.2-1.43-2.09-1.01-3.57
			c2.79-9.87,8.33-18.12,15.07-25.66c3.38-3.78,3.63-6.13,0.84-10.3c-12.67-18.98-25.33-37.95-38-56.93
			c-1.19-1.79-2.85-2.73-5.01-2.85c-2.91-0.17-4.8,1.29-6.34,3.61c-12.29,18.54-24.62,37.06-36.94,55.58
			c-3.37,5.07-3.17,7.14,1.08,11.41c7.3,7.35,11.81,16.24,14.35,26.19c0.15,0.59-0.06,1.63-0.48,1.94c-2.19,1.58-3,3.65-2.98,6.29
			c0.06,9.09,0.01,18.19,0.03,27.28c0.01,4.64,2.5,7.09,7.2,7.1C199.11,251.62,206.98,251.61,214.86,251.61z"/>
		<path d="M135.56,90c0,61.19,0,122.39,0,183.85c-5.52-0.17-10.86,0.01-16.15,2.99c0-1.3,0-2.18,0-3.07
			c0-56.34,0.06-112.68-0.07-169.02c-0.02-7.21,2.28-12.34,9.35-14.75C130.97,90,133.27,90,135.56,90z"/>
		<path d="M280.18,286.62c0.22,0.36,0.35,0.48,0.35,0.6c-0.01,5.08,0.2,10.18-0.12,15.24c-0.29,4.49-3.92,7.53-8.4,7.53
			c-46.91,0.01-93.81,0.02-140.72,0c-6.57,0-11.43-4.64-11.69-10.97c-0.28-6.69,4.09-11.66,10.82-12.26c1-0.09,2-0.12,3-0.12
			c48.05-0.01,96.11-0.01,144.16-0.01C278.49,286.62,279.4,286.62,280.18,286.62z"/>
		<path d="M221.9,140.58c1.06,1.59,2.13,3.18,3.19,4.77c6.48,9.69,12.94,19.4,19.48,29.05c0.91,1.34,0.94,2.15-0.12,3.47
			c-7.31,9.14-13.09,19.08-15.32,30.77c-0.1,0.5-0.83,1.26-1.28,1.27c-8.94,0.07-17.88,0.06-26.94,0.06
			c-2.62-12.76-7.8-24.14-16.53-33.94c7.95-11.96,15.85-23.85,24.05-36.17c0.08,1.08,0.15,1.67,0.15,2.26
			c0.01,7.3-0.02,14.61,0.02,21.91c0.01,2.65,1.17,4.73,3.64,5.83c2.32,1.03,4.63,0.83,6.7-0.7c2.04-1.51,2.51-3.72,2.51-6.1
			c0-6.73,0-13.46,0-20.19c0-0.71,0-1.42,0-2.12C221.6,140.69,221.75,140.64,221.9,140.58z"/>
		<path d="M196.9,238.61c0-5.33,0-10.45,0-15.68c12.05,0,23.97,0,36.06,0c0,5.18,0,10.35,0,15.68
			C221.01,238.61,209.04,238.61,196.9,238.61z"/>
	</g>
</g>
</svg>
