<?xml version="1.0" encoding="utf-8"?>
<!-- Generator: Adobe Illustrator 27.8.0, SVG Export Plug-In . SVG Version: 6.00 Build 0)  -->
<svg version="1.1" id="Layer_1" xmlns="http://www.w3.org/2000/svg" xmlns:xlink="http://www.w3.org/1999/xlink" x="0px" y="0px"
	 viewBox="0 0 400 400" style="enable-background:new 0 0 400 400;" xml:space="preserve">
<style type="text/css">
	.st0{fill:url(#SVGID_1_);}
	.st1{fill:url(#SVGID_00000159442075496038488230000010942988616548720058_);}
	.st2{fill:url(#SVGID_00000106851097050260270450000007126798466282336177_);}
	.st3{fill:url(#SVGID_00000146464256381506435120000009096422126671269262_);}
	.st4{fill:url(#SVGID_00000143575012616952894610000013062820723556642739_);}
	.st5{fill:url(#SVGID_00000123438542900983219260000002921290462304436876_);}
	.st6{fill:url(#SVGID_00000080929534206708216180000000442999115907626661_);}
	.st7{fill:url(#SVGID_00000129204936306855166570000018188378657808173719_);}
	.st8{fill:url(#SVGID_00000098942974090913796690000017882741021387838897_);}
</style>
<g>
	<linearGradient id="SVGID_1_" gradientUnits="userSpaceOnUse" x1="200" y1="0" x2="200" y2="400">
		<stop  offset="0" style="stop-color:#EFDF00"/>
		<stop  offset="0.2805" style="stop-color:#E0D100"/>
		<stop  offset="0.6415" style="stop-color:#D4C600"/>
		<stop  offset="1" style="stop-color:#D0C200"/>
	</linearGradient>
	<circle class="st0" cx="200" cy="200" r="200"/>
	<g>
		<path d="M76.35,163.04c4.69-5.27,9.42-10.52,14.07-15.83c13.24-15.12,29.03-27.04,46.23-37.28c7.38-4.39,14.4-9.38,21.62-14.12
			c0.73,4.12,1.18,8.34,2.25,12.4c3,11.44,8.6,21.33,18.45,28.3c17.17,12.16,39.69,7.82,52.23-9.94
			c5.84-8.27,9.12-17.46,10.08-27.51c0.09-0.96,0.22-1.92,0.35-2.88c0.02-0.13,0.14-0.25,0.31-0.52c4.38,2.99,8.71,6.03,13.14,8.93
			c9.42,6.17,19.07,12,28.29,18.45c12.76,8.93,23.18,20.39,33.4,32.03c1.91,2.18,3.74,4.43,5.69,6.58c1.55,1.72,1.65,3.29,0.11,5.11
			c-10.06,11.85-20.06,23.74-30.11,35.59c-2.02,2.39-3.68,2.3-5.75-0.13c-4.26-5.01-8.49-10.03-13.14-15.52c0,25.36,0,50.1,0,74.99
			c-17.26,0-34.29,0-51.65,0c0-2.72,0.01-5.35,0-7.98c-0.01-3.24-0.86-4.07-4.18-4.09c-1.51-0.01-3.01,0-5.03,0
			c2.63-3.42,4.95-6.46,7.28-9.49c2.8-3.63,5.58-7.29,8.43-10.88c1.3-1.64,1.34-3.1,0.04-4.77c-8.59-11.07-17.12-22.17-25.7-33.25
			c-1.72-2.23-3.62-2.23-5.35,0c-8.57,11.08-17.1,22.19-25.7,33.25c-1.4,1.8-1.15,3.26,0.18,4.96c5.11,6.52,10.14,13.1,15.61,20.18
			c-1.9,0-3.35,0-4.81,0c-3.66,0.01-4.42,0.76-4.43,4.32c-0.01,2.49,0,4.97,0,7.68c-17.2,0-34.22,0-51.55,0c0-24.71,0-49.5,0-75.03
			c-4.58,5.41-8.67,10.24-12.76,15.07c-2.81,3.32-4.02,3.33-6.82,0.01c-10.07-11.94-20.14-23.88-30.21-35.82
			c-0.14-0.16-0.37-0.25-0.55-0.37C76.35,164.65,76.35,163.85,76.35,163.04z M212.86,172.66c-0.1-0.28-0.2-0.56-0.3-0.84
			c0.74-0.31,1.47-0.87,2.21-0.88c9.74-0.06,19.49-0.07,29.23,0.03c0.77,0.01,1.89,0.78,2.24,1.49c2.07,4.22,5.38,6.24,10.03,6.21
			c6.11-0.04,10.12-3.75,10.83-10.05c0.6-5.37-2.81-10.33-8.02-11.65c-5.71-1.45-11.03,1.22-13.02,6.71
			c-0.49,1.35-1.14,1.66-2.43,1.65c-9.42-0.04-18.84-0.05-28.27,0.01c-1.43,0.01-2.06-0.42-2.55-1.82
			c-2.03-5.84-6.83-9.24-12.75-9.23c-5.9,0-10.71,3.41-12.72,9.27c-0.5,1.44-1.18,1.79-2.57,1.78c-9.42-0.05-18.84-0.05-28.27,0
			c-1.31,0.01-1.92-0.35-2.41-1.69c-1.99-5.48-7.34-8.13-13.05-6.66c-4.89,1.25-8.05,5.47-8.05,10.71c0,5.23,3.3,9.63,8.04,10.73
			c5.5,1.28,10.39-0.92,12.7-5.82c0.53-1.13,1.04-1.75,2.45-1.74c9.74,0.07,19.49,0.02,29.23,0.08c0.72,0,1.45,0.6,2.17,0.92
			c-0.06,0.23-0.12,0.45-0.18,0.68c-0.67,0.22-1.34,0.44-2.02,0.64c-10.52,3.14-19.36,8.57-25.22,18.18
			c-0.38,0.63-1.51,1.02-2.35,1.12c-6.1,0.72-9.96,5.51-9.59,12.04c0.36,6.29,4.88,10.38,11.36,10.26
			c5.97-0.1,10.37-4.58,10.56-10.64c0.13-4.23-1.59-7.58-4.89-10.24c6.01-9.09,14.59-13.81,24.83-15.88
			c0.7-0.14,1.65,0.35,2.34,0.78c5.09,3.12,10.12,3.09,15.26,0.06c0.98-0.58,2.5-0.98,3.49-0.64c4.23,1.47,8.51,2.95,12.47,4.99
			c4.7,2.42,8.44,6.09,11.17,10.79c-0.61,0.54-1.16,0.99-1.66,1.5c-5.22,5.3-3.84,15.15,2.69,18.17c4.25,1.97,8.51,1.69,12.27-1.3
			c3.44-2.73,4.72-7.81,3.32-12.32c-1.42-4.59-4.62-6.95-9.3-7.59c-0.73-0.1-1.5-0.66-2.03-1.22c-3.21-3.35-6.08-7.09-9.58-10.08
			C225.46,176.84,219.3,174.38,212.86,172.66z"/>
		<path d="M126.61,286.86c49.15,0,97.91,0,146.9,0c0,6.85,0.1,13.59-0.12,20.33c-0.03,0.92-1.56,1.93-2.58,2.63
			c-0.5,0.34-1.41,0.09-2.13,0.09c-45.73,0-91.45,0-137.18,0c-4.25,0-4.89-0.63-4.89-4.85
			C126.61,299.04,126.61,293.03,126.61,286.86z"/>
		<path d="M235.83,95.47c-0.65,11.67-4.07,22.3-12.08,31.05c-14.34,15.66-35.81,14.83-48.99-1.85
			c-7.26-9.19-10.56-19.76-10.39-31.41c0.02-1.07,0.82-2.54,1.7-3.05c0.75-0.44,2.54-0.17,3.2,0.47c5.15,5.01,11.6,7.1,18.39,8.33
			c11.19,2.02,22.32,1.68,33.06-2.29c3.32-1.22,6.19-3.62,9.34-5.35c1.23-0.68,2.74-1.53,3.98-1.34c1.8,0.27,1.83,2.16,1.79,3.74
			C235.82,94.35,235.83,94.91,235.83,95.47z"/>
		<path d="M273.46,267.68c0,4.44,0,8.69,0,13.11c-48.89,0-97.72,0-146.69,0c0-4.31,0-8.62,0-13.11
			C175.58,267.68,224.4,267.68,273.46,267.68z"/>
		<path d="M203.09,216.5c0-4.94,0-9.89,0-15.46c3.11,4.02,5.89,7.6,8.66,11.18c3.35,4.33,6.64,8.69,10.06,12.96
			c1,1.24,0.94,2.07-0.02,3.29c-5.13,6.51-10.12,13.12-15.28,19.6c-0.63,0.79-1.93,1.39-2.94,1.44c-2.96,0.14-6.35,0.81-8.78-0.37
			c-2.34-1.13-3.7-4.29-5.48-6.57c-3.7-4.77-7.37-9.55-11.09-14.3c-0.71-0.91-1.04-1.6-0.18-2.7c6.24-7.98,12.41-16.02,18.9-24.42
			c0,5.4,0,10.37,0,15.39c-6,3.1-8.3,7.44-6.88,13.12c1.17,4.71,5.17,7.73,10.12,7.66c4.93-0.07,8.72-3.01,9.89-7.65
			C211.5,224.02,209.19,219.66,203.09,216.5z"/>
		<path d="M183.89,261.61c0-1.57-0.01-2.93,0.01-4.29c0.01-0.55,0.09-1.1,0.16-1.8c10.63,0,21.19,0,31.97,0c0,1.96,0,3.91,0,6.09
			C205.47,261.61,194.85,261.61,183.89,261.61z"/>
		<path d="M204.81,227.02c-0.12,2.66-2.25,4.67-4.88,4.59c-2.71-0.08-4.8-2.4-4.6-5.1c0.2-2.68,2.34-4.6,4.99-4.46
			C202.95,222.19,204.94,224.39,204.81,227.02z"/>
		<path d="M200.17,159.95c4.49,0.06,7.67,3.37,7.58,7.89c-0.09,4.35-3.38,7.63-7.66,7.64c-4.37,0.01-7.72-3.4-7.7-7.85
			C192.41,163.12,195.67,159.9,200.17,159.95z"/>
		<path d="M240.97,209.02c-3.13,0-5.29-2.13-5.35-5.29c-0.07-3.22,2.18-5.5,5.39-5.49c3.08,0.01,5.33,2.23,5.39,5.29
			C246.46,206.68,244.14,209.03,240.97,209.02z"/>
		<path d="M164.51,203.57c0.04,3.16-2.08,5.38-5.18,5.44c-3.22,0.06-5.55-2.16-5.59-5.32c-0.04-3.07,2.17-5.37,5.23-5.44
			C162.25,198.18,164.46,200.31,164.51,203.57z"/>
		<path d="M138.71,167.7c-0.01-3.18,2.12-5.32,5.27-5.3c2.95,0.02,5.18,2.21,5.25,5.16c0.08,2.99-2.26,5.44-5.23,5.49
			C140.96,173.1,138.71,170.82,138.71,167.7z"/>
		<path d="M261.44,167.75c-0.03,3.1-2.33,5.38-5.35,5.29c-2.89-0.08-5.13-2.38-5.18-5.3c-0.04-3.03,2.26-5.35,5.31-5.35
			C259.36,162.4,261.47,164.57,261.44,167.75z"/>
	</g>
</g>
</svg>
