<?xml version="1.0" encoding="utf-8"?>
<!-- Generator: Adobe Illustrator 27.8.0, SVG Export Plug-In . SVG Version: 6.00 Build 0)  -->
<svg version="1.1" id="Layer_1" xmlns="http://www.w3.org/2000/svg" xmlns:xlink="http://www.w3.org/1999/xlink" x="0px" y="0px"
	 viewBox="0 0 400 400" style="enable-background:new 0 0 400 400;" xml:space="preserve">
<style type="text/css">
	.st0{fill:url(#SVGID_1_);}
	.st1{fill:url(#SVGID_00000040553126991788507440000014382416886318083490_);}
	.st2{fill:url(#SVGID_00000106123512747633213410000013810088222885525162_);}
	.st3{fill:url(#SVGID_00000166673915355111849350000000433604499375745718_);}
	.st4{fill:url(#SVGID_00000083049577327414701990000016224456545775702717_);}
	.st5{fill:url(#SVGID_00000034058600115273280270000005364287322144459692_);}
	.st6{fill:url(#SVGID_00000106862756956112960470000016512012689153759650_);}
	.st7{fill:url(#SVGID_00000121961756315342200280000008438632212939688576_);}
	.st8{fill:url(#SVGID_00000006684841140571212470000003111226717103694246_);}
</style>
<g>
	<linearGradient id="SVGID_1_" gradientUnits="userSpaceOnUse" x1="200" y1="0" x2="200" y2="400">
		<stop  offset="0" style="stop-color:#EFDF00"/>
		<stop  offset="0.2805" style="stop-color:#E0D100"/>
		<stop  offset="0.6415" style="stop-color:#D4C600"/>
		<stop  offset="1" style="stop-color:#D0C200"/>
	</linearGradient>
	<circle class="st0" cx="200" cy="200" r="200"/>
	<g>
		<path d="M154.91,310c-12.9,0-25.81,0-38.71,0c0-17.61,0-35.23,0-52.89c-8.95,0-17.59,0-26.24,0c0-47.16,0-94.32,0-141.48
			c8.72,0,17.43,0,26.18,0c0-4.4,0-8.53,0-12.92c-3.93,0-7.76,0-11.61,0c0-4.39,0-8.52,0-12.7c12.26,0,24.39,0,36.47,0
			c0,4.3,0,8.43,0,12.73c-3.9,0-7.67,0-11.6,0c0,4.35,0,8.54,0,12.75c21.44,0,42.76,0,64.03,0c0-4.32,0-8.5,0-12.89
			c-4.02,0-7.85,0-11.66,0c0-4.34,0-8.46,0-12.61c12.28,0,24.42,0,36.6,0c0,4.28,0,8.4,0,12.81c-4,0-7.89,0-11.74,0
			c0,4.42,0,8.54,0,12.67c21.44,0,42.75,0,64.1,0c0-4.28,0-8.41,0-12.78c-3.96,0-7.79,0-11.56,0c0-4.43,0-8.61,0-12.69
			c12.26,0,24.33,0,36.41,0c0,4.29,0,8.42,0,12.81c-3.96,0-7.79,0-11.57,0c0,4.4,0,8.52,0,12.88c8.76,0,17.39,0,26.02,0
			c0,47.21,0,94.19,0,141.41c-8.75,0-17.38,0-25.99,0c-0.08,0.45-0.15,0.65-0.15,0.86c0.01,17.34,0.02,34.69,0.04,52.03
			c-12.9,0-25.81,0-38.71,0c0-8.99,0-17.99,0-26.98c-30.28,0-60.18,0-90.32,0C154.91,292.12,154.91,301.06,154.91,310z
			 M109.76,235.43c61.19,0,122.14,0,183.11,0c0-32.8,0-65.44,0-98.17c-61.08,0-122.04,0-183.11,0
			C109.76,170.01,109.76,202.66,109.76,235.43z M155.11,269.7c30.02,0,59.91,0,89.89,0c0-4.26,0-8.37,0-12.46
			c-30.05,0-59.95,0-89.89,0C155.11,261.45,155.11,265.5,155.11,269.7z"/>
		<path d="M280,150.2c0,24.19,0,48.23,0,72.48c-6.55,0-12.98,0.05-19.41-0.07c-0.68-0.01-1.49-0.95-1.99-1.64
			c-12.82-17.95-25.6-35.93-38.38-53.9c-0.46-0.64-0.93-1.27-1.58-2.14c-9.82,13.79-19.57,27.47-29.49,41.41
			c-6.26-8.78-12.38-17.37-18.68-26.2c-0.56,0.74-1.03,1.33-1.46,1.95c-9.27,13.01-18.55,26-27.77,39.05
			c-0.85,1.2-1.73,1.62-3.16,1.59c-5.15-0.08-10.29-0.03-15.57-0.03c0-24.24,0-48.28,0-72.49C174.97,150.2,227.39,150.2,280,150.2z"
			/>
		<path d="M218.65,187.01c8.54,12,16.83,23.65,25.29,35.55c-16.96,0-33.58,0-50.59,0C201.85,210.62,210.17,198.94,218.65,187.01z"/>
		<path d="M155.82,222.69c5-7.02,9.71-13.63,14.6-20.5c3.56,4.99,6.95,9.75,10.34,14.51c0.12,0.17,0.27,0.36,0.3,0.56
			c0.15,0.99-3.54,5.42-4.57,5.42C169.76,222.7,163.03,222.69,155.82,222.69z"/>
	</g>
</g>
</svg>
