<?xml version="1.0" encoding="utf-8"?>
<!-- Generator: Adobe Illustrator 27.8.0, SVG Export Plug-In . SVG Version: 6.00 Build 0)  -->
<svg version="1.1" id="Layer_1" xmlns="http://www.w3.org/2000/svg" xmlns:xlink="http://www.w3.org/1999/xlink" x="0px" y="0px"
	 viewBox="0 0 400 400" style="enable-background:new 0 0 400 400;" xml:space="preserve">
<style type="text/css">
	.st0{fill:url(#SVGID_1_);}
	.st1{fill:url(#SVGID_00000044885043590266753310000016959480167565778109_);}
	.st2{fill:url(#SVGID_00000180335412911288460870000018083840087262308283_);}
	.st3{fill:url(#SVGID_00000073697881624271430400000011557934923406507417_);}
	.st4{fill:url(#SVGID_00000156569319002616048980000001999911538742713248_);}
	.st5{fill:url(#SVGID_00000165932357656936401920000009095110943258059172_);}
	.st6{fill:url(#SVGID_00000087407268967357034870000003002142230218846359_);}
	.st7{fill:url(#SVGID_00000149345854244258740600000005299408871412132504_);}
	.st8{fill:url(#SVGID_00000041999152164745214470000014070692655468497046_);}
</style>
<g>
	<linearGradient id="SVGID_1_" gradientUnits="userSpaceOnUse" x1="200" y1="0" x2="200" y2="400">
		<stop  offset="0" style="stop-color:#EFDF00"/>
		<stop  offset="0.2805" style="stop-color:#E0D100"/>
		<stop  offset="0.6415" style="stop-color:#D4C600"/>
		<stop  offset="1" style="stop-color:#D0C200"/>
	</linearGradient>
	<circle class="st0" cx="200" cy="200" r="200"/>
	<g>
		<path d="M94.25,264.19c0-47.93,0-95.69,0-143.65c42.84,0,85.66,0,128.64,0c0,3.54,0,7.14,0,10.55c-2.73-0.93-5.56-1.96-8.43-2.83
			c-1.03-0.31-2.18-0.34-3.28-0.34c-20.69-0.02-41.37-0.01-62.06-0.01c-0.54,0-1.08,0-1.78,0c0,5.06,0,9.92,0,15.05
			c-5.09,0-10.02,0-15.09,0c0,35.51,0,70.76,0,106.24c26.45,0,52.86,0,79.34,0c0.69,7.42,4.4,12.33,11.24,14.99
			C180.03,264.19,137.25,264.19,94.25,264.19z M101.87,211.17c2.56,0,4.95,0,7.3,0c0-2.56,0-4.95,0-7.32c-2.52,0-4.86,0-7.3,0
			C101.87,206.3,101.87,208.63,101.87,211.17z M101.85,226.32c2.59,0,4.99,0,7.3,0c0-2.57,0-4.96,0-7.3c-2.53,0-4.87,0-7.3,0
			C101.85,221.49,101.85,223.82,101.85,226.32z M109.22,241.55c0-2.61,0-4.95,0-7.34c-2.52,0-4.91,0-7.3,0c0,2.54,0,4.94,0,7.34
			C104.43,241.55,106.76,241.55,109.22,241.55z M109.24,249.34c-2.61,0-4.95,0-7.35,0c0,2.52,0,4.91,0,7.31c2.54,0,4.93,0,7.35,0
			C109.24,254.14,109.24,251.81,109.24,249.34z"/>
		<path d="M155,135.51c4.26,0,8.36,0,12.45,0c14.52,0,29.04-0.01,43.57,0c7.28,0,12.02,4.71,12.02,11.95c0.01,25.58,0,51.15,0,76.73
			c0,0.63,0,1.26,0,2.09c-22.67,0-45.27,0-68.04,0C155,196.17,155,165.99,155,135.51z M173.77,162.04c0,2.84-0.06,5.68,0.01,8.52
			c0.13,5.22,4.5,8.01,9.15,5.77c5.81-2.8,11.56-5.75,17.34-8.62c2.32-1.15,3.73-2.98,3.78-5.56c0.05-2.68-1.38-4.59-3.79-5.78
			c-5.71-2.84-11.39-5.74-17.12-8.53c-4.9-2.39-9.28,0.41-9.37,5.93C173.73,156.52,173.77,159.28,173.77,162.04z M215.39,203.73
			c-7.33,0-14.42-0.01-21.51,0.01c-1.16,0-1.95-0.13-2.59-1.39c-2.02-4.01-5.48-6.13-9.9-6.14c-4.43-0.02-7.88,2.12-9.94,6.09
			c-0.63,1.22-1.35,1.48-2.56,1.44c-2.1-0.07-4.21-0.02-6.33-0.02c0,2.67,0,5.07,0,7.6c2.36,0,4.57-0.09,6.75,0.05
			c0.68,0.05,1.62,0.58,1.93,1.16c2.19,4.05,5.59,6.29,10.1,6.29c4.51,0.01,7.91-2.23,10.12-6.26c0.34-0.62,1.4-1.17,2.14-1.19
			c4.81-0.11,9.62-0.05,14.44-0.05c2.42,0,4.84,0,7.34,0C215.39,208.71,215.39,206.37,215.39,203.73z"/>
		<path d="M298.68,226.42c-2.46,0-4.74,0-6.95,0c-1.21-9.44-6.88-16.94-10.9-25.1c-3.49-7.08-13.34-6.91-17.11,0.06
			c-3.48,6.45-6.7,13.04-9.83,19.67c-0.7,1.47-0.51,3.36-0.76,5.25c-7.31,0-14.75,0-22.49,0c0-0.84,0-1.68,0-2.52
			c0-25.35,0-50.69,0-76.04c0-7.6,4.63-12.22,12.23-12.23c17.76,0,35.53,0,53.29,0c0.78,0,1.56,0,2.52,0
			C298.68,165.82,298.68,196,298.68,226.42z M242.16,146.97c0,7.64,0,15.09,0,22.47c15.2,0,30.22,0,45.2,0c0-7.58,0-14.97,0-22.47
			C272.27,146.97,257.3,146.97,242.16,146.97z M291.17,181.15c-12.68,0-25.18,0-37.62,0c0,2.57,0,4.96,0,7.31
			c12.63,0,25.07,0,37.62,0C291.17,186,291.17,183.66,291.17,181.15z M238.36,181.03c0,2.61,0,5,0,7.38c2.55,0,4.94,0,7.25,0
			c0-2.57,0-4.97,0-7.38C243.13,181.03,240.85,181.03,238.36,181.03z"/>
		<path d="M94.19,272.09c43,0,85.75,0,128.71,0c0.05,0.67,0.13,1.35,0.13,2.02c0.01,8.05,0.02,16.1,0,24.16
			c-0.02,6.77-4.87,11.6-11.66,11.6c-35.2,0.01-70.41,0.01-105.61,0c-6.65,0-11.54-4.86-11.56-11.46
			C94.17,289.73,94.19,281.05,94.19,272.09z M158.55,298.52c3.54,0,7.09,0.03,10.63-0.01c3.05-0.03,4.52-1.47,4.59-4.45
			c0.05-2.13,0.06-4.25,0-6.38c-0.08-2.76-1.52-4.3-4.23-4.32c-7.24-0.06-14.49-0.05-21.73,0c-2.85,0.02-4.28,1.54-4.35,4.44
			c-0.04,1.89-0.02,3.78-0.01,5.67c0.02,3.66,1.35,5.03,4.95,5.05C151.78,298.53,155.17,298.52,158.55,298.52z M113.3,283.34
			c-7.37,0-7.75,0.38-7.75,7.66c0,7.04,0.48,7.52,7.42,7.52c7.36,0,7.76-0.39,7.76-7.66C120.72,283.81,120.25,283.34,113.3,283.34z
			 M204,298.52c7.29,0,7.68-0.39,7.68-7.74c0-6.97-0.48-7.45-7.5-7.45c-7.3,0-7.68,0.38-7.68,7.73
			C196.51,298.05,196.98,298.52,204,298.52z"/>
		<path d="M139.73,241.71c0-30.51,0-60.58,0-90.85c2.41,0,4.8,0,7.46,0c0,27.63,0,55.3,0,83.14c35.44,0,70.63,0,105.99,0
			c0,2.56,0,4.95,0,7.61c-6.17,0-12.36,0-18.77,0c0,2.68,0.03,5.11-0.01,7.54c-0.06,4.41-3.32,7.66-7.62,7.65
			c-4.27-0.02-7.47-3.3-7.52-7.74c-0.02-2.36,0-4.72,0-7.34C192.74,241.71,166.35,241.71,139.73,241.71z"/>
		<path d="M94.21,112.63c0-4.26-0.12-8.28,0.03-12.3c0.2-5.18,4.89-10.15,10.07-10.23c11.67-0.18,23.35-0.06,35.23-0.06
			c0.59,7.64-1.42,15.65,4.01,22.59C126.89,112.63,110.68,112.63,94.21,112.63z"/>
		<path d="M174.68,112.57c0.95-3.59,2.29-7.21,2.77-10.94c0.48-3.71,0.11-7.54,0.11-11.47c0.85-0.06,1.53-0.14,2.21-0.14
			c10.5-0.01,21-0.02,31.5,0c6.95,0.01,11.74,4.8,11.77,11.74c0.01,3.55,0,7.09,0,10.81C206.66,112.57,190.39,112.57,174.68,112.57z
			 M211.6,105.15c1.94,0.05,3.8-1.73,3.85-3.69c0.05-1.95-1.73-3.8-3.69-3.85c-1.95-0.05-3.8,1.72-3.85,3.69
			C207.86,103.24,209.64,105.1,211.6,105.15z"/>
		<path d="M313.84,241.52c-7.56,0-14.94,0-22.44,0c0-2.45,0-4.79,0-7.38c4.94,0,9.86,0,15.02,0c0-27.92,0-55.57,0-83.35
			c2.58,0,4.91,0,7.42,0C313.84,180.98,313.84,211.16,313.84,241.52z"/>
		<path d="M268.36,287.02c-2.49,0-4.82,0-7.28,0c0-20.17,0-40.24,0-60.41c2.44,0,4.78,0,7.28,0
			C268.36,246.69,268.36,266.75,268.36,287.02z"/>
		<path d="M276.29,226.59c2.48,0,4.81,0,7.27,0c0,20.17,0,40.23,0,60.41c-2.43,0-4.76,0-7.27,0
			C276.29,266.94,276.29,246.87,276.29,226.59z"/>
		<path d="M147.25,90.12c7.64,0,15.02,0,22.53,0c0,4.57,0.51,9.17-0.12,13.61c-0.84,5.93-6.54,9.64-12.53,8.97
			c-5.57-0.62-9.83-5.55-9.87-11.44C147.24,97.63,147.25,94.01,147.25,90.12z M162.38,101.27c-0.07-1.96-1.94-3.73-3.88-3.66
			c-1.97,0.07-3.72,1.94-3.66,3.88c0.07,1.97,1.94,3.73,3.88,3.66C160.68,105.08,162.45,103.2,162.38,101.27z"/>
		<path d="M261.12,294.82c7.53,0,14.91,0,22.39,0c0.71,5.23-0.12,9.85-4.69,13.01c-3.92,2.71-8.15,2.89-12.24,0.49
			C261.49,305.32,260.39,300.52,261.12,294.82z"/>
		<path d="M263.31,218.79c2.35-4.7,4.48-9.08,6.73-13.4c1.06-2.03,3.28-2.28,4.3-0.41c2.43,4.46,4.62,9.05,7.01,13.81
			C275.22,218.79,269.44,218.79,263.31,218.79z"/>
	</g>
</g>
</svg>
