<?xml version="1.0" encoding="utf-8"?>
<!-- Generator: Adobe Illustrator 27.8.0, SVG Export Plug-In . SVG Version: 6.00 Build 0)  -->
<svg version="1.1" id="Layer_1" xmlns="http://www.w3.org/2000/svg" xmlns:xlink="http://www.w3.org/1999/xlink" x="0px" y="0px"
	 viewBox="0 0 400 400" style="enable-background:new 0 0 400 400;" xml:space="preserve">
<style type="text/css">
	.st0{fill:url(#SVGID_1_);}
	.st1{fill:url(#SVGID_00000023981147992778123360000013440337241610333833_);}
	.st2{fill:url(#SVGID_00000094608782386719379050000006909983622246511520_);}
	.st3{fill:url(#SVGID_00000075133947536448613550000018416225029677918376_);}
	.st4{fill:url(#SVGID_00000176759351959583881550000003765195290883623085_);}
	.st5{fill:url(#SVGID_00000021121177830423720350000008566120257275903631_);}
	.st6{fill:url(#SVGID_00000169526981327853537790000015523061457514789024_);}
	.st7{fill:url(#SVGID_00000093157441032723211640000017190287446434443143_);}
	.st8{fill:url(#SVGID_00000149347400154327496110000014712482196567776385_);}
</style>
<g>
	<linearGradient id="SVGID_1_" gradientUnits="userSpaceOnUse" x1="200" y1="0" x2="200" y2="400">
		<stop  offset="0" style="stop-color:#EFDF00"/>
		<stop  offset="0.2805" style="stop-color:#E0D100"/>
		<stop  offset="0.6415" style="stop-color:#D4C600"/>
		<stop  offset="1" style="stop-color:#D0C200"/>
	</linearGradient>
	<circle class="st0" cx="200" cy="200" r="200"/>
	<g>
		<path d="M274.64,90c10.34,0,20.68-0.01,31.01,0c4.65,0.01,6.02,1.41,6.02,6.1c0,16.46,0,32.93,0,49.39c0,4.45-1.48,5.95-5.99,5.95
			c-20.68,0.01-41.35,0.01-62.03,0c-4.62,0-6.03-1.46-6.03-6.13c0-16.39,0-32.78,0-49.17c0-4.79,1.35-6.13,6.22-6.14
			C254.11,90,264.38,90,274.64,90z M274.61,139.39c6.41,0,12.83,0.02,19.24-0.01c2.09-0.01,2.62-0.84,1.56-2.58
			c-2.65-4.33-5.39-8.61-8.1-12.91c-0.87-1.38-1.81-1.34-2.79-0.12c-1.49,1.83-2.97,3.67-4.46,5.5c-1.75,2.15-2.24,2.15-3.96-0.13
			c-2.53-3.35-5.03-6.73-7.57-10.07c-1.55-2.05-2.18-2.03-3.53,0.11c-3.62,5.72-7.25,11.45-10.81,17.21
			c-0.41,0.67-0.7,1.69-0.48,2.36c0.13,0.4,1.36,0.63,2.09,0.63C262.07,139.41,268.34,139.39,274.61,139.39z M278.81,113.27
			c3.19-0.01,5.58-2.37,5.6-5.55c0.02-3.13-2.4-5.62-5.53-5.65c-3.18-0.04-5.8,2.55-5.76,5.69
			C273.16,110.82,275.69,113.27,278.81,113.27z"/>
		<path d="M164.58,135.93c20.98,37.76,41.72,75.09,62.68,112.83c-3.25-0.38-6.12-0.69-8.98-1.06c-14.17-1.86-28.34-3.73-42.5-5.66
			c-0.82-0.11-1.91-0.61-2.28-1.27c-9.9-17.68-19.72-35.4-29.54-53.12c-0.06-0.12-0.05-0.28-0.12-0.79c1.47,0,2.91,0.02,4.34,0
			c6.91-0.11,11.17-4.33,11.21-11.22c0.05-8.27,0.07-16.53-0.02-24.8c-0.03-2.42,0.36-4.63,1.49-6.79
			C162.14,141.56,163.2,138.97,164.58,135.93z"/>
		<path d="M120.56,180.19c-8.86,0-17.72,0.01-26.58,0c-4.54,0-5.66-1.11-5.66-5.56c0-14.17-0.01-28.35,0-42.52
			c0-4.09,1.19-5.32,5.23-5.33c18.01-0.01,36.03-0.02,54.04,0c3.86,0,5.13,1.31,5.13,5.22c0.01,14.32,0.01,28.64,0,42.96
			c0,3.98-1.28,5.21-5.36,5.22C138.43,180.2,129.5,180.19,120.56,180.19z M137.32,170.65c-0.1-4.33-1.49-7.96-4.45-11.13
			c-3.68,2.96-7.73,4.54-12.32,4.56c-4.67,0.03-8.75-1.68-12.47-4.57c-2.78,3.31-4.45,6.82-4.23,11.14
			C115.1,170.65,126.14,170.65,137.32,170.65z M129.27,145.05c-0.01-4.92-3.99-8.9-8.84-8.84c-4.87,0.06-8.72,4.06-8.68,9
			c0.04,4.81,3.94,8.7,8.73,8.71C125.36,153.95,129.29,149.98,129.27,145.05z"/>
		<path d="M168,128.3c4.33-2.39,8.38-4.8,12.59-6.89c3.34-1.66,6.76-0.27,8.75,3.28c5.25,9.39,10.46,18.8,15.69,28.2
			c14.79,26.59,29.59,53.19,44.38,79.78c2.93,5.27,2,8.48-3.32,11.44c-3.41,1.9-6.82,3.77-10.48,5.8
			C213.08,209.38,190.61,168.97,168,128.3z"/>
		<path d="M138.96,192.46c8.99,16.17,17.85,32.13,26.79,48.22c-0.72,0.45-1.32,0.86-1.94,1.2c-11.59,6.44-23.19,12.88-34.79,19.31
			c-3.66,2.03-5.27,1.56-7.32-2.14c-7.19-12.95-14.38-25.89-21.56-38.84c-2.03-3.65-1.55-5.32,2.07-7.33
			C114.38,206.12,126.54,199.36,138.96,192.46z"/>
		<path d="M284.2,175.14c7.75,0,15.49-0.01,23.24,0c3.2,0.01,4.24,1.04,4.24,4.21c0.01,12.24,0.01,24.49,0,36.73
			c0,3.29-1.05,4.33-4.38,4.33c-15.34,0.01-30.69,0.01-46.03,0c-3.16,0-4.3-1.08-4.31-4.23c-0.03-12.24-0.03-24.49,0-36.73
			c0.01-3.28,1.12-4.31,4.45-4.31C269,175.13,276.6,175.14,284.2,175.14z M278.71,197.74c0,2.81-0.08,5.61,0.05,8.41
			c0.04,0.83,0.47,1.91,1.09,2.33c0.39,0.26,1.63-0.3,2.21-0.81c2.99-2.63,5.87-5.39,8.84-8.05c1.42-1.27,1.5-2.34,0.04-3.65
			c-3.03-2.7-5.96-5.51-9-8.2c-0.53-0.47-1.63-0.99-2.05-0.75c-0.6,0.34-1.1,1.34-1.13,2.08
			C278.64,191.98,278.71,194.86,278.71,197.74z"/>
		<path d="M135.32,265.32c8.68-4.82,17.16-9.53,25.63-14.23c-4.6,3.36-7.89,7.59-9.18,13.2c-1.29,5.62-0.18,10.84,3.02,15.6
			c4.51,6.72,14.55,11.7,25.74,6.3c6.68,7.37,2.65,20.17-7.3,23.16c-5.97,1.79-12.94-0.11-16.08-5.41
			C149.66,291.26,142.63,278.32,135.32,265.32z"/>
		<path d="M215.87,158.57c6.6-2.54,16.85,1.77,21.53,8.9c5.28,8.05,4.43,19.24-2.16,25.9C228.75,181.74,222.32,170.17,215.87,158.57
			z"/>
		<path d="M96.52,227.5c5.75,10.34,11.37,20.45,17.1,30.75c-1.94,1.07-3.74,2.2-5.65,3.06c-1.7,0.76-3.23,0.19-4.15-1.45
			c-4.64-8.3-9.28-16.6-13.84-24.93c-1.01-1.84-0.46-3.47,1.33-4.54C92.93,229.4,94.64,228.53,96.52,227.5z"/>
		<path d="M164.88,257.39c4.21,7.58,8.36,15.04,12.51,22.49c-5.32,3.87-13.79,1.68-17.49-4.47
			C156.09,269.08,158.31,260.68,164.88,257.39z"/>
	</g>
</g>
</svg>
