<?xml version="1.0" encoding="utf-8"?>
<!-- Generator: Adobe Illustrator 27.8.0, SVG Export Plug-In . SVG Version: 6.00 Build 0)  -->
<svg version="1.1" id="Layer_1" xmlns="http://www.w3.org/2000/svg" xmlns:xlink="http://www.w3.org/1999/xlink" x="0px" y="0px"
	 viewBox="0 0 400 400" style="enable-background:new 0 0 400 400;" xml:space="preserve">
<style type="text/css">
	.st0{fill:url(#SVGID_1_);}
	.st1{fill:url(#SVGID_00000036941981208030962530000007214861729270750378_);}
	.st2{fill:url(#SVGID_00000140010880530429585750000011644108850050811549_);}
	.st3{fill:url(#SVGID_00000007389417842776527560000001487223801735221673_);}
	.st4{fill:url(#SVGID_00000147183189972024240260000003394890803721393330_);}
</style>
<g>
	<linearGradient id="SVGID_1_" gradientUnits="userSpaceOnUse" x1="200" y1="-1.3508" x2="200" y2="389.4116">
		<stop  offset="0" style="stop-color:#EFDF00"/>
		<stop  offset="0.2805" style="stop-color:#E0D100"/>
		<stop  offset="0.6415" style="stop-color:#D4C600"/>
		<stop  offset="1" style="stop-color:#D0C200"/>
	</linearGradient>
	<circle class="st0" cx="200" cy="200" r="200"/>
	<g>
		<path d="M234.23,307.14c-6.7,0-12.85-2.3-18.89-4.82c-5.8-2.42-11.67-3.91-17.93-2.41c-2.13,0.51-4.31,1.15-6.23,2.17
			c-16.67,8.8-30.07,6.14-42.57-8.19c-17.12-19.63-26.78-42.49-29.39-68.23c-1.66-16.31-0.05-32.37,9.06-46.6
			c9.94-15.51,24.51-24.12,42.8-25.28c5.8-0.37,11.97,1.55,17.63,3.43c15.39,5.12,10.39,5.67,26.47,0.01
			c14.99-5.27,29.56-5.41,43.97,1.55c6.66,3.21,12.07,8.01,16.54,13.87c3.29,4.31,2.65,8.26-1.71,11.73
			c-7.67,6.09-12.99,13.64-14.76,23.5c-2.57,14.33,5.12,29.87,18.21,36.44c3.46,1.74,4.65,4.12,3.47,7.87
			c-5.05,16.02-12.54,30.75-23.63,43.48C251.22,302.61,243.79,307.06,234.23,307.14z"/>
		<path d="M246.21,102.31c-0.2,9.62-2.45,18.11-7.43,25.71c-6.33,9.65-13.59,18.44-25.17,22c-3.98,1.23-8.25,1.77-12.42,2.08
			c-4.64,0.34-6.69-1.65-6.92-6.35c-0.52-10.69,2.47-20.51,7.99-29.57c8.33-13.68,21.01-20.68,36.45-23.24
			c3.32-0.55,6.68,2.08,7.22,5.41C246.15,99.83,246.15,101.35,246.21,102.31z"/>
	</g>
</g>
</svg>
