<?xml version="1.0" encoding="utf-8"?>
<!-- Generator: Adobe Illustrator 27.8.0, SVG Export Plug-In . SVG Version: 6.00 Build 0)  -->
<svg version="1.1" id="Layer_1" xmlns="http://www.w3.org/2000/svg" xmlns:xlink="http://www.w3.org/1999/xlink" x="0px" y="0px"
	 viewBox="0 0 400 400" style="enable-background:new 0 0 400 400;" xml:space="preserve">
<style type="text/css">
	.st0{fill:url(#SVGID_1_);}
	.st1{fill:url(#SVGID_00000147941849129991384000000000240731289103741317_);}
	.st2{fill:url(#SVGID_00000158738231680059507070000013821311273145040293_);}
	.st3{fill:url(#SVGID_00000117655846830962273310000014066323298332029834_);}
	.st4{fill:url(#SVGID_00000136410262593076183830000012288941993411551888_);}
</style>
<g>
	<linearGradient id="SVGID_1_" gradientUnits="userSpaceOnUse" x1="200" y1="-1.3508" x2="200" y2="389.4116">
		<stop  offset="0" style="stop-color:#EFDF00"/>
		<stop  offset="0.2805" style="stop-color:#E0D100"/>
		<stop  offset="0.6415" style="stop-color:#D4C600"/>
		<stop  offset="1" style="stop-color:#D0C200"/>
	</linearGradient>
	<circle class="st0" cx="200" cy="200" r="200"/>
	<g>
		<path d="M241.43,92.86c4.03,2.43,4.36,5.18,1.02,8.53c-2.95,2.96-5.88,5.95-8.89,8.85c-0.97,0.93-0.91,1.32,0.19,2.12
			c10.53,7.64,16.92,17.89,19.15,30.72c0.44,2.54,0.72,5.11,0.65,7.69c-0.07,2.7-1.75,4.41-4.42,4.57
			c-0.56,0.03-1.11,0.02-1.67,0.02c-31.64,0-63.28,0-94.92,0c-4.76,0-6.25-1.39-6.03-6.08c0.72-15.26,7.18-27.55,19.46-36.67
			c1.42-1.05,1.39-1.56,0.19-2.69c-2.74-2.58-5.35-5.3-8.01-7.96c-3.78-3.79-3.68-5.93,0.44-9.1c0.7,0,1.39,0,2.09,0
			c1.59,0.59,2.76,1.73,3.92,2.91c3.23,3.27,6.54,6.46,9.71,9.78c1.04,1.08,1.88,1.19,3.25,0.65c13.64-5.4,27.56-6.02,41.38-1.17
			c4.35,1.52,6.89,1,9.82-2.39c3.06-3.54,6.29-7.04,10.18-9.79C239.75,92.86,240.59,92.86,241.43,92.86z M217.9,132.96
			c-0.04,2.51,1.96,4.6,4.41,4.6c2.36,0,4.4-2,4.46-4.38c0.06-2.48-1.97-4.57-4.45-4.59C219.93,128.58,217.95,130.54,217.9,132.96z
			 M182.09,132.98c-0.04-2.42-2.01-4.39-4.4-4.38c-2.48,0-4.52,2.09-4.47,4.57c0.05,2.38,2.07,4.38,4.44,4.4
			C180.12,137.58,182.13,135.5,182.09,132.98z"/>
		<path d="M200.14,164.35c15.83,0,31.65,0,47.48,0c4.59,0,5.94,1.38,5.94,6.02c0,22.8,0,45.6,0,68.4c0,11.59-5.63,19.4-16.66,22.94
			c-1.37,0.44-1.24,1.22-1.24,2.18c-0.01,10.11,0.09,20.22-0.06,30.33c-0.11,7.71-6.85,13.55-14.49,12.87
			c-6.98-0.62-12.17-6.41-12.21-13.8c-0.06-9.55-0.06-19.11,0.02-28.66c0.01-1.7-0.37-2.28-2.17-2.22c-4.6,0.13-9.2,0.1-13.8,0.01
			c-1.46-0.03-1.89,0.39-1.88,1.86c0.06,9.62,0.07,19.24,0.02,28.87c-0.04,7.52-5.23,13.37-12.29,13.94
			c-7.65,0.63-14.32-5.23-14.43-12.94c-0.13-9.9-0.08-19.8-0.01-29.7c0.01-1.68-0.35-2.48-2.14-3c-9.17-2.68-15.7-11.13-15.74-20.66
			c-0.11-23.85-0.05-47.69-0.04-71.54c0-3.31,1.78-4.9,5.37-4.9C167.93,164.34,184.03,164.35,200.14,164.35z"/>
		<path d="M289.19,209.06c0,10.53,0.11,21.05-0.04,31.58c-0.08,5.71-3.08,9.81-8.33,11.93c-5.17,2.1-10,1.08-14.14-2.69
			c-2.83-2.58-4.21-5.9-4.22-9.68c-0.04-20.84-0.09-41.69,0.02-62.53c0.04-7.64,6.03-13.34,13.5-13.3
			c7.44,0.04,13.17,5.83,13.22,13.54c0.06,10.39,0.02,20.77,0.02,31.16C289.2,209.06,289.2,209.06,289.19,209.06z"/>
		<path d="M110.8,208.78c0-10.46-0.07-20.91,0.03-31.37c0.06-5.63,2.91-9.73,8-11.95c5.01-2.19,9.84-1.41,14.06,2.15
			c3.17,2.67,4.65,6.23,4.65,10.33c0.03,20.7,0.07,41.41-0.02,62.11c-0.03,7.72-6.05,13.56-13.56,13.51
			c-7.38-0.05-13.13-5.93-13.17-13.62c-0.05-10.39-0.01-20.77-0.01-31.16C110.79,208.78,110.79,208.78,110.8,208.78z"/>
	</g>
</g>
</svg>
