<?xml version="1.0" encoding="utf-8"?>
<!-- Generator: Adobe Illustrator 27.8.0, SVG Export Plug-In . SVG Version: 6.00 Build 0)  -->
<svg version="1.1" id="Layer_1" xmlns="http://www.w3.org/2000/svg" xmlns:xlink="http://www.w3.org/1999/xlink" x="0px" y="0px"
	 viewBox="0 0 400 400" style="enable-background:new 0 0 400 400;" xml:space="preserve">
<style type="text/css">
	.st0{fill:url(#SVGID_1_);}
	.st1{fill:url(#SVGID_00000120550125148162893040000014867917508214782612_);}
	.st2{fill:url(#SVGID_00000155113646232745690360000002958267411354831787_);}
	.st3{fill:url(#SVGID_00000001641261919503994780000015190175655219239354_);}
	.st4{fill:url(#SVGID_00000094584141335745041870000013814196158452372665_);}
</style>
<g>
	<linearGradient id="SVGID_1_" gradientUnits="userSpaceOnUse" x1="200" y1="-1.3508" x2="200" y2="389.4116">
		<stop  offset="0" style="stop-color:#EFDF00"/>
		<stop  offset="0.2805" style="stop-color:#E0D100"/>
		<stop  offset="0.6415" style="stop-color:#D4C600"/>
		<stop  offset="1" style="stop-color:#D0C200"/>
	</linearGradient>
	<circle class="st0" cx="200" cy="200" r="200"/>
	<g>
		<path d="M81.42,195.84c1.36-3.9,2.29-8.03,4.17-11.67c5.4-10.45,14.4-17.34,24.36-23.04c3.93-2.25,8.05-4.17,11.78-6.09
			c0-7.85-0.34-15.56,0.09-23.22c0.44-7.83,2.58-15.34,6.66-22.15c6.92-11.55,17.19-17.08,30.62-16.71
			c10.87,0.3,20.55,4.37,29.75,9.75c3.25,1.9,6.41,4.01,9.45,6.23c1.32,0.96,2.1,0.92,3.38-0.02c8.51-6.23,17.56-11.45,27.83-14.21
			c11.42-3.07,22.48-2.8,32.5,4.38c8.35,5.98,12.52,14.63,14.8,24.34c2.32,9.88,2.27,19.88,1.21,29.91
			c-0.06,0.53-0.11,1.06-0.13,1.24c5.96,3.34,11.85,6.37,17.45,9.87c6.59,4.12,12.32,9.28,16.72,15.77
			c9.04,13.33,8.66,28.2-1.05,41.06c-6.91,9.15-16.16,15.32-26.23,20.43c-2.26,1.15-4.57,2.19-6.65,3.17
			c0.18,5.86,0.6,11.56,0.48,17.25c-0.18,8.77-1.62,17.36-5.59,25.3c-6.69,13.4-17.51,20.09-32.58,19.58
			c-10.87-0.37-20.51-4.54-29.7-9.93c-3.12-1.83-6.13-3.88-9.05-6c-1.28-0.93-2.05-0.99-3.37-0.02
			c-8.51,6.21-17.56,11.42-27.83,14.22c-8.36,2.28-16.75,2.8-25-0.31c-10.93-4.12-17.32-12.5-20.91-23.24
			c-3.28-9.8-3.82-19.93-3.06-30.17c0.16-2.15,0.35-4.29,0.52-6.3c-5.08-2.74-10.21-5.24-15.06-8.18
			c-8.82-5.34-16.63-11.88-21.4-21.24c-1.86-3.65-2.81-7.76-4.17-11.66C81.42,201.39,81.42,198.62,81.42,195.84z M199.96,245.32
			c7.7-0.45,15.4-0.82,23.08-1.41c1.17-0.09,2.63-0.95,3.33-1.9c9.21-12.6,16.97-26.06,23.27-40.34c0.42-0.95,0.4-2.4-0.02-3.35
			c-6.3-14.29-14.07-27.74-23.27-40.34c-0.7-0.95-2.15-1.7-3.35-1.88c-2.96-0.44-5.98-0.52-8.98-0.71
			c-12.57-0.8-25.13-0.52-37.65,0.75c-0.96,0.1-2.11,0.92-2.71,1.75c-9.23,12.69-17.04,26.21-23.38,40.56
			c-0.39,0.89-0.38,2.26,0.02,3.15c6.34,14.35,14.16,27.87,23.4,40.54c0.66,0.9,2.06,1.68,3.17,1.77
			C184.54,244.49,192.24,244.88,199.96,245.32z M275.61,169.35c-0.25,0.44-0.4,0.62-0.47,0.83c-3,9.52-6.03,19.03-8.95,28.58
			c-0.28,0.91-0.15,2.1,0.17,3.03c1.84,5.46,3.9,10.85,5.66,16.34c1.31,4.07,2.28,8.25,3.46,12.57c9.14-4.35,17.6-9.29,23.87-17.24
			c6.97-8.83,7-17.99,0.08-26.82C293.17,178.66,284.69,173.72,275.61,169.35z M135.65,149.43c10.19-2.05,20.21-4.03,30.2-6.11
			c0.87-0.18,1.74-0.89,2.37-1.57c6.59-7.12,13.13-14.29,19.68-21.45c0.29-0.31,0.5-0.69,0.79-1.08
			c-6.11-4.35-12.46-7.97-19.45-10.28c-5.38-1.78-10.92-2.83-16.58-1.46c-7.96,1.92-12.2,7.67-14.67,14.95
			C134.96,131.32,134.73,140.52,135.65,149.43z M124.38,230.65c0.21-0.41,0.39-0.66,0.48-0.94c2.98-9.45,5.98-18.88,8.88-28.36
			c0.3-0.98,0.14-2.24-0.18-3.25c-2.6-8.2-5.31-16.36-7.95-24.55c-0.44-1.35-0.71-2.75-1.06-4.17
			c-9.88,4.16-19.19,10.91-24.16,17.44c-6.7,8.79-6.72,17.71,0.09,26.46C106.74,221.34,115.28,226.29,124.38,230.65z M135.69,250.2
			c-0.11,1.39-0.28,2.84-0.34,4.29c-0.41,9.63,0.15,19.13,4.74,27.89c4.28,8.16,12.13,11.87,21.22,10.52
			c10.11-1.49,18.77-6.16,27-11.86c0.15-0.11,0.2-0.36,0.04-0.05c-6.94-7.88-13.69-15.58-20.53-23.2c-0.63-0.7-1.82-1.05-2.81-1.25
			c-3.24-0.64-6.55-1-9.77-1.71C148.73,253.38,142.26,251.77,135.69,250.2z M211.19,119.22c0.31,0.4,0.47,0.64,0.67,0.86
			c6.7,7.34,13.37,14.69,20.14,21.97c0.7,0.75,1.91,1.2,2.96,1.42c3.24,0.66,6.54,1,9.77,1.72c6.51,1.45,12.99,3.06,19.54,4.62
			c0.11-1.39,0.27-2.84,0.34-4.29c0.4-9.55-0.16-18.97-4.63-27.68c-3.76-7.33-9.86-11.12-18.12-10.88
			C230.21,107.26,220.61,112.87,211.19,119.22z M211.58,281.03c7.24,5,15.09,9.41,24.13,11.37c12.75,2.77,22-2.31,26.22-14.67
			c3.07-8.98,3.3-18.24,2.31-27.68c-0.39,0.08-0.69,0.13-0.98,0.19c-9.6,2.11-19.2,4.2-28.79,6.35c-0.84,0.19-1.81,0.58-2.36,1.2
			C225.3,265.43,218.55,273.13,211.58,281.03z M186.85,141.01c9.02,0,17.33,0,25.7,0c-4.23-4.36-8.34-8.6-12.71-13.1
			C195.48,132.32,191.37,136.46,186.85,141.01z M199.66,271.68c4.37-4.41,8.53-8.6,12.62-12.71c-8.22,0-16.49,0-25.23,0
			C191.48,263.43,195.63,267.61,199.66,271.68z M155.02,159.94c-0.09-0.18-0.19-0.37-0.28-0.55c-5.61,1.5-11.21,3-17.17,4.59
			c1.63,6.05,3.17,11.77,4.82,17.87C146.82,174.17,150.92,167.06,155.02,159.94z M257.58,181.88c1.65-6.2,3.18-11.92,4.78-17.93
			c-6.03-1.6-11.65-3.09-17.84-4.72C249.03,167.04,253.12,174.14,257.58,181.88z M142.37,218.12c-1.66,6.24-3.19,11.96-4.78,17.94
			c6.07,1.6,11.67,3.07,17.82,4.69C150.9,232.93,146.81,225.83,142.37,218.12z M262.38,236.04c-1.63-6.05-3.16-11.76-4.81-17.88
			c-4.42,7.67-8.54,14.82-13.04,22.64C250.74,239.15,256.38,237.64,262.38,236.04z"/>
		<path d="M170.73,199.83c0.1-16.24,13.14-29.16,29.36-29.09c16.33,0.07,29.3,13.23,29.14,29.54
			c-0.16,16.23-13.29,29.13-29.48,28.98C183.51,229.11,170.63,216.05,170.73,199.83z"/>
	</g>
</g>
</svg>
