<?xml version="1.0" encoding="utf-8"?>
<!-- Generator: Adobe Illustrator 27.8.0, SVG Export Plug-In . SVG Version: 6.00 Build 0)  -->
<svg version="1.1" id="Layer_1" xmlns="http://www.w3.org/2000/svg" xmlns:xlink="http://www.w3.org/1999/xlink" x="0px" y="0px"
	 viewBox="0 0 400 400" style="enable-background:new 0 0 400 400;" xml:space="preserve">
<style type="text/css">
	.st0{fill:url(#SVGID_1_);}
	.st1{fill:url(#SVGID_00000007398567398848549860000000398435508946592417_);}
	.st2{fill:url(#SVGID_00000181074476550820542500000012905152591172311201_);}
	.st3{fill:url(#SVGID_00000067224026721672801010000007424438594345500551_);}
	.st4{fill:url(#SVGID_00000111908148314100734910000001369152514929100676_);}
</style>
<g>
	<linearGradient id="SVGID_1_" gradientUnits="userSpaceOnUse" x1="200" y1="-1.3508" x2="200" y2="389.4116">
		<stop  offset="0" style="stop-color:#EFDF00"/>
		<stop  offset="0.2805" style="stop-color:#E0D100"/>
		<stop  offset="0.6415" style="stop-color:#D4C600"/>
		<stop  offset="1" style="stop-color:#D0C200"/>
	</linearGradient>
	<circle class="st0" cx="200" cy="200" r="200"/>
	<g>
		<path d="M200.32,154.25c25.53,0,51.07,0,76.6,0c9.51,0,14.19,4.66,14.19,14.1c0,21.22,0.01,42.45,0,63.67
			c0,8.82-4.84,13.68-13.67,13.7c-8.61,0.02-17.23,0.05-25.84-0.05c-1.08-0.01-2.55-0.4-3.18-1.16
			c-7.87-9.58-18.43-14.49-30.15-17.1c-18.16-4.05-35.93-2.79-52.55,6.02c-5.04,2.67-9.13,7.11-13.72,10.66
			c-0.95,0.74-2.2,1.54-3.32,1.56c-9.12,0.12-18.25,0.14-27.38,0.04c-7.25-0.08-12.38-5.24-12.39-12.47
			c-0.05-22.15-0.05-44.29,0-66.44c0.02-7.57,5.3-12.52,13.27-12.53C148.23,154.23,174.28,154.25,200.32,154.25z M134.43,180.75
			c2.56,0,5.11,0.04,7.67-0.01c2.4-0.04,4.24-0.9,4.4-3.64c0.15-2.41-1.41-3.9-4.4-3.95c-5.11-0.1-10.23-0.09-15.34,0.01
			c-2.38,0.04-4.27,1.06-4.26,3.79c0.01,2.7,1.83,3.72,4.26,3.79C129.32,180.81,131.88,180.75,134.43,180.75z M160.8,180.75
			c2.7,0,4.64-1.58,4.66-3.79c0.02-2.2-1.95-3.83-4.62-3.84c-2.79-0.01-4.55,1.45-4.56,3.81
			C156.27,179.3,157.98,180.75,160.8,180.75z"/>
		<path d="M101.34,222.72c-5.26,0-10.35,0-15.63,0c0-15.11,0-30.11,0-45.35c5.12,0,10.28,0,15.63,0
			C101.34,192.36,101.34,207.36,101.34,222.72z"/>
		<path d="M298.56,222.6c0-15.13,0-30.06,0-45.23c5.21,0,10.37,0,15.73,0c0,14.98,0,29.98,0,45.23
			C309.18,222.6,304.02,222.6,298.56,222.6z"/>
	</g>
</g>
</svg>
