<?xml version="1.0" encoding="utf-8"?>
<!-- Generator: Adobe Illustrator 27.8.0, SVG Export Plug-In . SVG Version: 6.00 Build 0)  -->
<svg version="1.1" id="Layer_1" xmlns="http://www.w3.org/2000/svg" xmlns:xlink="http://www.w3.org/1999/xlink" x="0px" y="0px"
	 viewBox="0 0 400 400" style="enable-background:new 0 0 400 400;" xml:space="preserve">
<style type="text/css">
	.st0{fill:url(#SVGID_1_);}
	.st1{fill:url(#SVGID_00000106139594453209926210000006447812304234713252_);}
	.st2{fill:url(#SVGID_00000153705074392953439310000004885528005686502277_);}
	.st3{fill:url(#SVGID_00000047040550015251950250000005854365171885900954_);}
	.st4{fill:url(#SVGID_00000088112392199492993540000018120085090901837998_);}
</style>
<g>
	<linearGradient id="SVGID_1_" gradientUnits="userSpaceOnUse" x1="200" y1="-1.3508" x2="200" y2="389.4116">
		<stop  offset="0" style="stop-color:#EFDF00"/>
		<stop  offset="0.2805" style="stop-color:#E0D100"/>
		<stop  offset="0.6415" style="stop-color:#D4C600"/>
		<stop  offset="1" style="stop-color:#D0C200"/>
	</linearGradient>
	<circle class="st0" cx="200" cy="200" r="200"/>
	<g>
		<path d="M307.14,114.17c0,48.83,0,97.66,0,146.49c-0.27,0.63-0.54,1.26-0.82,1.89c-1.63,3.71-5.19,6.06-9.11,5.94
			c0-8.82,0-17.64,0-26.56c1.09-0.07,2.1-0.14,3.1-0.2c0-2.28,0-4.4,0-6.66c-1.1,0-2.05,0-3.2,0c0-0.89,0-1.64,0-2.39
			c0-13.74,0-27.48,0-41.22c0-11.25-7.02-18.28-18.25-18.28c-42.55,0-85.09,0-127.64,0c-11.1,0-18.18,7.06-18.19,18.14
			c-0.01,13.81,0,27.62,0,41.43c0,0.74,0,1.48,0,2.45c-11.3,0-22.34,0-33.38,0c0,2.3,0,4.37,0,6.66c11.14,0,22.19,0,33.22,0
			c0,9.04,0,17.85,0,26.75c-9.99,0-19.82,0.01-29.65,0c-6.09-0.01-10.35-4.29-10.35-10.42c-0.01-47.15-0.01-94.3,0-141.45
			c0-6.28,4.21-10.5,10.48-10.5c64.45,0,128.89,0,193.34,0.01c0.96,0,1.95,0.08,2.89,0.3C303.65,107.51,305.8,110.45,307.14,114.17z
			"/>
		<path d="M307.14,289.12c-9.23,6.04-19.61,4.4-30.26,4.59c4.39-5.66,3.35-12,3.51-18.41c8.98,0,17.87,0,26.75,0
			C307.14,279.91,307.14,284.51,307.14,289.12z"/>
		<path d="M206.69,268.51c-22.38,0-44.53,0-66.95,0c0-0.79,0-1.53,0-2.26c0-25.18,0-50.35,0-75.53c0-6.72,4.09-10.83,10.78-10.83
			c43.03,0,86.06,0,129.09,0c6.69,0,10.78,4.11,10.79,10.82c0,25.18,0,50.35,0,75.53c0,0.69,0,1.38,0,2.21c-3.34,0-6.57,0-10.03,0
			c0-0.78,0-1.52,0-2.27c0-14.37,0.01-28.73,0-43.1c-0.01-10.98-7.08-18.09-18.01-18.1c-12.55-0.01-25.11-0.01-37.66,0
			c-10.92,0.01-18,7.14-18.01,18.11c-0.01,14.3,0,28.59,0,42.89C206.69,266.75,206.69,267.51,206.69,268.51z"/>
		<path d="M213.4,252.61c0-10.11-0.01-20.22,0-30.33c0.01-6.35,4.25-10.58,10.61-10.58c13.04-0.01,26.08-0.01,39.11,0
			c6.26,0,10.52,4.23,10.52,10.46c0.01,20.36,0.01,40.72,0,61.08c0,6.25-4.24,10.47-10.5,10.48c-13.11,0.01-26.22,0.01-39.32,0
			c-6.1-0.01-10.41-4.28-10.42-10.35C213.39,273.11,213.4,262.86,213.4,252.61z M236.93,224.97c4.45,0,8.79,0,13.16,0
			c0-2.24,0-4.35,0-6.43c-4.49,0-8.83,0-13.16,0C236.93,220.76,236.93,222.83,236.93,224.97z M246.85,278.59
			c-0.04-1.75-1.72-3.34-3.45-3.26c-1.67,0.07-3.19,1.63-3.21,3.29c-0.02,1.73,1.61,3.38,3.34,3.37
			C245.27,281.98,246.89,280.31,246.85,278.59z"/>
		<path d="M122.99,275.4c27.99,0,55.73,0,83.66,0c0.2,6.19-0.91,12.56,3.42,18.2c-0.95,0.05-1.54,0.1-2.12,0.1
			c-22.88,0-45.76,0.01-68.64,0c-5.18,0-10.06-1.17-14.62-3.67c-1.21-0.66-1.78-1.45-1.73-2.94
			C123.08,283.27,122.99,279.44,122.99,275.4z"/>
	</g>
</g>
</svg>
