<?xml version="1.0" encoding="utf-8"?>
<!-- Generator: Adobe Illustrator 27.8.0, SVG Export Plug-In . SVG Version: 6.00 Build 0)  -->
<svg version="1.1" id="Layer_1" xmlns="http://www.w3.org/2000/svg" xmlns:xlink="http://www.w3.org/1999/xlink" x="0px" y="0px"
	 viewBox="0 0 342 342" style="enable-background:new 0 0 342 342;" xml:space="preserve">
<style type="text/css">
	.st0{fill:url(#SVGID_1_);}
	.st1{font-family:'Poppins-Bold';}
	.st2{font-size:42.75px;}
	.st3{fill:url(#SVGID_00000134965256858479903610000002245051828404651146_);}
	.st4{fill:url(#SVGID_00000178905971472941834160000018192915946274513307_);}
	.st5{fill:url(#SVGID_00000139260206631370800580000000077275334114098850_);}
	.st6{fill:url(#SVGID_00000013912318256352291240000001025247256407549599_);}
	.st7{fill:#666666;}
</style>
<g>
	<g>
		<linearGradient id="SVGID_1_" gradientUnits="userSpaceOnUse" x1="171" y1="0" x2="171" y2="341.2723">
			<stop  offset="0" style="stop-color:#EFDF00"/>
			<stop  offset="0.2805" style="stop-color:#E0D100"/>
			<stop  offset="0.6415" style="stop-color:#D4C600"/>
			<stop  offset="1" style="stop-color:#D0C200"/>
		</linearGradient>
		<circle class="st0" cx="171" cy="171" r="171"/>
		<g>
			<path d="M165.94,135.14c0-20.67,0-41.07,0-61.61c2.89,0.41,4.83,2.01,6.11,4.42c0.62,1.16,1.03,2.45,1.38,3.73
				c0.33,1.22,0.89,2.13,2.24,1.87c1.38-0.28,1.52-1.41,1.31-2.61c-1.01-5.85-4.73-9.7-10.61-10.99c-0.1-0.02-0.19-0.11-0.4-0.24
				c0-4.79-0.22-9.66,0.08-14.49c0.2-3.19,3.59-4.92,6.88-3.71c1.46,0.53,2.77,1.63,3.98,2.66c1.47,1.25,2.18,1.37,3.54,0.05
				c3.26-3.16,7.08-3.95,11.19-2.19c4.07,1.74,6.01,5.08,6.06,9.51c0.02,2.27,0.89,2.87,3.08,2.14c3.97-1.33,7.59-0.71,10.6,2.25
				c3.07,3.03,3.66,6.7,2.33,10.74c-0.71,2.16-0.16,2.97,2.15,3.16c3.67,0.29,6.76,2.84,7.81,6.44c1.01,3.46-0.23,7.28-3.08,9.5
				c-2.52,1.96-2.54,2.3-0.23,4.45c3.2,2.99,3.34,7.82,0.3,11.06c-1.77,1.9-1.75,2.4,0.16,4.04c2.6,2.23,3.65,5.11,3.06,8.41
				c-0.6,3.38-2.65,5.73-5.94,6.89c-2.99,1.05-3.14,1.42-1.56,4.14c3.28,5.67-0.32,12.69-6.85,13.36c-0.35,0.04-0.69,0.05-1.04,0.08
				c-1.91,0.18-2.38,0.85-1.98,2.75c1.18,5.53-1.35,10.5-6.32,12.45c-6.61,2.58-13.63-2.5-13.54-9.82c0.01-0.87,0.21-1.75,0.09-2.6
				c-0.08-0.62-0.39-1.5-0.85-1.7c-0.56-0.24-1.62-0.16-2.04,0.23c-2.83,2.62-6.17,3.25-9.84,2.79c-1.17-0.14-2.13,0.17-2.33,1.48
				c-0.19,1.29,0.56,1.9,1.77,2.09c3.22,0.5,6.33,0.01,9.53-1.31c0.5,6.68,4.18,10.69,10.41,12.63c-1.73,1.93-3.31,3.29-6.1,3.18
				c-6.43-0.24-12.88-0.08-19.32-0.08c-0.63,0-1.25,0-1.98,0c0-10.56,0-20.97,0-31.37c1.8-0.33,3.58-0.53,5.29-1
				c4.76-1.3,8.31-4.22,10.79-8.46c0.64-1.09,0.99-2.22-0.33-3.02c-1.36-0.83-2.13,0.07-2.77,1.17
				C176.1,132.53,171.76,134.91,165.94,135.14z M201.62,127.72c-1.66,1.94-3.6,3.67-4.87,5.79c-2.58,4.31-2.7,9.13-1.94,13.98
				c0.17,1.09,0.89,1.79,2.09,1.6c1.23-0.19,1.49-1.05,1.45-2.17c-0.08-2.19-0.24-4.4-0.08-6.58c0.38-5.07,3.38-8.77,8.09-10.19
				c0.88-0.27,1.8-0.38,2.71-0.58c1.09-0.23,1.82-0.82,1.69-2.03c-0.12-1.12-0.87-1.5-1.94-1.54c-5-0.22-6.73-1.56-8.34-6.48
				c-0.37-1.13-0.96-1.96-2.22-1.63c-1.27,0.33-1.58,1.26-1.26,2.58C197.75,123.58,199.3,126.12,201.62,127.72z M189.38,83.86
				c-3.59,0.24-5.86,1.71-7.64,4.01c-4.21,5.44-4.32,14.33-0.21,19.86c1.75,2.36,3.98,4.03,7.08,4.19c1.19,0.06,2.15-0.27,2.27-1.57
				c0.12-1.29-0.75-1.91-1.92-1.99c-2.04-0.14-3.44-1.26-4.56-2.81c-2.93-4.05-3.02-10.81-0.2-14.94c1.19-1.74,2.71-2.99,4.94-3.15
				c1.17-0.08,1.97-0.83,1.7-1.93C190.64,84.8,189.72,84.24,189.38,83.86z M189.59,64.41c-0.87,0-1.82-0.22-2.58,0.07
				c-0.67,0.25-1.56,1.09-1.55,1.65c0.01,0.61,0.85,1.39,1.52,1.74c0.54,0.29,1.36,0.06,2.06,0.06c6.33,0.05,10.84,3.1,13.02,9.06
				c0.69,1.88,0.96,3.91,1.41,5.88c0.24,1.06,0.74,1.88,1.96,1.8c1.22-0.09,1.63-0.92,1.63-2.05
				C207.12,72.74,199.52,64.8,189.59,64.41z M193.91,95.97c-0.27,0.27-1.14,0.74-1.39,1.44c-0.4,1.11,0.38,1.82,1.47,2.12
				c0.22,0.06,0.45,0.08,0.68,0.11c5.55,0.87,9.04,4.06,10.55,9.44c0.26,0.94,0.41,1.92,0.56,2.89c0.17,1.09,0.78,1.69,1.88,1.6
				c1.2-0.09,1.71-0.9,1.67-2.02c-0.02-0.69-0.19-1.37-0.31-2.05C207.81,102.15,201.52,96.29,193.91,95.97z"/>
			<path d="M162.23,51.26c0,39.69,0,79.23,0,118.94c-7.05,0-14.09,0-21.26,0c-0.17-2.68-0.32-5.44-0.53-8.2
				c-0.62-8.35-2.06-16.52-5.21-24.34c-2.23-5.53-5.29-10.61-8.97-15.23c-16.55-20.78-7.9-57.49,21.88-68.34
				c4.03-1.47,8.42-1.92,12.65-2.82C161.24,51.18,161.7,51.26,162.23,51.26z"/>
			<path d="M182.82,195.84c-7.16,10.8-28.6,10.36-35.05,0C159.45,195.84,171.04,195.84,182.82,195.84z"/>
			<path d="M165.32,177.59c-7.25,0-14.49,0.01-21.74-0.01c-0.62,0-1.38,0.02-1.83-0.3c-0.48-0.34-0.95-1.11-0.91-1.65
				c0.04-0.54,0.6-1.22,1.12-1.52c0.5-0.29,1.23-0.22,1.86-0.22c14.32-0.01,28.64-0.01,42.95-0.01c0.23,0,0.46,0,0.7,0
				c1.25,0,2.28,0.46,2.3,1.81c0.02,1.45-1.03,1.91-2.37,1.91C180.05,177.58,172.68,177.59,165.32,177.59z"/>
			<path d="M165.26,188.43c7.13,0,14.26,0,21.39,0c0.46,0,1.06-0.17,1.36,0.05c0.68,0.49,1.57,1.12,1.67,1.8
				c0.08,0.51-0.86,1.3-1.5,1.75c-0.35,0.25-1.01,0.11-1.53,0.11c-14.26,0-28.52,0-42.79,0c-0.46,0-0.94,0.04-1.39-0.05
				c-1.09-0.2-2-0.84-1.65-1.98c0.21-0.68,1.13-1.53,1.81-1.61c1.89-0.22,3.82-0.08,5.73-0.08
				C154.02,188.43,159.64,188.43,165.26,188.43z"/>
			<path d="M165.22,181.14c7.19,0,14.38,0,21.57,0c0.52,0,1.18-0.15,1.53,0.1c0.6,0.43,1.37,1.11,1.39,1.71
				c0.02,0.59-0.74,1.28-1.31,1.76c-0.29,0.24-0.89,0.15-1.35,0.15c-14.55,0.01-29.11,0.01-43.66,0c-0.35,0-0.83,0.11-1.02-0.07
				c-0.6-0.58-1.45-1.26-1.5-1.94c-0.03-0.53,0.92-1.26,1.58-1.65c0.43-0.26,1.13-0.07,1.71-0.07
				C151.19,181.14,158.21,181.14,165.22,181.14z"/>
		</g>
	</g>
	<g>
		<text transform="matrix(1 0 0 1 121.8369 270.3106)" class="st1 st2">IDEA</text>
	</g>
</g>
</svg>
