<?xml version="1.0" encoding="utf-8"?>
<!-- Generator: Adobe Illustrator 27.8.0, SVG Export Plug-In . SVG Version: 6.00 Build 0)  -->
<svg version="1.1" id="Layer_1" xmlns="http://www.w3.org/2000/svg" xmlns:xlink="http://www.w3.org/1999/xlink" x="0px" y="0px"
	 viewBox="0 0 342 342" style="enable-background:new 0 0 342 342;" xml:space="preserve">
<style type="text/css">
	.st0{fill:url(#SVGID_1_);}
	.st1{fill:url(#SVGID_00000088094472122497466030000001022478476745025929_);}
	.st2{font-family:'Poppins-Bold';}
	.st3{font-size:42.75px;}
	.st4{fill:url(#SVGID_00000103970898656723557530000017691449069387312798_);}
	.st5{fill:url(#SVGID_00000097477675167868962830000015935365846472418703_);}
	.st6{fill:url(#SVGID_00000005226897852879491170000003757177059224029331_);}
	.st7{fill:#666666;}
</style>
<g>
	<linearGradient id="SVGID_1_" gradientUnits="userSpaceOnUse" x1="171" y1="-1.818989e-12" x2="171" y2="341.2723">
		<stop  offset="0" style="stop-color:#EFDF00"/>
		<stop  offset="0.2805" style="stop-color:#E0D100"/>
		<stop  offset="0.6415" style="stop-color:#D4C600"/>
		<stop  offset="1" style="stop-color:#D0C200"/>
	</linearGradient>
	<circle class="st0" cx="171" cy="171" r="171"/>
	<text transform="matrix(1 0 0 1 59.1875 270.311)" class="st2 st3">RESEARCH</text>
	<g>
		<path d="M111.04,169.79c-3.04-4.74-2.94-8.35,0.05-11.29c2.92-2.86,6.43-2.88,10.9,0.02c3.14-3.18,6.33-6.36,9.45-9.61
			c0.27-0.28,0.33-1.08,0.14-1.45c-2.58-5.04-4.24-10.36-4.88-15.99c-0.15-1.37-0.27-2.75-0.26-4.12c0.01-1-0.38-1.49-1.25-1.92
			c-7.15-3.54-14.28-7.13-21.42-10.7c-0.52-0.26-1.06-0.5-1.54-0.81c-2.32-1.51-3.09-4.49-1.78-6.83c1.32-2.37,4.17-3.31,6.73-2.05
			c6.36,3.12,12.68,6.32,19.01,9.48c0.47,0.24,0.95,0.46,1.51,0.73c2.9-10.81,8.58-19.69,17.8-26.08
			c9.13-6.33,19.29-8.95,30.47-8.09c0-4.9,0-9.69,0-14.63c-0.38-0.03-0.84-0.09-1.29-0.09c-6.83-0.01-13.67,0.01-20.5-0.02
			c-0.95-0.01-1.48,0.23-1.96,1.13c-1.38,2.58-3.62,3.94-6.57,3.97c-3.03,0.03-5.31-1.37-6.72-4c-0.5-0.93-1.06-1.11-1.99-1.09
			c-3.6,0.04-7.2-0.03-10.81,0.04c-1.38,0.03-2.42-0.36-3.37-1.37c-1.67-1.78-3.46-3.43-5.14-5.2c-0.75-0.79-1.51-1.12-2.62-1.11
			c-5.72,0.06-11.44,0.03-17.16,0.02c-2.03,0-3.12-0.9-3.12-2.54c0-1.64,1.09-2.53,3.13-2.53c6.36-0.01,12.71,0.02,19.07-0.02
			c1.27-0.01,2.21,0.41,3.08,1.31c1.83,1.91,3.71,3.79,5.63,5.61c0.41,0.39,1.07,0.69,1.63,0.7c3.34,0.06,6.67,0.07,10.01-0.01
			c0.52-0.01,1.23-0.49,1.51-0.95c1.58-2.61,3.78-4.11,6.87-4.08c3.02,0.03,5.28,1.46,6.65,4.12c0.47,0.91,1.06,0.97,1.89,0.97
			c7.89-0.02,15.79-0.01,23.68-0.01c2.52,0,3.3,0.79,3.3,3.32c0,5.09,0.08,10.17-0.05,15.26c-0.04,1.56,0.45,2.17,1.92,2.35
			c1.03,0.13,2.04,0.47,3.23,0.75c0-2.87-0.01-5.61,0-8.36c0.01-2.31,0.83-3.14,3.15-3.15c4.66-0.01,9.32-0.04,13.98,0.03
			c0.9,0.01,1.89,0.3,2.67,0.75c3.49,2,6.89,4.14,10.37,6.16c0.69,0.4,1.56,0.65,2.36,0.66c4.08,0.07,8.16,0.01,12.24,0.05
			c0.92,0.01,1.49-0.16,1.98-1.1c1.66-3.16,5.15-4.66,8.44-3.81c3.52,0.91,5.82,3.81,5.83,7.37c0.01,3.61-2.21,6.5-5.73,7.44
			c-3.37,0.91-6.86-0.58-8.58-3.82c-0.46-0.86-0.97-1.06-1.84-1.05c-4.56,0.03-9.11,0.05-13.67-0.02c-0.9-0.01-1.89-0.29-2.67-0.74
			c-3.58-2.05-7.09-4.22-10.65-6.31c-0.48-0.28-1.06-0.52-1.6-0.53c-3.65-0.05-7.31-0.02-11.21-0.02c0,2.67-0.03,5.29,0.04,7.91
			c0.01,0.32,0.53,0.73,0.9,0.91c14.02,6.83,22.18,18.14,24.99,33.3c1.71,9.25,0.34,18.22-3.59,26.79
			c-0.18,0.38-0.35,0.77-0.51,1.16c-0.04,0.09-0.05,0.2-0.03,0.12c4.67,4.68,9.26,9.28,13.58,13.61c2.51-2.33,5.14-4.7,7.69-7.15
			c1.95-1.87,3.81-3.83,5.67-5.79c0.91-0.95,1.95-1.31,3.15-0.8c1.14,0.49,1.51,1.48,1.51,2.72c-0.02,11.23-0.01,22.47-0.02,33.7
			c0,1.98-0.93,2.88-2.94,2.88c-11.23,0.01-22.46,0-33.69,0.02c-1.25,0-2.21-0.42-2.67-1.58c-0.45-1.13-0.13-2.15,0.77-3.02
			c4.07-3.95,8.11-7.92,12.17-11.87c0.41-0.4,0.9-0.73,1.24-1c-4.23-4.26-8.29-8.35-12.44-12.53c-0.15,0.14-0.46,0.39-0.72,0.68
			c-10.41,11.39-23.37,16.41-38.69,15.24c-5.8-0.44-11.31-2.13-16.47-4.86c-0.99-0.52-1.5-0.42-2.26,0.37
			c-2.98,3.08-6.05,6.08-9.08,9.09c2.75,5.14,2.61,8.44-0.43,11.24c-2.9,2.68-6.24,2.66-10.73-0.16c-4.07,4.1-8.12,8.29-12.28,12.36
			c-3.57,3.49-7.86,4.74-12.7,3.33c-8.98-2.6-11.97-14.1-5.44-21.09c3.65-3.91,7.53-7.61,11.32-11.38
			C110.1,170.33,110.64,170.07,111.04,169.79z M205,139.48c0.38-0.78,0.55-1.05,0.65-1.34c2.14-5.96,2.65-12.1,1.44-18.29
			c-3.57-18.37-19.31-30.23-37.97-28.75c-15.46,1.22-28.2,12.27-31.7,27.42c-0.27,1.17,0.01,1.7,1.05,2.2
			c3.53,1.69,7.02,3.44,10.5,5.24c0.82,0.43,1.37,0.36,2.09-0.21c6.12-4.81,12.27-9.57,18.41-14.35c3.32-2.58,5.52-2.46,8.47,0.49
			c8.65,8.65,17.3,17.3,25.94,25.96C204.29,138.24,204.55,138.8,205,139.48z M173.02,121.63c-0.38,0.28-0.76,0.56-1.13,0.85
			c-5.85,4.55-11.72,9.08-17.54,13.66c-2.11,1.66-4.24,1.88-6.63,0.63c-3.14-1.64-6.33-3.18-9.5-4.76
			c-0.34-0.17-0.71-0.27-1.13-0.43c2.1,14.97,13.44,26.72,28.84,29.68c13.68,2.62,27.31-3.69,33.84-12.86
			C190.89,139.51,182.03,130.64,173.02,121.63z M136.91,181.65c-0.21-0.36-0.45-1.1-0.94-1.6c-5.85-5.9-11.71-11.79-17.64-17.61
			c-0.57-0.56-1.75-0.91-2.53-0.77c-2.08,0.38-2.5,2.76-0.83,4.45c5.74,5.78,11.52,11.53,17.28,17.29c0.26,0.26,0.54,0.51,0.86,0.69
			C134.79,185.07,136.91,183.88,136.91,181.65z"/>
		<path d="M179.95,51.11c3.55,0,7.1-0.05,10.64,0.04c0.95,0.02,1.99,0.31,2.81,0.79c3.49,1.99,6.9,4.13,10.37,6.15
			c0.65,0.38,1.46,0.62,2.21,0.63c3.28,0.07,6.56-0.01,9.85,0.05c0.97,0.02,1.47-0.27,1.94-1.15c1.85-3.43,5.82-4.84,9.38-3.47
			c3.44,1.33,5.5,5.03,4.77,8.56c-0.79,3.81-4.18,6.45-8.08,6.16c-2.66-0.2-4.79-1.48-6.01-3.84c-0.56-1.08-1.22-1.23-2.23-1.22
			c-3.6,0.03-7.2,0.07-10.8-0.02c-0.95-0.02-1.98-0.32-2.81-0.79c-3.49-1.99-6.9-4.13-10.38-6.13c-0.69-0.4-1.57-0.63-2.36-0.64
			c-6.72-0.05-13.45-0.03-20.17-0.03c-2.07,0-3.15-0.86-3.17-2.49c-0.03-1.69,1.07-2.58,3.23-2.59
			C172.75,51.11,176.35,51.11,179.95,51.11z"/>
	</g>
</g>
</svg>
