<?xml version="1.0" encoding="utf-8"?>
<!-- Generator: Adobe Illustrator 27.8.0, SVG Export Plug-In . SVG Version: 6.00 Build 0)  -->
<svg version="1.1" id="Layer_1" xmlns="http://www.w3.org/2000/svg" xmlns:xlink="http://www.w3.org/1999/xlink" x="0px" y="0px"
	 viewBox="0 0 342 342" style="enable-background:new 0 0 342 342;" xml:space="preserve">
<style type="text/css">
	.st0{fill:url(#SVGID_1_);}
	.st1{fill:url(#SVGID_00000102513117918263925420000013332091737216277411_);}
	.st2{fill:url(#SVGID_00000060030906750810724220000006854933038404830360_);}
	.st3{font-family:'Poppins-Bold';}
	.st4{font-size:42.75px;}
	.st5{fill:url(#SVGID_00000103264860069040714280000007579320080202157496_);}
	.st6{fill:url(#SVGID_00000141417574338207790330000017738067111753311106_);}
	.st7{fill:#666666;}
</style>
<g>
	<linearGradient id="SVGID_1_" gradientUnits="userSpaceOnUse" x1="171" y1="-1.818989e-12" x2="171" y2="341.2723">
		<stop  offset="0" style="stop-color:#EFDF00"/>
		<stop  offset="0.2805" style="stop-color:#E0D100"/>
		<stop  offset="0.6415" style="stop-color:#D4C600"/>
		<stop  offset="1" style="stop-color:#D0C200"/>
	</linearGradient>
	<circle class="st0" cx="171" cy="171" r="171"/>
	<text transform="matrix(1 0 0 1 72.7822 270.311)" class="st3 st4">PROCESS</text>
	<g>
		<path d="M208.44,83.16c-0.63,2.15-1.11,3.83-1.61,5.5c-0.74,2.48-1.55,4.95-2.21,7.45c-0.15,0.55,0,1.37,0.33,1.83
			c2.79,3.84,2.81,3.79,7.5,3.33c2.85-0.28,5.71-0.42,8.56-0.66c1.55-0.13,2.52,0.56,3.05,1.98c1.04,2.77,2.07,5.55,3.14,8.31
			c0.61,1.57,0.21,2.75-1.12,3.74c-3.11,2.3-6.17,4.67-9.29,6.96c-0.82,0.6-0.94,1.28-1.08,2.24c-0.49,3.36,1.02,5.23,3.9,6.65
			c2.6,1.28,4.99,3,7.46,4.54c1.68,1.05,1.99,1.79,1.49,3.71c-0.7,2.66-1.44,5.31-2.17,7.96c-0.65,2.38-1.15,2.82-3.66,2.88
			c-3.71,0.09-7.42,0.15-11.14,0.15c-1,0-1.54,0.4-2.21,1.15c-2.17,2.43-2.35,4.81-0.8,7.7c1.37,2.55,2.23,5.37,3.36,8.05
			c0.62,1.47,0.39,2.66-0.87,3.67c-2.36,1.88-4.71,3.78-7.07,5.67c-1.2,0.96-2.38,0.94-3.63,0.05c-3.2-2.27-6.44-4.48-9.63-6.76
			c-0.85-0.61-1.55-0.64-2.59-0.4c-3.13,0.72-4.58,2.54-5.01,5.7c-0.39,2.87-1.31,5.66-2.01,8.49c-0.46,1.84-1.23,2.5-3.09,2.58
			c-2.86,0.13-5.72,0.2-8.58,0.33c-1.71,0.08-2.78-0.62-3.35-2.28c-1.25-3.65-2.63-7.26-3.88-10.91c-0.31-0.89-0.74-1.37-1.67-1.64
			c-4.12-1.17-4.11-1.2-7.35,1.58c-2.21,1.9-4.44,3.79-6.67,5.67c-1.48,1.24-2.44,1.32-4.01,0.3c-2.45-1.59-4.87-3.21-7.32-4.78
			c-1.42-0.91-1.79-2.1-1.28-3.69c1.17-3.68,2.27-7.38,3.48-11.05c0.33-1.01,0.26-1.72-0.45-2.56c-2.97-3.48-2.94-3.46-7.58-2.99
			c-2.85,0.29-5.71,0.44-8.56,0.65c-1.39,0.1-2.35-0.5-2.85-1.8c-1.11-2.92-2.2-5.84-3.31-8.76c-0.56-1.48-0.04-2.55,1.17-3.44
			c3.12-2.29,6.21-4.62,9.35-6.88c0.76-0.55,0.94-1.15,1.05-2.09c0.4-3.52-0.99-5.69-4.21-7.18c-2.53-1.17-4.8-2.9-7.2-4.35
			c-1.41-0.85-1.94-1.97-1.46-3.61c0.8-2.74,1.5-5.51,2.25-8.27c0.54-1.98,1.16-2.53,3.24-2.59c3.87-0.1,7.74-0.16,11.61-0.17
			c0.96,0,1.52-0.33,2.05-1.13c2.4-3.65,2.43-3.64,0.8-7.64c-1.08-2.65-2.16-5.29-3.23-7.94c-0.79-1.96-0.62-2.69,0.99-4.01
			c2.22-1.81,4.49-3.56,6.69-5.38c1.3-1.08,2.53-1.09,3.89-0.12c3.24,2.31,6.48,4.6,9.79,6.81c0.54,0.36,1.44,0.4,2.12,0.29
			c3.25-0.53,4.86-2.44,5.27-5.79c0.35-2.82,1.28-5.56,1.96-8.33c0.47-1.93,1.23-2.56,3.21-2.64c2.86-0.12,5.72-0.2,8.58-0.32
			c1.65-0.07,2.68,0.62,3.22,2.22c1.24,3.71,2.52,7.41,3.89,11.08c0.23,0.61,0.94,1.16,1.56,1.47c2.93,1.47,5.36,0.92,7.66-1.57
			c1.93-2.09,4.31-3.75,6.51-5.59c1.53-1.27,2.38-1.34,4-0.3c2.45,1.58,4.93,3.12,7.29,4.82C207.51,81.58,207.97,82.56,208.44,83.16
			z M170.95,160.54c17.94,0.12,32.94-14.71,33.12-32.75c0.18-18.11-14.6-33.29-32.59-33.46c-18.48-0.17-33.46,14.57-33.6,33.07
			C137.74,145.46,152.67,160.41,170.95,160.54z"/>
		<path d="M234.21,116.14c-1.09-1.37-2.09-2.63-3.04-3.83c0.05-0.19,0.05-0.26,0.08-0.29c0.84-0.84,2.2-1.57,2.39-2.53
			c0.2-1.01-0.6-2.32-1.19-3.36c-1.59-2.78-1.15-5.11,0.73-7.7c1.44-2,2.87-3.11,5.34-2.8c1.04,0.13,2.13-0.07,3.18,0.04
			c1.42,0.15,2.1-0.36,2-1.91c-1.66-1.03-3.34-2.13-5.08-3.12c-1.22-0.7-1.88-1.67-1.92-3.06c-0.04-1.48-0.22-2.99-0.05-4.44
			c0.09-0.79,0.64-1.68,1.25-2.24c1.33-1.2,2.87-2.18,4.24-3.34c0.38-0.32,0.66-1.01,0.64-1.51c-0.03-0.92-0.78-0.92-1.52-0.87
			c-1.85,0.15-3.71,0.38-5.55,0.31c-0.84-0.03-1.66-0.68-2.49-1.06c-0.04-0.02-0.07-0.08-0.1-0.12c-4.2-5.35-3.96-3.6-2.04-9.98
			c0.24-0.8,0.46-1.61,0.71-2.5c-0.5-0.34-0.97-0.66-1.52-1.03c-1.61,1.36-3.22,2.65-4.75,4.03c-1.06,0.95-2.17,1.2-3.51,0.79
			c-6.3-1.92-5.05-0.49-7.2-6.6c-0.23-0.65-0.35-1.37-0.73-1.92c-0.26-0.37-0.88-0.69-1.33-0.68c-0.36,0.01-0.9,0.49-1.01,0.86
			c-0.5,1.67-0.87,3.38-1.28,5.08c-0.05,0.21-0.06,0.42-0.13,0.62c-0.76,2.25-6.94,4.45-8.93,3.15c-1.77-1.16-3.48-2.41-5.3-3.66
			c-0.47,0.34-0.93,0.67-1.52,1.09c0.77,1.97,1.49,3.94,2.31,5.87c0.53,1.24,0.44,2.32-0.32,3.43c-3.59,5.25-1.97,4.68-8.67,4.85
			c-1.32,0.03-2.64,0-4.07,0c0-1.66,0-3.26,0-5.26c1.9,0,3.79,0.03,5.68-0.01c1.69-0.04,2.5-1.33,1.86-2.9
			c-0.73-1.81-1.48-3.62-2.25-5.42c-0.6-1.4-0.38-2.57,0.82-3.55c1.36-1.1,2.71-2.21,4.06-3.33c1.13-0.94,2.29-0.97,3.5-0.14
			c1.7,1.17,3.41,2.34,5.12,3.49c1.43,0.96,2.66,0.49,3.07-1.16c0.48-1.9,0.95-3.8,1.4-5.7c0.39-1.63,1.39-2.38,3.07-2.4
			c1.48-0.01,2.96-0.18,4.45-0.24c2.02-0.09,2.78,0.41,3.47,2.29c0.68,1.84,1.31,3.69,2,5.52c0.54,1.45,2.22,1.86,3.41,0.85
			c1.5-1.26,3-2.53,4.47-3.82c1.21-1.06,2.44-1.13,3.77-0.25c1.32,0.88,2.62,1.8,3.98,2.62c1.47,0.89,1.77,2.14,1.34,3.69
			c-0.51,1.83-1.03,3.67-1.53,5.5c-0.45,1.67,0.39,2.73,2.15,2.65c2.01-0.09,4.02-0.23,6.03-0.39c1.48-0.12,2.42,0.54,2.96,1.88
			c0.64,1.57,1.27,3.14,1.94,4.7c0.64,1.48,0.33,2.67-0.96,3.63c-1.65,1.24-3.3,2.49-4.93,3.77c-1.21,0.95-1.11,2.5,0.2,3.32
			c1.57,0.99,3.16,1.95,4.73,2.93c1.85,1.15,2.15,1.88,1.61,3.95c-0.36,1.38-0.72,2.76-1.11,4.14c-0.6,2.13-1.18,2.57-3.34,2.64
			c-1.96,0.06-3.92,0.11-5.88,0.2c-1.57,0.07-2.39,1.36-1.81,2.83c0.73,1.82,1.48,3.63,2.25,5.43c0.64,1.48,0.31,2.67-0.95,3.64
			C237.05,113.88,235.69,114.97,234.21,116.14z"/>
		<path d="M132.77,198.32c0.42-1.9,0.85-3.85,1.28-5.81c0.07-0.31,0.12-0.63,0.24-0.92c0.88-2.17,7.12-4.12,9.05-2.81
			c1.71,1.16,3.39,2.36,5.12,3.57c0.49-0.37,0.95-0.72,1.5-1.14c-0.77-1.97-1.5-3.94-2.31-5.88c-0.53-1.25-0.4-2.32,0.35-3.44
			c3.77-5.61,2.2-4.7,8.8-4.78c0.41-0.01,0.82,0,1.33,0c0,1.76,0,3.37,0,5.1c-1.02,0.06-2.01,0.12-3.01,0.17
			c-1.9,0.09-2.69,1.31-1.96,3.08c0.71,1.71,1.45,3.41,2.14,5.13c0.72,1.77,0.49,2.64-1.03,3.89c-1.19,0.98-2.42,1.9-3.6,2.88
			c-1.28,1.06-2.55,1.1-3.9,0.12c-1.59-1.15-3.2-2.27-4.82-3.37c-1.37-0.94-2.83-0.4-3.25,1.19c-0.51,1.94-1.01,3.89-1.47,5.85
			c-0.37,1.57-1.34,2.3-2.94,2.34c-1.64,0.04-3.28,0.19-4.92,0.26c-1.5,0.07-2.52-0.57-3.01-2.05c-0.59-1.81-1.23-3.6-1.85-5.4
			c-0.67-1.93-2.18-2.36-3.71-1.06c-1.41,1.2-2.84,2.39-4.23,3.62c-1.26,1.11-2.53,1.18-3.9,0.24c-1.27-0.87-2.53-1.76-3.84-2.54
			c-1.54-0.92-1.84-2.19-1.36-3.81c0.55-1.82,1.06-3.66,1.57-5.49c0.4-1.45-0.48-2.64-1.97-2.58c-2.01,0.08-4.02,0.2-6.03,0.38
			c-1.67,0.15-2.73-0.49-3.27-2.09c-0.5-1.5-1.06-2.99-1.64-4.47c-0.61-1.55-0.31-2.76,1.08-3.74c1.56-1.1,3.07-2.27,4.58-3.43
			c1.28-0.99,1.18-2.77-0.19-3.63c-1.62-1.01-3.22-2.04-4.87-3c-1.4-0.81-1.87-1.96-1.46-3.48c0.45-1.69,0.9-3.37,1.39-5.05
			c0.38-1.31,1.24-2.03,2.67-2.05c2.01-0.03,4.03-0.12,6.04-0.19c1.82-0.07,2.64-1.29,1.96-2.96c-0.68-1.67-1.38-3.32-2.07-4.98
			c-0.91-2.19-0.73-2.88,1.13-4.38c0.58-0.46,1.17-0.91,1.89-1.47c1.07,1.34,2.12,2.64,3.17,3.95c-0.16,0.03-0.32,0.06-0.48,0.09
			c0.04,0.76-0.06,1.57,0.16,2.27c0.48,1.51,1.07,2.99,1.73,4.43c0.59,1.31,0.39,2.41-0.39,3.57c-3.74,5.54-2.19,4.68-8.66,4.76
			c-0.32,0-0.64,0.04-0.95-0.01c-1.36-0.21-2.14,0.26-2.11,1.88c1.66,1.03,3.38,2.16,5.17,3.17c1.39,0.78,2.03,1.83,2.06,3.45
			c0.14,6.69,0.51,4.95-4.1,8.63c-0.74,0.59-1.5,1.16-2.22,1.7c0.12,1.42,0.61,2.05,2.14,1.75c1.6-0.31,3.27-0.3,4.91-0.43
			c0.16-0.01,0.32-0.02,0.48-0.01c2.41,0.13,6.16,5.36,5.49,7.68c-0.49,1.68-1.07,3.33-1.47,5.02c-0.11,0.48,0.1,1.31,0.45,1.54
			c0.33,0.22,1.16,0.02,1.56-0.27c1.19-0.88,2.29-1.89,3.42-2.85c0.36-0.31,0.71-0.64,1.11-0.9c1.89-1.23,8,0.67,8.83,2.77
			c0.61,1.52,1.19,3.06,1.66,4.63C130.61,198.18,131.2,198.83,132.77,198.32z"/>
		<path d="M91.87,111.07c2.03,2.21,3.84,4.17,5.87,6.38c2.9-18.27,10.97-33.51,24.73-45.52c13.78-12.04,29.95-18.01,48.49-18.4
			c0,0.93,0,1.76,0,2.58c0,0.79,0,1.58,0,2.49c-21.7,0.73-39.64,9.13-53.47,25.88c-8.7,10.54-13.42,23.92-14.27,32.69
			c1.97-1.76,3.79-3.39,5.6-5.02c0,2.27,0.03,4.41-0.03,6.55c-0.01,0.36-0.33,0.78-0.62,1.04c-2.77,2.55-5.57,5.06-8.49,7.72
			c-2.69-2.98-5.35-5.91-7.98-8.86c-0.16-0.17-0.25-0.48-0.24-0.72C91.58,115.74,91.72,113.59,91.87,111.07z"/>
		<path d="M171.06,201.32c0-1.85,0-3.42,0-5.09c20.4-0.6,37.62-8.18,51.27-23.37c8.92-9.93,14.32-21.61,16.23-35.01
			c-1.81,1.61-3.63,3.23-5.42,4.83c0-2.29-0.03-4.48,0.03-6.66c0.01-0.34,0.4-0.73,0.7-1c2.74-2.51,5.49-4.99,8.4-7.63
			c1.68,1.85,3.22,3.81,5.02,5.48c2.4,2.23,3.89,4.62,2.97,8.04c-0.21,0.77-0.03,1.65-0.41,2.64c-1.79-1.96-3.59-3.93-5.64-6.18
			c-2.91,18.33-11.01,33.6-24.81,45.62C205.61,195,189.46,200.97,171.06,201.32z"/>
		<path d="M130.89,185.12c-6.99-0.29-12.01-2.95-15.21-8.48c-3.23-5.57-3.12-11.29-0.03-16.95c0.18-0.32,0.38-0.64,0.6-0.94
			c0.96-1.27,2.38-1.56,3.62-0.76c1.27,0.82,1.63,2.19,0.76,3.6c-1.32,2.13-2.06,4.4-1.98,6.91c0.25,7.56,7.07,12.75,14.53,11.09
			c0.66-0.15,1.39-0.31,2.01-0.16c1.12,0.28,1.79,1.12,1.83,2.32c0.05,1.27-0.58,2.22-1.77,2.53
			C133.63,184.72,131.94,184.93,130.89,185.12z"/>
		<path d="M231.42,86.89c-0.45,1.94-0.79,3.92-1.37,5.82c-0.53,1.73-1.99,2.38-3.48,1.84c-1.45-0.53-2.02-1.94-1.47-3.66
			c2.23-6.95-1.06-13.7-7.78-15.43c-1.96-0.5-4.17-0.28-6.24-0.07c-1.87,0.19-3.15-0.25-3.53-1.75c-0.39-1.55,0.4-2.7,2.22-3.23
			C220.44,67.28,231.2,75.55,231.42,86.89z"/>
		<path d="M171,99.42c15.33-0.03,27.94,12.44,27.98,27.66c0.04,15.7-12.34,28.33-27.78,28.35c-15.74,0.02-28.21-12.38-28.22-28.07
			C142.96,111.92,155.46,99.45,171,99.42z M149.33,127.36c-0.01,11.93,9.68,21.69,21.58,21.73c11.89,0.04,21.72-9.73,21.72-21.59
			c0-11.94-9.69-21.7-21.58-21.72C159.13,105.75,149.34,115.48,149.33,127.36z"/>
	</g>
</g>
</svg>
