<?xml version="1.0" encoding="utf-8"?>
<!-- Generator: Adobe Illustrator 27.8.0, SVG Export Plug-In . SVG Version: 6.00 Build 0)  -->
<svg version="1.1" id="Layer_1" xmlns="http://www.w3.org/2000/svg" xmlns:xlink="http://www.w3.org/1999/xlink" x="0px" y="0px"
	 viewBox="0 0 342 342" style="enable-background:new 0 0 342 342;" xml:space="preserve">
<style type="text/css">
	.st0{fill:url(#SVGID_1_);}
	.st1{fill:url(#SVGID_00000147220501305784955180000007175309783704384407_);}
	.st2{fill:url(#SVGID_00000029036339878979149490000000102087219068622740_);}
	.st3{fill:url(#SVGID_00000008141190749732541930000010081811393361811093_);}
	.st4{font-family:'Poppins-Bold';}
	.st5{font-size:42.75px;}
	.st6{fill:url(#SVGID_00000111877610303601426730000017375157514075071899_);}
	.st7{fill:#666666;}
</style>
<g>
	<linearGradient id="SVGID_1_" gradientUnits="userSpaceOnUse" x1="171" y1="-1.818989e-12" x2="171" y2="341.2723">
		<stop  offset="0" style="stop-color:#EFDF00"/>
		<stop  offset="0.2805" style="stop-color:#E0D100"/>
		<stop  offset="0.6415" style="stop-color:#D4C600"/>
		<stop  offset="1" style="stop-color:#D0C200"/>
	</linearGradient>
	<circle class="st0" cx="171" cy="171" r="171"/>
	<text transform="matrix(1 0 0 1 120.876 270.311)" class="st4 st5">TIME</text>
	<g>
		<path d="M133.44,77.22c1.42,1.93,2.71,3.68,3.81,5.18c4.52-1.93,8.74-4.02,13.15-5.53c3.73-1.27,7.67-1.91,11.54-2.75
			c0.86-0.19,1.28-0.4,1.24-1.37c-0.07-1.67-0.02-3.34-0.02-5.27c-1.07,0-2.09,0.01-3.11,0c-4.26-0.06-7.45-3.37-7.52-7.81
			c-0.08-4.93,2.79-8.44,7.23-8.5c7.48-0.1,14.96-0.1,22.44,0c4.35,0.06,7.28,3.48,7.27,8.16c-0.01,4.59-3.07,7.99-7.36,8.14
			c-1.03,0.04-2.07,0.01-3.27,0.01c0,1.17,0,2.2,0,3.23c0,0.99,0,1.98,0,3.14c9.15,1.2,17.69,4.07,25.7,8.89
			c1.35-1.87,2.65-3.67,4.02-5.56c-3.49-2.56-6.86-5.03-10.22-7.5c-3.17-2.32-3.54-4.79-0.88-7.61c7.1-7.5,15.76-10.2,25.66-7.15
			c9.88,3.05,15.63,10.04,17.25,20.28c0.93,5.87-0.42,11.31-3.5,16.34c-1.78,2.91-4.22,3.36-7.01,1.34
			c-3.46-2.52-6.91-5.05-10.55-7.71c-1.37,1.85-2.7,3.63-4.36,5.87c1.11,0.94,2.36,1.82,3.38,2.91
			c9.82,10.42,15.59,22.79,17.23,36.96c1.77,15.38-1.58,29.68-9.96,42.75c-0.59,0.92-0.74,1.69-0.34,2.74
			c2.06,5.41,4.04,10.85,6.04,16.28c2.17,5.9-1.33,11.02-7.59,11.08c-3.09,0.03-6.17-0.03-9.26,0.01c-2.73,0.04-4.97-0.95-6.85-2.9
			c-1.74-1.81-3.52-3.57-5.27-5.35c-20.88,10.6-41.67,10.6-62.64,0.02c-1.68,1.69-3.47,3.44-5.2,5.24c-1.95,2.04-4.28,3.06-7.13,3
			c-3.03-0.07-6.07,0.01-9.1-0.02c-6.17-0.06-9.71-5.19-7.58-10.97c1.96-5.34,3.89-10.68,5.93-15.99c0.5-1.31,0.38-2.26-0.38-3.44
			c-7.68-12.01-11.09-25.19-10.07-39.36c1.19-16.54,7.81-30.7,19.72-42.32c0.22-0.22,0.45-0.44,0.66-0.67
			c0.07-0.07,0.09-0.18,0.19-0.39c-1.29-1.74-2.61-3.53-4.04-5.45c-2.71,1.98-5.31,3.88-7.91,5.78c-1.06,0.77-2.09,1.58-3.18,2.29
			c-2.32,1.52-4.68,1-6.25-1.31c-9.48-14.04-1.32-34.14,15.33-37.56c9.42-1.94,17.46,0.75,23.97,7.82c2.5,2.71,2.15,5.24-0.82,7.43
			C140.43,72.12,137.01,74.6,133.44,77.22z M218.49,138.46c0.05-26.25-21-47.37-47.34-47.52c-26.21-0.15-47.56,21.12-47.61,47.43
			c-0.05,26.24,21.04,47.41,47.35,47.51C197.19,185.98,218.44,164.81,218.49,138.46z"/>
		<path d="M174.36,116.79c0,3.4,0.04,6.79-0.02,10.19c-0.02,1.01,0.26,1.56,1.22,2.02c4.98,2.4,7.15,7.84,5.24,13.06
			c-0.3,0.82-0.21,1.28,0.41,1.88c3.06,3,6.09,6.04,9.1,9.08c0.51,0.51,1.02,1.09,1.31,1.73c0.62,1.36,0.07,3.02-1.15,3.9
			c-1.29,0.92-3.02,0.8-4.29-0.44c-3.1-3.04-6.18-6.09-9.2-9.21c-0.87-0.89-1.54-1.08-2.79-0.65c-5.16,1.78-10.84-0.93-12.89-5.98
			c-2.06-5.08,0.08-10.9,5.03-13.3c1.1-0.53,1.37-1.13,1.36-2.25c-0.05-6.64-0.03-13.27-0.02-19.91c0-0.62,0.02-1.26,0.14-1.87
			c0.32-1.61,1.65-2.68,3.2-2.68c1.58,0,2.86,1.05,3.2,2.68c0.11,0.56,0.14,1.14,0.14,1.71
			C174.36,110.1,174.36,113.45,174.36,116.79z"/>
	</g>
</g>
</svg>
