<?xml version="1.0" encoding="utf-8"?>
<!-- Generator: Adobe Illustrator 27.8.0, SVG Export Plug-In . SVG Version: 6.00 Build 0)  -->
<svg version="1.1" id="Layer_1" xmlns="http://www.w3.org/2000/svg" xmlns:xlink="http://www.w3.org/1999/xlink" x="0px" y="0px"
	 viewBox="0 0 342 342" style="enable-background:new 0 0 342 342;" xml:space="preserve">
<style type="text/css">
	.st0{fill:url(#SVGID_1_);}
	.st1{fill:url(#SVGID_00000112616572662635472880000003648920251938630799_);}
	.st2{fill:url(#SVGID_00000159458933690838537690000015284116463990092930_);}
	.st3{fill:url(#SVGID_00000169548677827655074780000004625078778886772647_);}
	.st4{fill:url(#SVGID_00000107571440509830418750000016496822025294941849_);}
	.st5{font-family:'Poppins-Bold';}
	.st6{font-size:42.75px;}
	.st7{fill:#666666;}
</style>
<g>
	<linearGradient id="SVGID_1_" gradientUnits="userSpaceOnUse" x1="171" y1="-1.818989e-12" x2="171" y2="341.2723">
		<stop  offset="0" style="stop-color:#EFDF00"/>
		<stop  offset="0.2805" style="stop-color:#E0D100"/>
		<stop  offset="0.6415" style="stop-color:#D4C600"/>
		<stop  offset="1" style="stop-color:#D0C200"/>
	</linearGradient>
	<circle class="st0" cx="171" cy="171" r="171"/>
	<text transform="matrix(1 0 0 1 111.9619 270.311)" class="st5 st6">GOAL</text>
	<g>
		<path d="M94.66,122.4c0.4-2.79,0.69-5.6,1.2-8.37c3.26-17.78,11.74-32.63,25.39-44.45c11.23-9.74,24.32-15.61,39.01-17.69
			c15.28-2.16,29.94,0.13,43.88,6.8c0.13,0.06,0.24,0.17,0.57,0.42c-1.9,1.86-3.9,3.55-5.56,5.54c-1.37,1.64-2.48,1.72-4.46,0.96
			c-37.67-14.47-79.22,7.83-88.18,47.25c-8.14,35.79,14.7,71.53,50.63,79.25c35.62,7.65,70.9-15.05,78.55-50.55
			c2.87-13.32,1.82-26.32-3.3-38.96c-0.45-1.11-0.24-1.69,0.61-2.49c2.16-2.04,4.16-4.24,6.22-6.38c0.2,0.02,0.4,0.04,0.59,0.06
			c1.57,4.37,3.47,8.64,4.65,13.11c6.22,23.68,2.39,45.72-11.96,65.57c-11.59,16.03-27.39,25.89-46.81,29.81
			c-3,0.61-6.08,0.83-9.13,1.24c-0.38,0.05-0.75,0.18-1.13,0.28c-2.88,0-5.76,0-8.64,0c-0.48-0.09-0.96-0.2-1.45-0.27
			c-3.96-0.61-7.99-0.94-11.88-1.86c-29.8-6.97-52.28-30.78-57.61-60.89c-0.48-2.72-0.8-5.48-1.19-8.22
			C94.66,129.15,94.66,125.78,94.66,122.4z"/>
		<path d="M194.78,70.52c-0.39,1.52-0.84,3.04-1.17,4.58c-0.93,4.31,0.55,8.34,1.57,12.41c0.25,1.01,0.45,2.05,0.83,3
			c0.62,1.52,0.37,2.68-1.26,3.53c-10.99-7.4-23-9.54-35.87-5.67c-9.59,2.89-17.06,8.74-22.47,17.15
			c-10.64,16.55-7.71,38.83,6.8,52.03c14.89,13.55,37.15,14.42,52.78,2.36c15.69-12.09,22.14-36.45,8.41-56.26
			c0.77-1.41,1.79-1.76,3.41-1.28c3.22,0.95,6.5,1.73,9.79,2.45c3.25,0.71,6.41,0.1,9.49-1.02c0.27-0.1,0.56-0.15,0.83-0.22
			c10.17,22.85,5.2,54.91-20.32,73.65c-25.35,18.62-59.86,15.46-81.46-7.19c-21.5-22.55-22.93-57.17-3.01-81.71
			C142.75,64.18,173.98,61.04,194.78,70.52z"/>
		<path d="M191.59,97.39c-2.39,2.4-4.67,4.74-7.05,6.98c-0.28,0.26-1.16,0.13-1.63-0.1c-9.47-4.44-18.6-3.89-27.19,2.09
			c-8.66,6.03-12.55,16.92-10.07,27.36c2.37,9.98,10.84,17.8,21.05,19.43c14.87,2.38,28.62-7.99,30.18-22.85
			c0.54-5.19-0.31-10.2-2.81-14.83c-0.47-0.87-0.36-1.36,0.32-2.02c2.2-2.15,4.33-4.37,6.5-6.57c8.5,10.96,10.07,30.97-2.88,45.19
			c-13.35,14.66-35.85,16.1-50.73,3.32c-15.03-12.9-17.26-35.16-5.12-50.48C154.6,89.21,176.48,86.85,191.59,97.39z"/>
		<path d="M219,100.67c-2.22-0.56-5.71-1.43-9.21-2.31c-1.3-0.33-2.61-0.6-3.87-1.04c-1-0.35-1.61-0.04-2.31,0.66
			c-10.06,10.1-20.14,20.17-30.22,30.24c-0.35,0.35-0.69,0.72-1.08,1.02c-1.02,0.79-2.06,0.73-2.95-0.15
			c-0.89-0.88-0.97-1.93-0.2-2.95c0.3-0.39,0.67-0.73,1.02-1.08c10.08-10.08,20.14-20.17,30.25-30.21c0.79-0.78,0.94-1.44,0.65-2.46
			c-0.96-3.43-1.83-6.89-2.74-10.34c-1.45-5.51-0.15-10.29,3.87-14.33c5.08-5.1,10.18-10.19,15.27-15.28
			c2.14-2.14,3.93-1.66,4.69,1.24c1.43,5.46,2.87,10.92,4.24,16.39c0.27,1.1,0.78,1.62,1.89,1.9c5.52,1.38,11.02,2.84,16.53,4.28
			c2.71,0.7,3.23,2.56,1.26,4.54c-5.19,5.2-10.39,10.4-15.59,15.59C227.71,99.19,224.33,100.62,219,100.67z"/>
		<path d="M190.18,117.75c4.93,8.62,2.14,20.71-6.1,26.96c-8.73,6.61-21.04,5.72-28.62-2.09c-7.65-7.88-8.29-20.09-1.42-28.66
			c6.89-8.61,18.52-10.14,26.66-5.7c-0.39,0.41-0.75,0.79-1.12,1.17c-4.42,4.42-8.88,8.82-13.26,13.28
			c-3.65,3.72-2.08,9.83,2.88,11.16c2.53,0.68,4.79,0.03,6.68-1.86c4.38-4.4,8.77-8.78,13.16-13.16
			C189.38,118.5,189.74,118.17,190.18,117.75z"/>
	</g>
</g>
</svg>
